<?xml version="1.0" standalone="no"?>
<!DOCTYPE svg PUBLIC "-//W3C//DTD SVG 1.1//EN" "http://www.w3.org/Graphics/SVG/1.1/DTD/svg11.dtd" >
<svg>
<metadata>
Created by FontForge 20090914 at Tue Jul 22 16:51:13 2014
 By www-data
&#194;&#169; 2009 Microsoft Corporation. All Rights Reserved.
</metadata>
<defs>
<font id="Constantia" horiz-adv-x="0" >
  <font-face 
    font-family="Constantia"
    font-weight="400"
    font-stretch="normal"
    units-per-em="2048"
    panose-1="2 3 6 2 5 3 6 3 3 3"
    ascent="1538"
    descent="-510"
    x-height="927"
    cap-height="1400"
    bbox="-934 -513 2395 2088"
    underline-thickness="102"
    underline-position="-103"
    unicode-range="U+000D-U+FB04"
  />
<missing-glyph horiz-adv-x="995" 
d="M995 1396v-1396h-995v1396h995zM898 98v1201h-800v-1201h800zM437 455l-1.99902 33c0 88.667 13.667 151 41 187s51.666 64 72.999 84c40.667 41.333 66.834 72.666 78.501 93.999s17.5 45.666 17.5 72.999c0 50 -14.833 89.5 -44.5 118.5s-63.834 43.5 -102.501 43.5
c-41.333 0 -76.5 -14.167 -105.5 -42.5s-47.5 -75.5 -55.5 -141.5l-96 15c10 90.667 39 157.834 87 201.501s106.333 65.5 175 65.5c69.333 0 127 -22 173 -66s69 -105.667 69 -185c0 -44 -8 -82.333 -24 -115s-48.333 -72.667 -97 -120
c-48.667 -43.333 -77.167 -78.666 -85.5 -105.999s-12.5 -72 -12.5 -134zM416.001 291c0 19.333 6.66699 35.833 20 49.5s29.666 20.5 48.999 20.5s35.833 -6.83301 49.5 -20.5s20.5 -30.167 20.5 -49.5c0 -20 -6.83301 -36.5 -20.5 -49.5s-30.167 -19.5 -49.5 -19.5
s-35.666 6.5 -48.999 19.5s-20 29.5 -20 49.5z" />
    <glyph glyph-name="f_f" unicode="ff" horiz-adv-x="1250" 
d="M385 821l-0.00195312 -545.998c0 -65.333 0.666992 -121.333 2 -168c1.33301 -18 10 -29.667 26 -35l117 -34l2 -41c-93.333 2 -172.333 3 -237 3c-66 0 -143.667 -1 -233 -3l-5 41l112 32c18.667 6 28.334 17 29.001 33c1.33301 41.333 2 85 2 131v589l-136 34l-7 42
l144 12c0 183.333 40.833 326.666 122.5 429.999s191.167 155 328.5 155c67.333 0 131.666 -8.33301 192.999 -25c-22.667 -81.333 -41.667 -165 -57 -251l-40 -7l-61 198c-18.667 2.66699 -39.667 4 -63 4c-76.667 0 -135.667 -34.167 -177 -102.5s-62 -193.833 -62 -376.5
v-23h432v2c0 188 40.833 333.667 122.5 437s191.167 155 328.5 155c66.667 0 131.667 -8.33301 195 -25c-22.667 -81.333 -42 -165 -58 -251l-42 -8l-65 200c-15.333 2 -34.666 3 -57.999 3c-76.667 0 -135.667 -34.333 -177 -103s-62 -194.334 -62 -377.001v-33h249v-92
h-249v-546c0 -62.667 0.666992 -117.667 2 -165c1.33301 -18 10 -29.333 26 -34l127 -38l2 -41c-100 2 -182.333 3 -247 3c-66 0 -140.333 -1 -223 -3l-4 41l101 29c18.667 6 28.334 17 29.001 33c1.33301 41.333 2 86 2 134v587h-431z" />
    <glyph glyph-name="fi" unicode="fi" horiz-adv-x="1196" 
d="M385 821l-0.000976562 -545.998c0 -65.333 0.666992 -121.333 2 -168c1.33301 -18 10 -29.667 26 -35l117 -34l2 -41c-93.333 2 -172.333 3 -237 3c-66 0 -143.667 -1 -233 -3l-5 41l112 32c18.667 6 28.334 17 29.001 33c1.33301 41.333 2 85 2 131v589l-136 34l-7 42
l144 12v4c0 188 48.5 333.667 145.5 437s226.5 155 388.5 155c80.667 0 157.334 -8.33301 230.001 -25c-22 -81.333 -41 -165 -57 -251l-39 -8l-80 199c-25.333 2.66699 -53.333 4 -84 4c-102.667 0 -181.667 -34.333 -237 -103s-83 -194.334 -83 -377.001v-33h455
c54.667 12 107.334 24.333 158.001 37l9 -7c-4 -86.667 -6 -182 -6 -286v-384c0 -80 0.666992 -135.333 2 -166c1.33301 -18 9.66602 -29.667 24.999 -35l116 -34l2 -41c-92 2 -170.333 3 -235 3c-66 0 -140.333 -1 -223 -3l-4 41l105 31
c15.333 5.33301 23.666 15.666 24.999 30.999c1.33301 26 2 70.667 2 134v587h-431z" />
    <glyph glyph-name="fl" unicode="fl" horiz-adv-x="1201" 
d="M385 818v-543c0 -65.333 0.666992 -121.333 2 -168c1.33301 -18 10 -29.667 26 -35l117 -34l2 -41c-93.333 2 -172.333 3 -237 3c-66 0 -143.667 -1 -233 -3l-5 41l112 32c18.667 6 28.334 17 29.001 33c1.33301 41.333 2 85 2 131v589l-136 34l-7 42l144 12v4
c0 188 47 333.667 141 437s218 155 372 155c70.667 0 133 -8 187 -24c34.667 7.33301 68.667 15.333 102 24l9 -8c-4 -108.667 -6 -259.667 -6 -453v-651c0 -119.333 0.666992 -215.333 2 -288c2 -19.333 11.333 -31.333 28 -36l110 -33l2 -41c-90 2 -167.333 3 -232 3
c-66 0 -140.333 -1 -223 -3l-4 41l103 30c16.667 5.33301 25.667 16 27 32c1.33301 75.333 2 160.333 2 255v1044c-30.667 15.333 -72 23 -124 23c-102.667 0 -180.334 -33.667 -233.001 -101s-79 -192.333 -79 -375v-33h264v-95h-264z" />
    <glyph glyph-name="f_f_i" unicode="ffi" horiz-adv-x="1812" 
d="M1001 821l-0.000976562 -545.997c0 -65.333 0.666992 -121.333 2 -168c1.33301 -18 10 -29.667 26 -35l117 -34l2 -41c-93.333 2 -172.333 3 -237 3c-66 0 -144 -1 -234 -3l-4 41l112 32c18.667 6 28.334 17 29.001 33c1.33301 41.333 2 85 2 131v587h-431v-546
c0 -65.333 0.666992 -121.333 2 -168c1.33301 -18 10 -29.667 26 -35l117 -34l2 -41c-93.333 2 -172.333 3 -237 3c-66 0 -143.667 -1 -233 -3l-5 41l112 32c18.667 6 28.334 17 29.001 33c1.33301 41.333 2 85 2 131v589l-136 34l-7 42l144 12
c0 183.333 40.833 326.666 122.5 429.999s191.167 155 328.5 155c67.333 0 131.666 -8.33301 192.999 -25c-22.667 -81.333 -41.667 -165 -57 -251l-40 -7l-61 198c-18.667 2.66699 -39.667 4 -63 4c-76.667 0 -135.667 -34.167 -177 -102.5s-62 -193.833 -62 -376.5v-23
h432v2c0 188 48.5 333.667 145.5 437s226.5 155 388.5 155c80.667 0 157.334 -8.33301 230.001 -25c-22.667 -81.333 -41.667 -165 -57 -251l-40 -8l-79 199c-25.333 2.66699 -53.333 4 -84 4c-102.667 0 -181.667 -34.333 -237 -103s-83 -194.334 -83 -377.001v-33h455
c54.667 12 107.334 24.333 158.001 37l9 -7c-4 -86.667 -6 -182 -6 -286v-384c0 -80 0.666992 -135.333 2 -166c1.33301 -18 9.66602 -29.667 24.999 -35l116 -34l2 -41c-92 2 -170.667 3 -236 3s-139.333 -1 -222 -3l-4 41l105 31
c15.333 5.33301 23.666 15.666 24.999 30.999c1.33301 26 2 70.667 2 134v587h-431z" />
    <glyph glyph-name="f_f_l" unicode="ffl" horiz-adv-x="1816" 
d="M1001 821l-0.00195312 -545.999c0 -65.333 0.666992 -121.333 2 -168c1.33301 -18 10 -29.667 26 -35l117 -34l2 -41c-93.333 2 -172.333 3 -237 3c-66 0 -144 -1 -234 -3l-4 41l112 32c18.667 6 28.334 17 29.001 33c1.33301 41.333 2 85 2 131v587h-428v-546
c0 -65.333 0.666992 -121.333 2 -168c1.33301 -18 10.333 -29.667 27 -35l118 -34l2 -41c-94.667 2 -174.667 3 -240 3c-67.333 0 -145.666 -1 -234.999 -3l-5 41l112 32c18.667 6 28.334 17 29.001 33c1.33301 41.333 2 85 2 131v589l-136 34l-7 42l144 12
c0 183.333 40.833 326.666 122.5 429.999s191.167 155 328.5 155c67.333 0 131.666 -8.33301 192.999 -25c-22.667 -81.333 -41.667 -165 -57 -251l-40 -7l-61 198c-18.667 2.66699 -39.667 4 -63 4c-76.667 0 -135.667 -34.167 -177 -102.5s-62 -193.833 -62 -376.5v-23
h432v2c0 188 47 333.5 141 436.5s218 154.5 372 154.5c70.667 0 133 -8 187 -24c34.667 7.33301 68.667 15.333 102 24l9 -8c-4 -108 -6 -258.667 -6 -452v-651c0 -119.333 0.666992 -215.333 2 -288c2 -19.333 11.333 -31.333 28 -36l109 -33l2 -41
c-89.333 2 -166.666 3 -231.999 3s-139.333 -1 -222 -3l-4 41l103 30c16.667 5.33301 25.667 16 27 32c1.33301 75.333 2 160.333 2 255v1044c-30.667 15.333 -72 23 -124 23c-102.667 0 -180.334 -33.667 -233.001 -101s-79 -192.333 -79 -375v-33h264v-92h-264z" />
    <glyph glyph-name="f_b.liga" unicode="fb" horiz-adv-x="1787" 
d="M821 357v1042c-30.667 15.333 -72 23 -124 23c-102.667 0 -180.334 -33.667 -233.001 -101s-79 -192.333 -79 -375v-33h264v-95h-264v-543c0 -65.333 0.666992 -121.333 2 -168c1.33301 -18 10 -29.667 26 -35l117 -34l2 -41c-93.333 2 -172.333 3 -237 3
c-66 0 -143.667 -1 -233 -3l-5 41l112 32c18.667 6 28.334 17 29.001 33c1.33301 41.333 2 85 2 131v589l-136 34l-7 42l144 12v4c0 188 47 333.667 141 437s218 155 372 155c70.667 0 133 -8 187 -24c34.667 7.33301 68.667 15.333 102 24l9 -8
c-4 -108.667 -6 -259.667 -6 -453v-201c108 70 206.333 105 295 105c125.333 0 224.333 -42 297 -126s109 -193.667 109 -329c0 -164.667 -46.833 -292.834 -140.5 -384.501s-223.5 -137.5 -389.5 -137.5c-110.667 0 -230 19 -358 57c1.33301 84.667 2 193.667 2 327z
M1006 85.001c54.667 -17.333 109.667 -25.999 165 -25.999c112 0 196.167 34.333 252.5 103s84.5 167 84.5 295c0 117.333 -26.167 208.666 -78.5 273.999s-129.5 98 -231.5 98c-65.333 0 -129.333 -14.667 -192 -44v-700z" />
    <glyph glyph-name="f_f_b.liga" unicode="ffb" horiz-adv-x="2403" 
d="M1437 357l0.00195312 1042c-30.667 15.333 -72 23 -124 23c-102.667 0 -180.334 -33.667 -233.001 -101s-79 -192.333 -79 -375v-33h264v-92h-264v-546c0 -65.333 0.666992 -121.333 2 -168c1.33301 -18 10 -29.667 26 -35l117 -34l2 -41c-93.333 2 -172.333 3 -237 3
c-66 0 -144 -1 -234 -3l-4 41l112 32c18.667 6 28.334 17 29.001 33c1.33301 41.333 2 85 2 131v587h-431v-546c0 -65.333 0.666992 -121.333 2 -168c1.33301 -18 10 -29.667 26 -35l117 -34l2 -41c-93.333 2 -172.333 3 -237 3c-66 0 -143.667 -1 -233 -3l-5 41l112 32
c18.667 6 28.334 17 29.001 33c1.33301 41.333 2 85 2 131v589l-136 34l-7 42l144 12c0 183.333 40.833 326.666 122.5 429.999s191.167 155 328.5 155c67.333 0 131.666 -8.33301 192.999 -25c-22.667 -81.333 -41.667 -165 -57 -251l-40 -7l-61 198
c-18.667 2.66699 -39.667 4 -63 4c-76.667 0 -135.667 -34.167 -177 -102.5s-62 -193.833 -62 -376.5v-23h432v23c0 174 47 312.667 141 416s218 155 372 155c70.667 0 133 -8 187 -24c34.667 7.33301 68.667 15.333 102 24l9 -8c-4 -108.667 -6 -259.667 -6 -453v-201
c107.333 70 205.666 105 294.999 105c125.333 0 224.333 -42 296.999 -126c72.667 -84 109 -193.667 109 -329c0 -164.667 -46.833 -292.834 -140.5 -384.501s-223.5 -137.5 -389.5 -137.5c-110.667 0 -230 19 -358 57c1.33301 84.667 2 193.667 2 327zM1622 85.002
c54.667 -17.333 109.667 -25.999 165 -25.999c112 0 196.167 34.333 252.5 103s84.5 167 84.5 295c0 117.333 -26.167 208.666 -78.5 273.999s-129.5 98 -231.5 98c-65.333 0 -129.333 -14.667 -192 -44v-700z" />
    <glyph glyph-name="f_h.liga" unicode="fh" horiz-adv-x="1813" 
d="M821 348l-0.000976562 1051c-30.667 15.333 -72 23 -124 23c-102.667 0 -180.334 -33.667 -233.001 -101s-79 -192.333 -79 -375v-33h264v-95h-264v-543c0 -65.333 0.666992 -121.333 2 -168c1.33301 -18 10 -29.667 26 -35l117 -34l2 -41c-93.333 2 -172.333 3 -237 3
c-66 0 -143.667 -1 -233 -3l-5 41l112 32c18.667 6 28.334 17 29.001 33c1.33301 41.333 2 85 2 131v589l-136 34l-7 42l144 12v4c0 188 46.833 333.667 140.5 437s217.5 155 371.5 155c70.667 0 132.667 -8 186 -24c35.333 7.33301 70 15.333 104 24l9 -8
c-4 -108.667 -6 -259.667 -6 -453v-208c116 74.667 224 112 324 112c92.667 0 166.334 -25.833 221.001 -77.5s82 -127.5 82 -227.5v-353c0 -76.667 0.666992 -138.334 2 -185.001c0.666992 -17.333 9 -29 25 -35l112 -34l2 -41c-88 2 -164.333 3 -229 3
c-66 0 -139 -1 -219 -3l-4 41l99 29c16 5.33301 24.667 15.666 26 30.999c0.666992 9.33301 1 30.333 1 63v436c0 82 -19.667 140.833 -59 176.5s-97.333 53.5 -174 53.5c-66 0 -135.667 -16 -209 -48v-449c0 -82.667 0.666992 -158.334 2 -227.001
c0.666992 -18.667 9 -30.334 25 -35.001l104 -30l2 -41c-84 2 -158.333 3 -223 3c-66 0 -143.333 -1 -232 -3l-5 41l113 33c17.333 5.33301 26.333 16 27 32c1.33301 64 2 145.667 2 245z" />
    <glyph glyph-name="f_f_h.liga" unicode="ffh" horiz-adv-x="2429" 
d="M1437 1399c-30.667 15.333 -72.002 23.0049 -124.002 23.0049c-102.667 0 -180.334 -33.667 -233.001 -101s-79 -192.333 -79 -375v-33h264v-92h-264v-546c0 -65.333 0.666992 -121.333 2 -168c1.33301 -18 10 -29.667 26 -35l117 -34l2 -41c-93.333 2 -172.333 3 -237 3
c-66 0 -144 -1 -234 -3l-4 41l112 32c18.667 6 28.334 17 29.001 33c1.33301 41.333 2 85 2 131v587h-431v-546c0 -65.333 0.666992 -121.333 2 -168c1.33301 -18 10 -29.667 26 -35l117 -34l2 -41c-93.333 2 -172.333 3 -237 3c-66 0 -143.667 -1 -233 -3l-5 41l112 32
c18.667 6 28.334 17 29.001 33c1.33301 41.333 2 85 2 131v589l-136 34l-7 42l144 12c0 183.333 40.833 326.666 122.5 429.999s191.167 155 328.5 155c67.333 0 131.666 -8.33301 192.999 -25c-22.667 -81.333 -41.667 -165 -57 -251l-40 -7l-61 198
c-18.667 2.66699 -39.667 4 -63 4c-76.667 0 -135.667 -34.167 -177 -102.5s-62 -193.833 -62 -376.5v-23h432v2c0 188 46.833 333.667 140.5 437s217.5 155 371.5 155c70.667 0 132.667 -8 186 -24c35.333 7.33301 70 15.333 104 24l9 -8c-4 -108.667 -6 -259.667 -6 -453
v-208c116 74.667 224 112 324 112c92.667 0 166.334 -25.833 221.001 -77.5s82 -127.5 82 -227.5v-353c0 -76.667 0.666992 -138.334 2 -185.001c0.666992 -17.333 9 -29 25 -35l112 -34l2 -41c-88 2 -164.667 3 -230 3s-138 -1 -218 -3l-4 41l98 29
c16.667 5.33301 25.667 15.666 27 30.999c0.666992 9.33301 1 30.333 1 63v436c0 82 -19.667 140.833 -59 176.5s-97.333 53.5 -174 53.5c-66 0 -135.667 -16 -209 -48v-449c0 -82.667 0.666992 -158.334 2 -227.001c0.666992 -18.667 9 -30.334 25 -35.001l104 -30l2 -41
c-84 2 -158.667 3 -224 3s-142.666 -1 -231.999 -3l-4 41l113 33c17.333 5.33301 26.333 16 27 32c1.33301 64 2 145.667 2 245v1051z" />
    <glyph glyph-name="f_j.liga" unicode="fj" horiz-adv-x="1174" 
d="M999 551v-471.998c0 -132 -25.167 -235.667 -75.5 -311s-138.833 -169 -265.5 -281l-47 40c98.667 130.667 157.5 227 176.5 289s28.5 140.667 28.5 236v769h-431v-546c0 -62.667 0.666992 -117.667 2 -165c1.33301 -18 10 -29.333 26 -34l130 -38l3 -41
c-102.667 2 -186.334 3 -251.001 3c-66 0 -143.667 -1 -233 -3l-5 41l112 32c18.667 6 28.334 17 29.001 33c1.33301 41.333 2 85 2 131v589l-136 34l-7 42l144 12v4c0 188 48.167 333.667 144.5 437s225.833 155 388.5 155c80.667 0 157.667 -8.33301 231 -25
c-22 -81.333 -41 -165 -57 -251l-39 -8l-80 199c-25.333 2.66699 -53.333 4 -84 4c-102.667 0 -181.667 -34.333 -237 -103s-83 -194.334 -83 -377.001v-33h455c53.333 12 105.333 24.333 156 37l9 -7c-4 -86.667 -6 -217.334 -6 -392.001z" />
    <glyph glyph-name="f_f_j.liga" unicode="ffj" horiz-adv-x="1790" 
d="M1432 821l-431.001 0.00292969v-546c0 -65.333 0.666992 -121.333 2 -168c1.33301 -18 10 -29.667 26 -35l117 -34l2 -41c-93.333 2 -172.333 3 -237 3c-66 0 -144 -1 -234 -3l-4 41l112 32c18.667 6 28.334 17 29.001 33c1.33301 41.333 2 85 2 131v587h-431v-546
c0 -65.333 0.666992 -121.333 2 -168c1.33301 -18 10 -29.667 26 -35l117 -34l2 -41c-93.333 2 -172.333 3 -237 3c-66 0 -143.667 -1 -233 -3l-5 41l112 32c18.667 6 28.334 17 29.001 33c1.33301 41.333 2 85 2 131v589l-136 34l-7 42l144 12
c0 183.333 40.833 326.666 122.5 429.999s191.167 155 328.5 155c67.333 0 131.666 -8.33301 192.999 -25c-22.667 -81.333 -41.667 -165 -57 -251l-40 -7l-61 198c-18.667 2.66699 -39.667 4 -63 4c-76.667 0 -135.667 -34.167 -177 -102.5s-62 -193.833 -62 -376.5v-23
h432v23c0 174 48.5 312.667 145.5 416s226.5 155 388.5 155c80.667 0 157.334 -8.33301 230.001 -25c-22.667 -81.333 -41.667 -165 -57 -251l-40 -8l-79 199c-25.333 2.66699 -53.333 4 -84 4c-102.667 0 -181.667 -34.333 -237 -103s-83 -194.334 -83 -377.001v-33h455
c53.333 12 105 24.333 155 37l10 -7c-4 -86.667 -6 -217.334 -6 -392.001v-472c0 -132 -25.333 -235.667 -76 -311s-139.334 -169 -266.001 -281l-46 40c98.667 130.667 157.5 227 176.5 289s28.5 140.667 28.5 236v769z" />
    <glyph glyph-name="f_k.liga" unicode="fk" horiz-adv-x="1721" 
d="M821 1399c-30.667 15.333 -71.999 23.001 -123.999 23.001c-102.667 0 -180.334 -33.667 -233.001 -101s-79 -192.333 -79 -375v-33h264v-95h-264v-543c0 -65.333 0.666992 -121.333 2 -168c1.33301 -18 10 -29.667 26 -35l117 -34l2 -41c-93.333 2 -172.333 3 -237 3
c-66 0 -143.667 -1 -233 -3l-5 41l112 32c18.667 6 28.334 17 29.001 33c1.33301 41.333 2 85 2 131v589l-136 34l-7 42l144 12v4c0 188 47 333.667 141 437s218 155 372 155c70.667 0 133 -8 187 -24c34.667 7.33301 68.667 15.333 102 24l9 -8
c-4 -108.667 -6 -259.667 -6 -453v-654c0 -98.667 0.666992 -195.334 2 -290.001c1.33301 -19.333 10 -31 26 -35l97 -29l2 -41c-80 2 -152.333 3 -217 3c-66 0 -143.333 -1 -232 -3l-5 41l118 35c13.333 4.66699 20.666 14.667 21.999 30c1.33301 75.333 2 159.333 2 252
v1044zM1731 -2.99902c-89.333 2 -155.668 2.99902 -199.001 2.99902c-28.667 -0 -66.334 -0.666992 -113.001 -2c-25.333 40.667 -55 84.334 -89 131.001c-92 128.667 -191 254.334 -297 377.001l361 350l-111 31l-4 40c86 -2 149.333 -3 190 -3c37.333 0 107 1 209 3l4 -41
c-67.333 -17.333 -115.666 -32.5 -144.999 -45.5s-63.666 -37.833 -102.999 -74.5l-214 -198l322 -402c36 -44.667 64.167 -74.334 84.5 -89.001s54.5 -27.667 102.5 -39z" />
    <glyph glyph-name="f_f_k.liga" unicode="ffk" horiz-adv-x="2337" 
d="M2347 -3c-89.333 2 -155.666 2.99902 -199 2.99902c-28.667 0 -66.667 -0.666992 -114 -2c-24.667 40.667 -54 84.334 -88 131.001c-92 128.667 -191 254.334 -297 377.001l361 350l-111 31l-4 40c86 -2 149.333 -3 190 -3c36.667 0 106.334 1 209 3l4 -41
c-67.333 -17.333 -115.666 -32.5 -145 -45.5c-29.333 -13 -63.666 -37.833 -103 -74.5l-214 -198l322 -402c36 -44.667 64.167 -74.334 84.5 -89.001s54.5 -27.667 102.5 -39zM1437 1399c-30.667 15.333 -72 23.002 -124 23.002c-102.667 0 -180.334 -33.667 -233.001 -101
s-79 -192.333 -79 -375v-33h264v-92h-264v-546c0 -65.333 0.666992 -121.333 2 -168c1.33301 -18 10 -29.667 26 -35l117 -34l2 -41c-93.333 2 -172.333 3 -237 3c-66 0 -144 -1 -234 -3l-4 41l112 32c18.667 6 28.334 17 29.001 33c1.33301 41.333 2 85 2 131v587h-431
v-546c0 -65.333 0.666992 -121.333 2 -168c1.33301 -18 10 -29.667 26 -35l117 -34l2 -41c-93.333 2 -172.333 3 -237 3c-66 0 -143.667 -1 -233 -3l-5 41l112 32c18.667 6 28.334 17 29.001 33c1.33301 41.333 2 85 2 131v589l-136 34l-7 42l144 12
c0 183.333 40.833 326.666 122.5 429.999s191.167 155 328.5 155c67.333 0 131.666 -8.33301 192.999 -25c-22.667 -81.333 -41.667 -165 -57 -251l-40 -7l-61 198c-12 2.66699 -33 4 -63 4c-76.667 0 -135.667 -34.167 -177 -102.5s-62 -193.833 -62 -376.5v-23h432v2
c0 188 47 333.667 141 437s218 155 372 155c70.667 0 133 -8 187 -24c34.667 7.33301 68.667 15.333 102 24l9 -8c-4 -108.667 -6 -259.667 -6 -453v-654c0 -98.667 0.666992 -195.334 2 -290.001c1.33301 -19.333 10 -31 26 -35l97 -29l2 -41c-80 2 -152.667 3 -218 3
s-142.666 -1 -231.999 -3l-4 41l118 35c13.333 4.66699 20.666 14.667 21.999 30c1.33301 75.333 2 159.333 2 252v1044z" />
    <glyph glyph-name=".notdef" horiz-adv-x="995" 
d="M995 1396v-1396h-995v1396h995zM898 98v1201h-800v-1201h800zM437 455l-1.99902 33c0 88.667 13.667 151 41 187s51.666 64 72.999 84c40.667 41.333 66.834 72.666 78.501 93.999s17.5 45.666 17.5 72.999c0 50 -14.833 89.5 -44.5 118.5s-63.834 43.5 -102.501 43.5
c-41.333 0 -76.5 -14.167 -105.5 -42.5s-47.5 -75.5 -55.5 -141.5l-96 15c10 90.667 39 157.834 87 201.501s106.333 65.5 175 65.5c69.333 0 127 -22 173 -66s69 -105.667 69 -185c0 -44 -8 -82.333 -24 -115s-48.333 -72.667 -97 -120
c-48.667 -43.333 -77.167 -78.666 -85.5 -105.999s-12.5 -72 -12.5 -134zM416.001 291c0 19.333 6.66699 35.833 20 49.5s29.666 20.5 48.999 20.5s35.833 -6.83301 49.5 -20.5s20.5 -30.167 20.5 -49.5c0 -20 -6.83301 -36.5 -20.5 -49.5s-30.167 -19.5 -49.5 -19.5
s-35.666 6.5 -48.999 19.5s-20 29.5 -20 49.5z" />
    <glyph glyph-name="uni0000" 
 />
    <glyph glyph-name="uni0000" 
 />
    <glyph glyph-name="uni000D" unicode="&#xd;" 
 />
    <glyph glyph-name="space" unicode=" " horiz-adv-x="514" 
 />
    <glyph glyph-name="space" unicode="&#xa0;" horiz-adv-x="514" 
 />
    <glyph glyph-name="exclam" unicode="!" horiz-adv-x="564" 
d="M319 396l-78 957l224 10l9 -8l-93 -956zM350 210c34.667 0 63.167 -10.833 85.5 -32.5s33.5 -50.167 33.5 -85.5s-11.167 -64.166 -33.5 -86.499s-50.833 -33.5 -85.5 -33.5c-36.667 0 -66 11.167 -88 33.5s-33 51.166 -33 86.499s11 63.833 33 85.5s51.333 32.5 88 32.5
z" />
    <glyph glyph-name="quotedbl" unicode="&#x22;" horiz-adv-x="736" 
d="M100 1487h196l-90 -485h-65zM430 1487h196l-90 -485h-65z" />
    <glyph glyph-name="numbersign" unicode="#" horiz-adv-x="1130" 
d="M314 -10h-117l59 391h-201v115h219l44 291h-201v115h218l60 392h117l-60 -392h289l60 392h116l-59 -392h202v-115h-220l-43 -291h201v-115h-219l-59 -391h-117l59 391h-289zM391 496h289l44 291h-289z" />
    <glyph glyph-name="dollar" unicode="$" horiz-adv-x="901" 
d="M429 1174l78 7.99805l-3 -117c94.667 -1.33301 185.334 -13.333 272.001 -36l7 -6l-49 -261l-38 -6l-56 205c-44 16.667 -89.667 26 -137 28l-9 -368c59.333 -25.333 107.166 -46.5 143.499 -63.5s68.833 -37.167 97.5 -60.5s51.834 -50.666 69.501 -81.999
s26.5 -68.666 26.5 -111.999c0 -90.667 -30.833 -165.334 -92.5 -224.001s-147.834 -92.667 -258.501 -102l-3 -128l-78 -8l3 133c-104 3.33301 -206 21 -306 53l-6 8l41 287l43 7l57 -238c53.333 -21.333 111 -33.666 173 -36.999l9 403c-46.667 20 -88 38.667 -124 56
s-68.5 38.333 -97.5 63s-52.333 53.834 -70 87.501s-26.5 74.167 -26.5 121.5c0 78.667 29.833 142.667 89.5 192s140.167 77.666 241.5 84.999zM482 56.998c118 17.333 177 79.334 177 186.001c0 75.333 -56.333 136.666 -169 183.999zM425 984.999
c-108.667 -13.333 -163 -62.667 -163 -148c0 -76 51.667 -137.333 155 -184z" />
    <glyph glyph-name="percent" unicode="%" horiz-adv-x="1682" 
d="M213 1066c0 -121.333 14.667 -214.166 44 -278.499s73 -96.5 131 -96.5c54 0 95.333 27.667 124 83s43 148.666 43 279.999c0 124 -15 215.667 -45 275s-73.333 89 -130 89c-54 0 -95.333 -26.167 -124 -78.5s-43 -143.5 -43 -273.5zM708 1073
c0 -142 -31.167 -250.833 -93.5 -326.5s-141.833 -113.5 -238.5 -113.5c-94.667 0 -171 35.333 -229 106s-87 172.667 -87 306c0 138 30.333 244.333 91 319s141 112 241 112c95.333 0 171.833 -33.833 229.5 -101.5s86.5 -168.167 86.5 -301.5zM343 0l946 1477l75 -47
l-947 -1477zM1142 408c0 -121.333 14.667 -214.166 44 -278.499s73 -96.5 131 -96.5c54 0 95.333 27.667 124 83s43 148.666 43 279.999c0 124 -15 215.667 -45 275s-73.333 89 -130 89c-54 0 -95.333 -26.167 -124 -78.5s-43 -143.5 -43 -273.5zM1637 415
c0 -142 -31.167 -250.833 -93.5 -326.5s-141.833 -113.5 -238.5 -113.5c-94.667 0 -171 35.333 -229 106s-87 172.667 -87 306c0 138 30.333 244.333 91 319s141 112 241 112c95.333 0 171.833 -33.833 229.5 -101.5s86.5 -168.167 86.5 -301.5z" />
    <glyph glyph-name="ampersand" unicode="&#x26;" horiz-adv-x="1386" 
d="M877 779c38 -1.33301 75.832 -2.33105 113.499 -2.99805s76.167 -1 115.5 -1c34 0 65.833 0.333008 95.5 1s57.834 1.66699 84.501 3l3 -44l-125 -31c-13.333 -3.33301 -19 -11 -17 -23c4 -34 6 -65.333 6 -94c0 -138.667 -34 -258 -102 -358
c44 -61.333 84 -106.333 120 -135s78 -43 126 -43c18.667 0 39 2 61 6l8 -44c-58.667 -30 -119.667 -45 -183 -45c-105.333 0 -195 44.667 -269 134c-114 -86.667 -239.667 -130 -377 -130c-128.667 0 -237 33.333 -325 100s-132 157 -132 271
c0 154.667 96.667 282.667 290 384c-72.667 85.333 -119.167 152.666 -139.5 201.999s-30.5 100 -30.5 152c0 95.333 33.667 171.666 101 228.999s151 86 251 86c88 0 162 -24.333 222 -73s90 -115.667 90 -201c0 -138 -95.667 -254.667 -287 -350l407 -467
c44 78 66 166.667 66 266c0 40.667 -2 73.667 -6 99c-2 12.667 -6.16699 21.667 -12.5 27s-15.833 9.33301 -28.5 12l-124 25zM417.999 670.002c-94.667 -78 -141.999 -175.667 -141.999 -293c0 -92 27.833 -165 83.5 -219s133.167 -81 232.5 -81
c95.333 0 182.666 31.333 261.999 94zM532 824.002c110.667 84 165.999 181.334 165.999 292.001c0 60 -15.5 108.167 -46.5 144.5s-70.167 54.5 -117.5 54.5c-49.333 0 -89.166 -15.833 -119.499 -47.5s-45.5 -73.834 -45.5 -126.501c0 -87.333 38.667 -175 116 -263z" />
    <glyph glyph-name="quotesingle" unicode="'" horiz-adv-x="406" 
d="M100 1487h196l-90 -485h-65z" />
    <glyph glyph-name="parenleft" unicode="(" horiz-adv-x="755" 
d="M612 -377c-301.333 255.333 -452 579.335 -452 972.002c0 395.333 150.667 720.666 452 975.999l43 -38c-212.667 -236.667 -319 -548 -319 -934c0 -388.667 106.333 -701.334 319 -938.001z" />
    <glyph glyph-name="parenright" unicode=")" horiz-adv-x="755" 
d="M143 1571c301.333 -255.333 452 -579.335 452 -972.002c0 -395.333 -150.667 -720.666 -452 -975.999l-43 38c212.667 236.667 319 548 319 934c0 388.667 -106.333 701.334 -319 938.001z" />
    <glyph glyph-name="asterisk" unicode="*" horiz-adv-x="887" 
d="M541 1433l-67 -314l287 124l46 -140l-319 -34l205 -232l-119 -87l-130 290l-158 -268l-119 86l236 215l-303 68l45 141l278 -160l-30 311h148z" />
    <glyph glyph-name="plus" unicode="+" horiz-adv-x="1130" 
d="M93 522h412v412h121v-412h411v-121h-411v-411h-121v411h-412v121z" />
    <glyph glyph-name="comma" unicode="," horiz-adv-x="524" 
d="M91 -279c94.667 77.333 142 153 142 227c0 64.667 -34 116.667 -102 156c0 38 11.167 68.167 33.5 90.5s51.5 33.5 87.5 33.5c39.333 0 71.166 -15.167 95.499 -45.5s36.5 -68.833 36.5 -115.5c0 -72 -21.167 -140 -63.5 -204s-106.166 -126 -191.499 -186z" />
    <glyph glyph-name="hyphen" unicode="-" horiz-adv-x="736" 
d="M90 562h556v-130h-556v130z" />
    <glyph glyph-name="hyphen" unicode="&#x2010;" horiz-adv-x="736" 
d="M90 562h556v-130h-556v130z" />
    <glyph glyph-name="hyphen" unicode="&#xad;" horiz-adv-x="736" 
d="M90 562h556v-130h-556v130z" />
    <glyph glyph-name="period" unicode="." horiz-adv-x="524" 
d="M268 210c34.667 0 63.167 -10.833 85.5 -32.5s33.5 -50.167 33.5 -85.5s-11.167 -64.166 -33.5 -86.499s-50.833 -33.5 -85.5 -33.5c-36.667 0 -66 11.167 -88 33.5s-33 51.166 -33 86.499s11 63.833 33 85.5s51.333 32.5 88 32.5z" />
    <glyph glyph-name="slash" unicode="/" horiz-adv-x="825" 
d="M110 -226l505 1652h120l-505 -1652h-120z" />
    <glyph glyph-name="zero" unicode="0" horiz-adv-x="1103" 
d="M280 477c0 -132 23.833 -235.667 71.5 -311s116.167 -113 205.5 -113c90.667 0 157.667 33.667 201 101s65 170.333 65 309c0 136 -23.667 238.5 -71 307.5s-116 103.5 -206 103.5c-92 0 -159.333 -33 -202 -99s-64 -165.333 -64 -298zM1023 485
c0 -156 -44.501 -280.168 -133.501 -372.501s-205.167 -138.5 -348.5 -138.5c-138 0 -249.333 42.333 -334 127s-127 201.334 -127 350.001c0 152.667 44.333 274 133 364s205.334 135 350.001 135c140.667 0 252.5 -41 335.5 -123s124.5 -196 124.5 -342z" />
    <glyph glyph-name="one" unicode="1" horiz-adv-x="641" 
d="M35 832l-5.00098 41.999c134 20 268 42 402 66l9 -8c-8 -116.667 -12 -237 -12 -361v-244c0 -88 0.666992 -159 2 -213c0.666992 -19.333 10 -31.333 28 -36l159 -41l3 -40c-123.333 2 -217.666 3 -282.999 3s-159.333 -1 -282 -3l-4 40l163 41
c17.333 4.66699 26.333 15.334 27 32.001c1.33301 54 2 114 2 180v166c0 134 -1.33301 252.667 -4 356z" />
    <glyph glyph-name="two" unicode="2" horiz-adv-x="992" 
d="M868 317l44.002 8.00195l-20 -321l-7 -7c-136 2 -278.333 3 -427 3c-138 0 -265 -1 -381 -3l-7 82l169 113c50 34.667 93.333 67 130 97c36.667 29.333 69 57.333 97 84s51.5 53.167 70.5 79.5s33.5 53.166 43.5 80.499s15 56 15 86c0 61.333 -22.333 110 -67 146
s-99.334 54 -164.001 54c-76 0 -152.667 -20.667 -230 -62l-38 66c124.667 84.667 249.667 127 375 127c94 0 172.167 -22.833 234.5 -68.5s93.5 -109.167 93.5 -190.5c0 -50.667 -11.333 -97.834 -34 -141.501s-55.667 -86.5 -99 -128.5s-96.333 -84.5 -159 -127.5
s-134.334 -88.5 -215.001 -136.5l1 -5h497z" />
    <glyph glyph-name="three" unicode="3" horiz-adv-x="935" 
d="M210 332c119.333 12.667 215.002 43.6699 287.002 93.0029s108 113.333 108 192c0 62.667 -23.5 113.667 -70.5 153s-106.5 59 -178.5 59c-94 0 -189 -25 -285 -75l-41 66c132 86.667 267.667 130 407 130c103.333 0 190.333 -24.833 261 -74.5
s106 -114.834 106 -195.501c0 -148 -109.333 -258.667 -328 -332v-4c125.333 -4.66699 223.166 -36.334 293.499 -95.001s105.5 -130.667 105.5 -216c0 -138 -73.333 -252.333 -220 -343s-358 -140.667 -634 -150l-11 74c219.333 14.667 383.5 57.167 492.5 127.5
s163.5 158.166 163.5 263.499c0 82.667 -28.333 147.667 -85 195s-135.334 71 -236.001 71c-39.333 0 -82 -4 -128 -12z" />
    <glyph glyph-name="four" unicode="4" horiz-adv-x="1087" 
d="M634 717c-75.333 -84.667 -150.833 -175 -226.5 -271l-223.5 -297h450v568zM819 -117c0 -93.333 1.66699 -187.667 5 -283c-64 -6.66699 -124.667 -15.334 -182 -26.001l-10 8c1.33301 93.333 2 188.333 2 285v183h-249c-91.333 0 -202.333 -1 -333 -3l-7 73l325.5 417.5
l337.5 405.5l117 7c-4 -149.333 -6 -288.666 -6 -417.999v-383h229l4 -102c-73.333 2 -151 3 -233 3v-167z" />
    <glyph glyph-name="five" unicode="5" horiz-adv-x="974" 
d="M132 344l58 583.998c83.333 -2.66699 183 -4 299 -4c134 0 259.667 1.33301 377 4l6 -8l-25 -165l-577 14l-28 -282c56.667 9.33301 110 14 160 14c152.667 0 274.5 -37 365.5 -111s136.5 -175.667 136.5 -305c0 -165.333 -76.167 -297.166 -228.5 -395.499
s-344.166 -148.166 -575.499 -149.499l-10 74c182 6.66699 330.167 48 444.5 124s171.5 178.333 171.5 307c0 99.333 -33.5 176.333 -100.5 231s-161.167 82 -282.5 82c-60.667 0 -122.334 -7 -185.001 -21z" />
    <glyph glyph-name="six" unicode="6" horiz-adv-x="1108" 
d="M965 1322c-206 -41.333 -360.332 -113.833 -462.999 -217.5s-169 -231.167 -199 -382.5l2 -1c80.667 88 185.334 132 314.001 132c119.333 0 219.833 -40 301.5 -120s122.5 -181.667 122.5 -305c0 -130.667 -44.667 -239 -134 -325s-200.333 -129 -333 -129
c-146.667 0 -265.334 53 -356.001 159s-136 242.667 -136 410c0 205.333 70.667 387 212 545s359.666 259.667 654.999 305zM842.001 370c0 116.667 -26.999 211.5 -80.999 284.5s-123 109.5 -207 109.5c-76.667 0 -139 -27.167 -187 -81.5s-72 -128.166 -72 -221.499
c0 -114 28 -211.667 84 -293s127.333 -122 214 -122c75.333 0 135.666 31.167 180.999 93.5s68 139.166 68 230.499z" />
    <glyph glyph-name="seven" unicode="7" horiz-adv-x="990" 
d="M224 -403l584.999 1172h-639l-58 -198l-40 -7l-17 356l7 8c78.667 -1.33301 155.334 -2.33301 230.001 -3s148 -1 220 -1h56c72 0 141 0.333008 207 1s129.667 1.66699 191 3l4 -43l-104.5 -220l-103 -228.5l-98.5 -229l-90 -221l-77.5 -205.5
c-23.667 -65.333 -44.167 -125.666 -61.5 -180.999l-206 -10z" />
    <glyph glyph-name="eight" unicode="8" horiz-adv-x="1099" 
d="M391 701c-96 50 -161.499 100.002 -196.499 150.002s-52.5 108.333 -52.5 175c0 100 41.167 182.5 123.5 247.5s184.833 97.5 307.5 97.5c110.667 0 202.167 -26 274.5 -78s108.5 -119.333 108.5 -202c0 -123.333 -87.667 -236 -263 -338
c133.333 -64.667 223.833 -126.167 271.5 -184.5s71.5 -127.833 71.5 -208.5c0 -111.333 -49 -203.5 -147 -276.5s-215 -109.5 -351 -109.5c-136.667 0 -248.334 31.167 -335.001 93.5s-130 145.166 -130 248.499c0 155.333 106 283.666 318 384.999zM462.001 664.002
c-136.667 -78 -204.998 -186 -204.998 -324c0 -87.333 26.167 -156.833 78.5 -208.5s124.166 -77.5 215.499 -77.5c83.333 0 153.166 23.167 209.499 69.5s84.5 106.5 84.5 180.5c0 70.667 -25.667 131.5 -77 182.5s-153.333 110.167 -306 177.5zM619.003 791.002
c106 76.667 158.999 166.667 158.999 270c0 74 -21.333 131.167 -64 171.5s-99 60.5 -169 60.5c-70.667 0 -128.5 -18.333 -173.5 -55s-67.5 -86.667 -67.5 -150s24.333 -116 73 -158s129.334 -88.333 242.001 -139z" />
    <glyph glyph-name="nine" unicode="9" horiz-adv-x="1119" 
d="M177 -389c167.333 30 306.168 93.666 416.501 190.999s188.166 232.333 233.499 405l-2 1c-78 -88.667 -179.333 -133 -304 -133s-228.5 39.833 -311.5 119.5s-124.5 180.834 -124.5 303.501c0 128 45.333 235.333 136 322s201.667 130 333 130
c143.333 0 260.833 -52.167 352.5 -156.5s137.5 -237.833 137.5 -400.5c0 -223.333 -77.833 -413 -233.5 -569s-362.167 -250.667 -619.5 -284zM288.002 557.999c0 -118.667 27 -214 81 -286s123 -108 207 -108c83.333 0 147 26.833 191 80.5s66 128.5 66 224.5
c0 116.667 -29 214 -87 292s-127.667 117 -209 117c-72 0 -131.5 -28.833 -178.5 -86.5s-70.5 -135.5 -70.5 -233.5z" />
    <glyph glyph-name="colon" unicode=":" horiz-adv-x="524" 
d="M310 210c34.667 0 63.167 -10.833 85.5 -32.5s33.5 -50.167 33.5 -85.5s-11.167 -64.166 -33.5 -86.499s-50.833 -33.5 -85.5 -33.5c-36.667 0 -66 11.167 -88 33.5s-33 51.166 -33 86.499s11 63.833 33 85.5s51.333 32.5 88 32.5zM310 921
c34.667 0 63.167 -10.833 85.5 -32.5s33.5 -50.167 33.5 -85.5s-11.167 -64.166 -33.5 -86.499s-50.833 -33.5 -85.5 -33.5c-36.667 0 -66 11.167 -88 33.5s-33 51.166 -33 86.499s11 63.833 33 85.5s51.333 32.5 88 32.5z" />
    <glyph glyph-name="semicolon" unicode=";" horiz-adv-x="524" 
d="M141 -279c94.667 77.333 142 153 142 227c0 64.667 -34 116.667 -102 156c0 38 11.167 68.167 33.5 90.5s51.5 33.5 87.5 33.5c39.333 0 71.166 -15.167 95.499 -45.5s36.5 -68.833 36.5 -115.5c0 -72 -21.167 -140 -63.5 -204s-106.166 -126 -191.499 -186zM310 921
c34.667 0 63.167 -10.833 85.5 -32.5s33.5 -50.167 33.5 -85.5s-11.167 -64.166 -33.5 -86.499s-50.833 -33.5 -85.5 -33.5c-36.667 0 -66 11.167 -88 33.5s-33 51.166 -33 86.499s11 63.833 33 85.5s51.333 32.5 88 32.5z" />
    <glyph glyph-name="less" unicode="&#x3c;" horiz-adv-x="1130" 
d="M93 522l944 400v-127l-799 -334l799 -333v-127l-944 400v121z" />
    <glyph glyph-name="equal" unicode="=" horiz-adv-x="1130" 
d="M93 692h944v-121h-944v121zM93 352h944v-121h-944v121z" />
    <glyph glyph-name="greater" unicode="&#x3e;" horiz-adv-x="1130" 
d="M1037 401l-944 -400v127l799 333l-799 334v127l944 -400v-121z" />
    <glyph glyph-name="question" unicode="?" horiz-adv-x="890" 
d="M452 210c34.667 0 63.167 -10.667 85.5 -32s33.5 -50 33.5 -86s-11.167 -65 -33.5 -87s-50.833 -33 -85.5 -33c-36.667 0 -66 11 -88 33s-33 51 -33 87s11 64.667 33 86s51.333 32 88 32zM456 388c-39.333 35.333 -76.002 75.8311 -110.002 121.498
s-51 78.834 -51 99.501c0 18.667 4.83301 37.667 14.5 57s22.334 39 38.001 59s33.5 40.167 53.5 60.5l62 62.5l66.5 67c21.667 22.667 41 45.5 58 68.5s30.667 45.833 41 68.5s15.5 45.667 15.5 69c0 56.667 -18.833 101.667 -56.5 135s-88.167 50 -151.5 50
c-44 0 -88 -9.33301 -132 -28l-66 -229l-39 -6l-59 280c112 43.333 218.667 65 320 65c110.667 0 198.334 -24.667 263.001 -74s97 -120.333 97 -213c0 -36 -5.83301 -69.5 -17.5 -100.5s-27 -60.167 -46 -87.5s-40.167 -53.166 -63.5 -77.499s-47 -47.833 -71 -70.5
l-59.5 -57c-19 -18.667 -36 -37.167 -51 -55.5s-26.833 -37.333 -35.5 -57s-13 -39.5 -13 -59.5c0 -36.667 12.333 -76.667 37 -120z" />
    <glyph glyph-name="at" unicode="@" horiz-adv-x="1727" 
d="M1263 859c-20 -66.667 -43.3369 -165.669 -70.0039 -297.002l-63 -309c-4 -19.333 -6 -35.333 -6 -48c0 -24 5.66699 -41.167 17 -51.5s28 -15.5 50 -15.5c80 0 152.667 46.5 218 139.5s98 197.167 98 312.5c0 164.667 -53.167 297.334 -159.5 398.001
s-239.166 151 -398.499 151c-206 0 -372.5 -68.333 -499.5 -205s-190.5 -312.667 -190.5 -528c0 -197.333 60.5 -357.5 181.5 -480.5s280.5 -184.5 478.5 -184.5c230.667 0 434.334 83 611.001 249l43 -48c-201.333 -202 -436.333 -303 -705 -303
c-226.667 0 -409.667 68.667 -549 206s-209 315 -209 533c0 240.667 78.833 439.834 236.5 597.501s359.5 236.5 605.5 236.5c186.667 0 343.334 -57 470.001 -171s190 -261 190 -441c0 -143.333 -49.667 -272.333 -149 -387s-211 -172 -335 -172
c-49.333 0 -88.333 12.333 -117 37s-44 60.667 -46 108c-61.333 -49.333 -111.166 -85.5 -149.499 -108.5s-69.166 -34.5 -92.499 -34.5c-74 0 -132.833 27.5 -176.5 82.5s-65.5 124.833 -65.5 209.5c0 150 46 276.667 138 380s208 155 348 155
c52.667 0 114 -10.667 184 -32c31.333 6 64.666 15.333 99.999 28zM1077 765.998c-42 22 -83.332 33.001 -123.999 33.001c-84.667 0 -156.334 -43.833 -215.001 -131.5s-88 -184.834 -88 -291.501c0 -61.333 11.167 -112.333 33.5 -153s54.5 -61 96.5 -61
c37.333 0 101.333 31.667 192 95z" />
    <glyph glyph-name="A" unicode="A" horiz-adv-x="1381" 
d="M754 1421l443.999 -1223c16.667 -46 31.834 -77.167 45.501 -93.5s33.167 -28.5 58.5 -36.5l94 -28l2 -43c-87.333 2 -168.333 3 -243 3c-76 0 -165.667 -1 -269 -3l-4 43l95 28c13.333 4.66699 22.833 9.83398 28.5 15.501s8.5 14.5 8.5 26.5
c0 13.333 -3.5 30.833 -10.5 52.5s-16.833 50.5 -29.5 86.5l-94 268h-482l-105 -267l-33 -89c-8 -22 -12 -39.333 -12 -52c0 -11.333 3.16699 -19.833 9.5 -25.5s15.833 -10.5 28.5 -14.5l93 -27l2 -45c-94.667 2 -172 3 -232 3s-127 -1 -201 -3l-5 43l101 31
c25.333 8 44 20.333 56 37s25.333 42.667 40 78l511 1220zM434.999 607.999h412l-195 551z" />
    <glyph glyph-name="B" unicode="B" horiz-adv-x="1223" 
d="M98 1400c86 -2.66699 169.667 -4 251 -4c30.667 1.33301 80.334 3.33301 149.001 6s115 4 139 4c144 0 252.833 -27.167 326.5 -81.5s110.5 -132.5 110.5 -234.5c0 -164 -88.333 -275.667 -265 -335c103.333 -17.333 184.5 -55.666 243.5 -114.999s88.5 -135 88.5 -227
c0 -133.333 -48.333 -236.5 -145 -309.5s-230.667 -109.5 -402 -109.5c-34 0 -70.833 1 -110.5 3s-84.167 3 -133.5 3c-80.667 0 -163.334 -1 -248.001 -3l-4 43l123 37c16.667 4.66699 25.667 15 27 31c0.666992 26.667 1.16699 56.5 1.5 89.5s0.5 69.5 0.5 109.5v811
c0 34 -0.166992 64.667 -0.5 92s-0.833008 52 -1.5 74c-0.666992 17.333 -8.66699 28.666 -24 33.999l-124 39zM444 696l-0.000976562 -607c20 -7.33301 43.167 -12 69.5 -14s50.5 -3 72.5 -3c110.667 0 194.834 27.333 252.501 82s86.5 134 86.5 238
s-29.167 181.167 -87.5 231.5s-152.5 75.5 -282.5 75.5c-38 0 -75 -1 -111 -3zM443.999 776c41.333 -0.666992 83.333 -1.00098 126 -1.00098c98.667 0 173.167 23.833 223.5 71.5s75.5 116.834 75.5 207.501c0 95.333 -25.833 163.833 -77.5 205.5
s-126.167 62.5 -223.5 62.5c-17.333 0 -36.333 -0.5 -57 -1.5s-43 -2.83301 -67 -5.5v-539z" />
    <glyph glyph-name="C" unicode="C" horiz-adv-x="1334" 
d="M1178 1051l-40.002 -6l-73 263c-82.667 20.667 -157.667 31 -225 31c-163.333 0 -291.666 -57 -384.999 -171s-140 -262 -140 -444c0 -194.667 53.333 -350 160 -466s254.334 -174 443.001 -174c106 0 217.667 20.333 335 61l11 -45
c-131.333 -90.667 -280 -136 -446 -136c-215.333 0 -389 65.667 -521 197s-198 304.333 -198 519c0 228.667 72.667 409.667 218 543s335.333 200 570 200c112.667 0 228 -13.667 346 -41l7 -8z" />
    <glyph glyph-name="D" unicode="D" horiz-adv-x="1538" 
d="M350 0c-80.667 0 -163.332 -0.999023 -247.999 -2.99902l-4 43l123 37c17.333 5.33301 26.333 15.666 27 30.999c0.666992 26.667 1.16699 56.5 1.5 89.5s0.5 69.5 0.5 109.5v811c0 34 -0.166992 64.667 -0.5 92s-0.833008 52 -1.5 74
c-0.666992 17.333 -8.66699 28.666 -24 33.999l-124 39l-2 43c86 -2.66699 169.667 -4 251 -4c66.667 0 131 1.66699 193 5s125.667 5 191 5c233.333 0 408.666 -53.167 525.999 -159.5s176 -264.166 176 -473.499c0 -246.667 -65.167 -438.167 -195.5 -574.5
s-313.166 -204.5 -548.499 -204.5c-64.667 0 -122.334 1 -173.001 3s-106.667 3 -168 3zM446.002 89.001c39.333 -5.33301 77.832 -8.83398 115.499 -10.501s75.5 -2.5 113.5 -2.5c176 0 310 51.833 402 155.5s138 262.5 138 476.5c0 208 -43.667 362.167 -131 462.5
s-225.666 150.5 -414.999 150.5c-30 0 -63.167 -0.666992 -99.5 -2s-77.5 -3.66602 -123.5 -6.99902v-1223z" />
    <glyph glyph-name="E" unicode="E" horiz-adv-x="1189" 
d="M346 1396h243.002c149.333 0 307 1.33301 473 4l6 -8l-58 -309l-40 -7l-62 231h-462v-550h91c69.333 0 146.666 0.666992 231.999 2c17.333 0.666992 28.666 9.33398 33.999 26.001l35 135l54 2c-2 -93.333 -3 -162.333 -3 -207c0 -43.333 1 -111.333 3 -204l-54 -4
l-36 137c-5.33301 17.333 -15.666 26.333 -30.999 27c-86.667 1.33301 -165 2 -235 2h-90v-364c0 -74 0.666992 -147 2 -219h480l122 254l45 8l-22 -348l-7 -7c-172.667 2 -332 3 -478 3h-238c-80.667 0 -163.334 -1 -248.001 -3l-4 43l123 37
c16.667 4.66699 25.667 15 27 31c0.666992 26.667 1.16699 56.5 1.5 89.5s0.5 69.5 0.5 109.5v811c0 34 -0.166992 64.667 -0.5 92s-0.833008 52 -1.5 74c-0.666992 17.333 -8.66699 28.666 -24 33.999l-124 39l-2 43c86 -2.66699 168.667 -4 248 -4z" />
    <glyph glyph-name="F" unicode="F" horiz-adv-x="1104" 
d="M446 307c0 -78.667 0.666992 -143.332 2 -193.999c0.666992 -16 9.33398 -26.333 26.001 -31l138 -42l2 -43c-96.667 2 -184.667 3 -264 3s-162 -1 -248 -3l-4 43l123 37c17.333 5.33301 26.333 15.666 27 30.999c1.33301 54 2 120.333 2 199v811
c0 34 -0.166992 64.667 -0.5 92s-0.833008 52 -1.5 74c-0.666992 17.333 -8.66699 28.666 -24 33.999l-124 39l-2 43c86 -2.66699 168.667 -4 248 -4h243c149.333 0 307 1.33301 473 4l6 -8l-58 -309l-40 -7l-62 231h-462v-571h96c69.333 0 146.666 0.666992 231.999 2
c18 0.666992 29.333 9.33398 34 26.001l41 135l48 2c-2 -93.333 -3 -162.333 -3 -207c0 -43.333 1 -111.333 3 -204l-48 -4l-42 137c-5.33301 17.333 -15.333 26.333 -30 27c-87.333 1.33301 -166 2 -236 2h-95v-345z" />
    <glyph glyph-name="G" unicode="G" horiz-adv-x="1435" 
d="M1183 1051l-40.001 -5.99902l-69 262c-81.333 21.333 -157.666 32 -228.999 32c-166.667 0 -296.667 -56.5 -390 -169.5s-140 -268.833 -140 -467.5c0 -200.667 51 -360.167 153 -478.5s239.333 -177.5 412 -177.5c58 0 115 7.33301 171 22v267
c0 33.333 -0.166992 63.666 -0.5 90.999s-0.833008 52.333 -1.5 75c-0.666992 17.333 -8.66699 28.333 -24 33l-124 39l-2 43c86 -2 168.333 -3 247 -3c80 0 157.333 1 232 3l5 -43l-109 -32c-16 -5.33301 -24.667 -15.666 -26 -30.999
c-0.666992 -26.667 -1.16699 -53.834 -1.5 -81.501s-0.5 -57.5 -0.5 -89.5v-320l-6 -7c-136 -32.667 -261 -49 -375 -49c-234 0 -420.167 62 -558.5 186s-207.5 297 -207.5 519c0 236 71.5 420.833 214.5 554.5s338.833 200.5 587.5 200.5c107.333 0 220 -13.667 338 -41
l6 -8z" />
    <glyph glyph-name="H" unicode="H" horiz-adv-x="1620" 
d="M446 692l0.000976562 -385c0 -78.667 0.666992 -144.667 2 -198c0.666992 -18 9.33398 -29.333 26.001 -34l111 -35l3 -43c-79.333 2 -158.666 3 -237.999 3s-162 -1 -248 -3l-4 43l123 37c17.333 5.33301 26.333 15.666 27 30.999c1.33301 54 2 120.333 2 199v811
c0 66.667 -0.666992 122 -2 166c-0.666992 17.333 -8.66699 28.666 -24 33.999l-124 39l-2 43c86 -2.66699 168.667 -4 248 -4c80 0 159 1.33301 237 4l5 -43l-114 -35c-16.667 -4 -25.334 -14.333 -26.001 -31c-1.33301 -48 -2 -104.333 -2 -169v-339h728v339
c0 64.667 -0.666992 121 -2 169c-0.666992 16.667 -9.33398 27 -26.001 31l-111 35l-2 43c81.333 -2.66699 161.666 -4 240.999 -4s160.666 1.33301 243.999 4l4 -43l-126 -39c-15.333 -5.33301 -23.333 -16.666 -24 -33.999c-1.33301 -44 -2 -99.333 -2 -166v-811
c0 -78.667 0.666992 -145 2 -199c0.666992 -15.333 9.66699 -25.666 27 -30.999l121 -37l2 -43c-88 2 -172 3 -252 3c-79.333 0 -157 -1 -233 -3l-4 43l113 35c16.667 4.66699 25.334 16 26.001 34c1.33301 53.333 2 119.333 2 198v385h-728z" />
    <glyph glyph-name="I" unicode="I" horiz-adv-x="696" 
d="M446 307c0 -40 0.166992 -76.3301 0.5 -108.997s0.833008 -62.334 1.5 -89.001c0.666992 -16.667 12.334 -28 35.001 -34l113 -35l2 -43c-86 2 -168.667 3 -248 3c-80.667 0 -163.334 -1 -248.001 -3l-4 43l123 37c16.667 4.66699 25.667 15 27 31
c0.666992 26.667 1.16699 56.5 1.5 89.5s0.5 69.5 0.5 109.5v811c0 34 -0.166992 64.667 -0.5 92s-0.833008 52 -1.5 74c-0.666992 17.333 -8.66699 28.666 -24 33.999l-124 39l-2 43c86 -2.66699 168.667 -4 248 -4c80 0 162.667 1.33301 248 4l4 -43l-124 -37
c-16 -4 -24.667 -14.333 -26 -31c-0.666992 -23.333 -1.16699 -48.833 -1.5 -76.5s-0.5 -57.834 -0.5 -90.501v-815z" />
    <glyph glyph-name="J" unicode="J" horiz-adv-x="640" 
d="M83 1400c86 -2.66699 168.668 -3.99609 248.001 -3.99609s161.666 1.33301 246.999 4l5 -43l-124 -37c-16.667 -4 -25.667 -14.333 -27 -31c-0.666992 -23.333 -1.16699 -48.833 -1.5 -76.5s-0.5 -57.834 -0.5 -90.501v-906c0 -65.333 -2.5 -124.833 -7.5 -178.5
s-13.833 -101.5 -26.5 -143.5s-30.5 -79.5 -53.5 -112.5s-52.167 -62.333 -87.5 -88s-78 -48.167 -128 -67.5s-109.333 -37 -178 -53l-15 50c69.333 29.333 123.833 61.666 163.5 96.999s69.667 75.666 90 120.999s33.333 96.333 39 153s8.5 120.667 8.5 192v932
c0 34 -0.166992 64.667 -0.5 92s-0.833008 52 -1.5 74c-0.666992 17.333 -8.66699 28.666 -24 33.999l-124 39z" />
    <glyph glyph-name="K" unicode="K" horiz-adv-x="1350" 
d="M446 1122l-0.000976562 -814.998c0 -40 0.166992 -76.333 0.5 -109s0.833008 -62.334 1.5 -89.001c0.666992 -17.333 9.33398 -28.666 26.001 -33.999l111 -35l3 -43c-79.333 2 -158.666 3 -237.999 3c-80.667 0 -163.334 -1 -248.001 -3l-4 43l123 37
c17.333 5.33301 26.333 15.666 27 30.999c0.666992 26.667 1.16699 56.5 1.5 89.5s0.5 69.5 0.5 109.5v811c0 34 -0.166992 64.667 -0.5 92s-0.833008 52 -1.5 74c-0.666992 17.333 -8.66699 28.666 -24 33.999l-124 39l-2 43c86 -2.66699 168.667 -4 248 -4
s158.333 1.33301 237 4l5 -43l-114 -35c-16 -4 -24.667 -14.333 -26 -31c-0.666992 -24 -1.16699 -50 -1.5 -78s-0.5 -58.333 -0.5 -91zM471.999 708.002l402.999 449.002c31.333 35.333 56.666 65.166 75.999 89.499s29 43.833 29 58.5c0 13.333 -9 22.333 -27 27l-82 22
l-2 46c66 -2.66699 139.667 -4 221 -4c78 0 151.333 1.33301 220 4l4 -43l-101 -32c-30.667 -10 -57.167 -25.333 -79.5 -46s-46.166 -45 -71.499 -73l-400 -440l455 -600c19.333 -25.333 38.333 -45.833 57 -61.5s43 -27.834 73 -36.501l91 -28l2 -43c-56 2 -127 3 -213 3
c-22.667 0 -45.667 -0.166992 -69 -0.5s-46.666 -0.833008 -69.999 -1.5c-23.333 48 -85 138.333 -185 271z" />
    <glyph glyph-name="L" unicode="L" horiz-adv-x="1138" 
d="M446 1122l0.00195312 -812.998c0 -74 0.666992 -147 2 -219h487l128 265l45 7l-22 -358l-6 -7c-172.667 2 -332.334 3 -479.001 3h-251c-80.667 0 -163.334 -1 -248.001 -3l-4 43l123 37c16.667 4.66699 25.667 15 27 31c0.666992 26.667 1.16699 56.5 1.5 89.5
s0.5 69.5 0.5 109.5v811c0 34 -0.166992 64.667 -0.5 92s-0.833008 52 -1.5 74c-0.666992 17.333 -8.66699 28.666 -24 33.999l-124 39l-2 43c86 -2.66699 168.667 -4 248 -4c80 0 162.667 1.33301 248 4l4 -43l-124 -37c-16 -4 -24.667 -14.333 -26 -31
c-0.666992 -23.333 -1.16699 -57.333 -1.5 -102s-0.5 -66.334 -0.5 -65.001z" />
    <glyph glyph-name="M" unicode="M" horiz-adv-x="1854" 
d="M1383 1400c62.667 -2.66699 119.333 -4 170 -4c49.333 0 115.666 1.33301 198.999 4l4 -43l-126 -39c-15.333 -5.33301 -23.333 -16.666 -24 -33.999c-1.33301 -44 -2 -99.333 -2 -166v-811c0 -78.667 0.666992 -145 2 -199c0.666992 -15.333 10 -25.666 28 -30.999
l120 -37l2 -43c-88 2 -172 3 -252 3c-78.667 0 -156.334 -1 -233.001 -3l-4 43l115 35c16 4.66699 24.333 16.334 25 35.001c1.33301 52.667 2 118.334 2 197.001v866l-496 -1173l-73 -8l-499 1181v-866c0 -78.667 0.666992 -144.334 2 -197.001
c0.666992 -18.667 9.33398 -30.334 26.001 -35.001l112 -35l2 -43c-79.333 2 -145.666 3 -198.999 3c-52 0 -121 -1 -207 -3l-4 43l123 37c17.333 5.33301 26.333 15.666 27 30.999c1.33301 54 2 120.333 2 199v811c0 66.667 -0.666992 122 -2 166
c-0.666992 17.333 -8.66699 28.666 -24 33.999l-124 39l-2 43c86 -2.66699 154 -4 204 -4c57.333 0 117 1.33301 179 4l464 -1097z" />
    <glyph glyph-name="N" unicode="N" horiz-adv-x="1534" 
d="M341 1115l0.000976562 -807.999c0 -78.667 0.666992 -144 2 -196c0.666992 -18.667 9 -30 25 -34l119 -35l2 -45c-83.333 2 -151.666 3 -204.999 3c-52 0 -121 -1 -207 -3l-4 43l123 37c17.333 5.33301 26.333 15.666 27 30.999c1.33301 54 2 120.333 2 199v811
c0 66.667 -0.666992 122 -2 166c-0.666992 17.333 -8.66699 28.666 -24 33.999l-124 39l-2 43c86 -2.66699 154 -4 204 -4c30 0 60.333 1.33301 91 4l840 -1049v771c0 64.667 -0.666992 120.334 -2 167.001c-0.666992 15.333 -9.33398 25.666 -26.001 30.999l-118 34l-2 46
c85.333 -2.66699 154.333 -4 207 -4c53.333 0 121.666 1.33301 204.999 4l4 -43l-126 -39c-15.333 -5.33301 -23.333 -16.666 -24 -33.999c-1.33301 -44 -2 -99.333 -2 -166v-1118l-84 -8z" />
    <glyph glyph-name="O" unicode="O" horiz-adv-x="1647" 
d="M319 717c0 -217.333 44.001 -383.833 132.001 -499.5s217 -173.5 387 -173.5c167.333 0 290.833 52.5 370.5 157.5s119.5 269.833 119.5 494.5c0 210.667 -42.333 372.667 -127 486s-215.334 170 -392.001 170c-171.333 0 -295.833 -52.5 -373.5 -157.5
s-116.5 -264.167 -116.5 -477.5zM1548 730c0 -230.667 -65.501 -416.167 -196.501 -556.5s-314.167 -210.5 -549.5 -210.5c-223.333 0 -396.166 64.833 -518.499 194.5s-183.5 305.167 -183.5 526.5c0 230.667 65.833 413.167 197.5 547.5s314.167 201.5 547.5 201.5
c224 0 397.167 -62.833 519.5 -188.5s183.5 -297.167 183.5 -514.5z" />
    <glyph glyph-name="P" unicode="P" horiz-adv-x="1191" 
d="M446 676c46.667 -8 92.666 -12 137.999 -12c106.667 0 187.834 27.5 243.501 82.5s83.5 139.167 83.5 252.5c0 108.667 -26.5 189.667 -79.5 243s-136.5 80 -250.5 80c-44.667 0 -89.667 -2.66699 -135 -8v-638zM445.999 307c0 -40 0.166992 -76 0.5 -108
s0.833008 -60.667 1.5 -86c0.666992 -15.333 9.33398 -25.666 26.001 -30.999l138 -42l2 -43c-96.667 2 -184.667 3 -264 3c-80.667 0 -163.334 -1 -248.001 -3l-4 43l123 37c17.333 5.33301 26.333 15.666 27 30.999c0.666992 26.667 1.16699 56.5 1.5 89.5
s0.5 69.5 0.5 109.5v811c0 34 -0.166992 64.667 -0.5 92s-0.833008 52 -1.5 74c-0.666992 17.333 -8.66699 28.666 -24 33.999l-124 39l-2 43c86 -2.66699 169.667 -4 251 -4c54.667 0 107.5 1.33301 158.5 4s97.5 4 139.5 4c156.667 0 275.167 -30.833 355.5 -92.5
s120.5 -153.5 120.5 -275.5c0 -143.333 -46.333 -254.666 -139 -333.999s-222.667 -119 -390 -119c-46 0 -95.333 3 -148 9v-285z" />
    <glyph glyph-name="Q" unicode="Q" horiz-adv-x="1647" 
d="M1548 730c0 -217.333 -56.666 -392.832 -169.999 -526.499s-262 -210.834 -446 -231.501c54.667 -154.667 194 -232 418 -232c91.333 0 172.666 14 243.999 42l11 -45c-138 -110 -246.667 -165 -326 -165c-252 0 -413 130.333 -483 391
c-220 0.666992 -391 65.5 -513 194.5s-183 304.5 -183 526.5c0 230 65.833 412.333 197.5 547s314.167 202 547.5 202c224 0 397.167 -62.667 519.5 -188s183.5 -297 183.5 -515zM319.001 717.001c0 -217.333 44.001 -383.833 132.001 -499.5s217 -173.5 387 -173.5
c167.333 0 290.833 52.5 370.5 157.5s119.5 269.833 119.5 494.5c0 210.667 -42.333 372.667 -127 486s-215.334 170 -392.001 170c-171.333 0 -295.833 -52.5 -373.5 -157.5s-116.5 -264.167 -116.5 -477.5z" />
    <glyph glyph-name="R" unicode="R" horiz-adv-x="1293" 
d="M446 307c0 -40 0.165039 -76 0.498047 -108s0.833008 -61 1.5 -87c0.666992 -20.667 9.33398 -33.667 26.001 -39l111 -33l3 -43c-79.333 2 -158.666 3 -237.999 3c-80.667 0 -163.334 -1 -248.001 -3l-4 43l123 37c16.667 4.66699 25.667 15 27 31
c0.666992 26.667 1.16699 56.5 1.5 89.5s0.5 69.5 0.5 109.5v811c0 34 -0.166992 64.667 -0.5 92s-0.833008 52 -1.5 74c-0.666992 17.333 -8.66699 28.666 -24 33.999l-124 39l-2 43c86 -2.66699 169.667 -4 251 -4c16 0 36.333 0.5 61 1.5l90 3.5
c36 1.33301 66 2.33301 90 3s43 1 57 1c152 0 266 -28.667 342 -86s114 -141 114 -251c0 -99.333 -26 -179.833 -78 -241.5s-131.333 -109.167 -238 -142.5c42 -64 80.667 -125.833 116 -185.5l98.5 -164l83.5 -131.5c25.333 -38 49 -68 71 -90
c11.333 -11.333 22.666 -21.166 33.999 -29.499s23.166 -15.166 35.499 -20.499s25.333 -10 39 -14s28.834 -8 45.501 -12l3 -44c-48 -6 -88.333 -9 -121 -9c-27.333 0 -51.333 0.666992 -72 2s-39 4 -55 8s-30.5 9.16699 -43.5 15.5s-25.833 14.5 -38.5 24.5
c-27.333 20.667 -54.166 50.5 -80.499 89.5s-53.666 83.167 -81.999 132.5l-88.5 157.5c-30.667 55.667 -63 110.167 -97 163.5c-10 16 -18.5 28.667 -25.5 38s-14.667 16.666 -23 21.999s-18 9 -29 11s-25.167 3.33301 -42.5 4l-69 2v-347zM445.998 729
c40.667 -2 78.332 -3 112.999 -3c115.333 0 199.833 24.5 253.5 73.5s80.5 125.833 80.5 230.5c0 101.333 -25.667 175.333 -77 222s-131.666 70 -240.999 70c-18.667 0 -38.667 -0.666992 -60 -2s-44.333 -3.33301 -69 -6v-585z" />
    <glyph glyph-name="S" unicode="S" horiz-adv-x="1044" 
d="M760 1309c-70 23.333 -134.331 35.002 -192.998 35.002c-88 0 -158.167 -21.333 -210.5 -64s-78.5 -102 -78.5 -178c0 -43.333 9.16699 -81.333 27.5 -114s43 -61.334 74 -86.001s66.167 -46.667 105.5 -66s80 -38.333 122 -57c46 -20 90.667 -41.167 134 -63.5
s82.5 -48.5 117.5 -78.5s63 -66 84 -108s31.5 -91 31.5 -147c0 -132.667 -46.5 -234 -139.5 -304s-221.833 -105 -386.5 -105c-106 0 -223.333 18 -352 54l-6 8l49 340l45 7l70 -284c70.667 -28 143 -42 217 -42c99.333 0 176.833 22 232.5 66s83.5 106.667 83.5 188
c0 42.667 -9 80.167 -27 112.5s-42.167 60.166 -72.5 83.499s-64.833 44.5 -103.5 63.5l-120 56.5c-46.667 20 -92 41.667 -136 65s-83.833 50.5 -119.5 81.5s-64.167 69 -85.5 114s-32 97.5 -32 157.5c0 120.667 45.167 214 135.5 280s210.166 99 359.499 99
c105.333 0 215.666 -12.333 330.999 -37l7 -7l-59 -312l-40 -7z" />
    <glyph glyph-name="T" unicode="T" horiz-adv-x="1256" 
d="M630 0c-82 0 -172.67 -1 -272.003 -3l-4 43l148 44c16.667 4.66699 25.334 15 26.001 31c1.33301 50.667 2 115.334 2 194.001v998h-353l-89 -266l-40 -7l-26 358l7 8c164 -2.66699 321 -4 471 -4h267c149.333 0 307 1.33301 473 4l6 -8l-63 -351l-40 -7l-64 273h-353
v-998c0 -78.667 0.666992 -143.334 2 -194.001c0.666992 -16 9.33398 -26.333 26.001 -31l148 -44l2 -43c-103.333 2 -194.666 3 -273.999 3z" />
    <glyph glyph-name="U" unicode="U" horiz-adv-x="1523" 
d="M63 1400c86 -2.66699 168.664 -3.99707 247.997 -3.99707c80 0 162.667 1.33301 248 4l4 -43l-124 -37c-16 -4 -24.667 -14.333 -26 -31c-0.666992 -23.333 -1.16699 -48.833 -1.5 -76.5s-0.5 -57.834 -0.5 -90.501v-547c0 -190.667 30.333 -322.834 91 -396.501
s158.334 -110.5 293.001 -110.5c136.667 0 235.667 38 297 114s92 203 92 381v559c0 32.667 -0.166992 62.834 -0.5 90.501s-1.16602 53.167 -2.49902 76.5c-0.666992 15.333 -9.33398 25.666 -26.001 30.999l-117 34l-2 46c84.667 -2.66699 157.334 -4 218.001 -4
c58 0 128.667 1.33301 212 4l4 -43l-126 -39c-15.333 -5.33301 -23.333 -16.666 -24 -33.999c-0.666992 -22 -1.16699 -46.667 -1.5 -74s-0.5 -58 -0.5 -92v-513c0 -218.667 -44.5 -380.334 -133.5 -485.001s-229.167 -157 -420.5 -157
c-187.333 0 -325.666 47.167 -414.999 141.5s-134 240.833 -134 439.5v574c0 34 -0.166992 64.667 -0.5 92s-0.833008 52 -1.5 74c-0.666992 17.333 -8.66699 28.666 -24 33.999l-124 39z" />
    <glyph glyph-name="V" unicode="V" horiz-adv-x="1374" 
d="M627 -8l-446 1206c-16 44 -30.833 74.833 -44.5 92.5s-34.167 30.5 -61.5 38.5l-91 28l-2 43c66 -2.66699 143.333 -4 232 -4c90 0 183 1.33301 279 4l4 -43l-94 -27c-13.333 -3.33301 -23 -8.16602 -29 -14.499s-9 -15.5 -9 -27.5c0 -13.333 3.5 -31.166 10.5 -53.499
s16.833 -51.166 29.5 -86.499l323 -900l351 899l33 88.5c8 22.333 12 40.166 12 53.499c0 12 -3.16699 20.833 -9.5 26.5s-15.833 10.167 -28.5 13.5l-93 25l-2 46c72.667 -2.66699 146 -4 220 -4s145 1.33301 213 4l4 -43l-101 -32
c-23.333 -6.66699 -41 -17.834 -53 -33.501s-28 -46.834 -48 -93.501l-499 -1198z" />
    <glyph glyph-name="W" unicode="W" horiz-adv-x="2088" 
d="M1400 -8l-350.997 1065l-367 -1057l-101 -8l-400 1228c-10.667 31.333 -22.834 55.5 -36.501 72.5s-32.834 29.167 -57.501 36.5l-91 28l-2 43c65.333 -2.66699 142.666 -4 231.999 -4c80.667 0 172 1.33301 274 4l4 -43l-94 -27c-14 -3.33301 -24 -8.33301 -30 -15
s-9 -16.334 -9 -29.001c0 -13.333 3.16699 -30.833 9.5 -52.5l25.5 -85.5l271 -859l371 1109l90 7l361 -1126l282 868l28 91c6.66699 22.667 10 40 10 52s-3 20.667 -9 26s-15.667 9.66602 -29 12.999l-94 25l-2 46c72 -2.66699 145 -4 219 -4c72 0 142 1.33301 210 4l4 -43
l-101 -32c-20 -6 -35.833 -15.333 -47.5 -28s-23.167 -34.667 -34.5 -66l-434 -1231z" />
    <glyph glyph-name="X" unicode="X" horiz-adv-x="1346" 
d="M19 1400c73.333 -2.66699 160.335 -4 261.002 -4c87.333 0 178.666 1.33301 273.999 4l4 -43l-90 -25c-14 -3.33301 -24 -8.33301 -30 -15s-9 -14.667 -9 -24c0 -16.667 6.33301 -35.667 19 -57s26.667 -43 42 -65l217 -325l182 289l48 75.5c22 35 33 61.5 33 79.5
c0 20 -13.333 33.333 -40 40l-89 24l-2 46c72.667 -2.66699 148.667 -4 228 -4c78.667 0 152 1.33301 220 4l4 -43l-101 -32c-24 -7.33301 -44.5 -19.333 -61.5 -36s-38.167 -44.334 -63.5 -83.001l-299 -447l389 -578c30 -45.333 52.167 -74 66.5 -86
s32.166 -21.333 53.499 -28l92 -27l2 -43c-72 2 -155 3 -249 3c-87.333 0 -183 -1 -287 -3l-4 43l90 24c14 3.33301 24 8.33301 30 15s9 15 9 25c0 16 -6.33301 34.667 -19 56s-26.667 43.333 -42 66l-271 403l-231 -368l-53.5 -87c-16.333 -27.333 -24.5 -50 -24.5 -68
c0 -10 2.83301 -18.333 8.5 -25s15.5 -11.667 29.5 -15l89 -24l2 -45c-72.667 2 -149 3 -229 3c-71.333 0 -144.333 -1 -219 -3l-5 43l101 31c25.333 8 45.833 20 61.5 36s34.5 39.667 56.5 71l357 536l-345 514c-21.333 32.667 -38.833 55.834 -52.5 69.501
s-33.5 24.167 -59.5 31.5l-91 28z" />
    <glyph glyph-name="Y" unicode="Y" horiz-adv-x="1215" 
d="M668 712l231 436.998l42 82c11.333 22.667 17 41.334 17 56.001c0 20.667 -14.667 35 -44 43l-90 24l-2 46c72 -2.66699 145.667 -4 221 -4c72.667 0 143.334 1.33301 212.001 4l4 -43l-101 -32c-24 -7.33301 -42.5 -19 -55.5 -35s-26.167 -35.667 -39.5 -59l-346 -617
v-304c0 -40 0.166992 -76.333 0.5 -109s0.833008 -62.334 1.5 -89.001c0.666992 -16.667 12.334 -28 35.001 -34l124 -38l2 -43c-93.333 2 -179.333 3 -258 3c-80.667 0 -167 -1 -259 -3l-4 43l134 40c16.667 4.66699 25.667 15 27 31
c0.666992 26.667 1.16699 56.5 1.5 89.5s0.5 69.5 0.5 109.5v283l-352 610c-24.667 40.667 -44.834 70 -60.501 88s-36.5 30.667 -62.5 38l-91 28l-2 43c60.667 -2.66699 142.667 -4 246 -4c90 0 183 1.33301 279 4l4 -43l-94 -26c-14 -3.33301 -24 -8.16602 -30 -14.499
s-9 -14.166 -9 -23.499c0 -14 5.16699 -31.167 15.5 -51.5s23.166 -43.833 38.499 -70.5z" />
    <glyph glyph-name="Z" unicode="Z" horiz-adv-x="1182" 
d="M72 -3l-4.00098 43l771 1267h-590l-74 -240l-40 -7l-52 332l7 8c166 -2.66699 323.667 -4 473 -4h236c94.667 0 190 1.33301 286 4l4 -43l-769 -1267h609l134 270l45 7l-27 -363l-6 -7c-187.333 2 -354 3 -500 3h-241c-93.333 0 -180.666 -1 -261.999 -3z" />
    <glyph glyph-name="bracketleft" unicode="[" horiz-adv-x="707" 
d="M368 -256l247 -57l2 -43h-397v1905h395l2 -43l-249 -57v-1705z" />
    <glyph glyph-name="backslash" unicode="\" horiz-adv-x="825" 
d="M595 -226l-505 1652h120l505 -1652h-120z" />
    <glyph glyph-name="bracketright" unicode="]" horiz-adv-x="707" 
d="M339 1449l-247 57l-2 43h397v-1905h-395l-2 43l249 57v1705z" />
    <glyph glyph-name="asciicircum" unicode="^" horiz-adv-x="1130" 
d="M626 1396l390 -814h-129l-324 679l-323 -679h-125l390 814h121z" />
    <glyph glyph-name="underscore" unicode="_" horiz-adv-x="1024" 
d="M1024 -268h-1024v90h1024v-90z" />
    <glyph glyph-name="grave" unicode="`" horiz-adv-x="840" 
d="M478 1044h-69l-237 373h200zM0 927z" />
    <glyph glyph-name="a" unicode="a" horiz-adv-x="983" 
d="M617 453c-146 0 -245.667 -14.334 -299 -43.001s-80 -77 -80 -145c0 -63.333 17.667 -108.166 53 -134.499s83.333 -39.5 144 -39.5c68.667 0 128.667 11.667 180 35zM132 864.999c130 56.667 245.001 84.998 345.001 84.998c102 0 181.5 -26.667 238.5 -80
s85.167 -130.333 84.5 -231l-5 -416c-0.666992 -34 0.166016 -61.333 2.49902 -82s8.33301 -36.5 18 -47.5s24.167 -18.667 43.5 -23s45.333 -6.83301 78 -7.5l5 -39c-28.667 -11.333 -63.667 -22.666 -105 -33.999s-69.333 -17 -84 -17c-64.667 0 -109 33.333 -133 100
c-93.333 -67.333 -181.333 -101 -264 -101c-92.667 0 -167.167 22.833 -223.5 68.5s-84.5 110.167 -84.5 193.5c0 102.667 45.833 178.334 137.5 227.001s235.5 73 431.5 73l1 78c0.666992 74.667 -18.333 130 -57 166s-98 54 -178 54c-60.667 0 -136.667 -11.333 -228 -34z
" />
    <glyph glyph-name="b" unicode="b" horiz-adv-x="1141" 
d="M360 85c54 -17.333 108.667 -25.999 164 -25.999c112 0 196.167 34.333 252.5 103s84.5 167 84.5 295c0 117.333 -26 208.666 -78 273.999s-129 98 -231 98c-65.333 0 -129.333 -14.667 -192 -44v-700zM366 1499c-4 -100 -5.99805 -250.333 -5.99805 -451v-203
c107.333 70 205.666 105 294.999 105c125.333 0 224.333 -42 297 -126s109 -193.667 109 -329c0 -164.667 -46.833 -292.834 -140.5 -384.501s-223.5 -137.5 -389.5 -137.5c-110.667 0 -230 19 -358 57c1.33301 84.667 2 193.667 2 327v593c0 147.333 -1.33301 285 -4 413
l-135 40l-5 33c109.333 20.667 217.666 44.334 324.999 71.001z" />
    <glyph glyph-name="c" unicode="c" horiz-adv-x="945" 
d="M880 71c-41.333 -28 -92.4971 -51.501 -153.497 -70.501s-121.5 -28.5 -181.5 -28.5c-144 0 -258 42.167 -342 126.5s-126 196.833 -126 337.5c0 152.667 47.667 276.5 143 371.5s218.666 142.5 369.999 142.5c98 0 193 -20 285 -60
c-22 -89.333 -41.667 -180.666 -59 -273.999l-39 -6l-81 240c-30.667 10.667 -65.334 16 -104.001 16c-99.333 0 -177 -34.667 -233 -104s-84 -161 -84 -275c0 -134 31.667 -233 95 -297s163.666 -96 300.999 -96c63.333 0 131 6.33301 203 19z" />
    <glyph glyph-name="d" unicode="d" horiz-adv-x="1162" 
d="M777 840c-44.667 14 -94.666 21 -149.999 21c-114.667 0 -202 -32.5 -262 -97.5s-90 -163.5 -90 -295.5c0 -114 26.667 -205.167 80 -273.5s128.666 -102.5 225.999 -102.5c62.667 0 128 17.333 196 52v696zM633.001 1436c118.667 22.667 227.333 46.333 326 71l9 -8
c-4 -142.667 -6 -296 -6 -460v-544c0 -92 0.333008 -183 1 -273c0 -34 1.16699 -61.333 3.5 -82s8.16602 -36.5 17.499 -47.5s23.166 -18.5 41.499 -22.5s44.166 -6.33301 77.499 -7l5 -39c-29.333 -11.333 -64.5 -22.666 -105.5 -33.999s-68.833 -17 -83.5 -17
c-67.333 0 -112.666 38 -135.999 114c-103.333 -76.667 -203.666 -115 -300.999 -115c-123.333 0 -221.833 43.833 -295.5 131.5s-110.5 195.5 -110.5 323.5c0 165.333 49 293.333 147 384s235 136 411 136c42.667 0 90.334 -4.66699 143.001 -14
c0 147.333 -1.33301 290.666 -4 429.999l-135 40z" />
    <glyph glyph-name="e" unicode="e" horiz-adv-x="981" 
d="M902 71c-56.667 -35.333 -114.998 -60.668 -174.998 -76.001s-115.667 -23 -167 -23c-146.667 0 -263.667 41.833 -351 125.5s-131 199.834 -131 348.501c0 148 41.833 269 125.5 363s195.5 141 335.5 141c117.333 0 208.666 -35.167 273.999 -105.5s98 -167.5 98 -291.5
c0 -18.667 -1 -37.667 -3 -57h-634c0 -143.333 33.667 -245.833 101 -307.5s172.666 -92.5 315.999 -92.5c64 0 132.333 6 205 18zM712.002 578.998v29.998c0 94.667 -15.167 162.334 -45.5 203.001s-75.5 61 -135.5 61c-79.333 0 -140 -28.667 -182 -86
s-65.667 -126.666 -71 -207.999h434z" />
    <glyph glyph-name="f" unicode="f" horiz-adv-x="634" 
d="M385 818l-0.000976562 -542.999c0 -62.667 0.666992 -117.667 2 -165c1.33301 -18 10 -29.333 26 -34l127 -38l3 -41c-100.667 2 -183.334 3 -248.001 3c-66 0 -143.667 -1 -233 -3l-5 41l112 32c18.667 6 28.334 17 29.001 33c1.33301 41.333 2 85 2 131v589l-136 34
l-7 42l144 12v4c0 188 40.833 333.667 122.5 437s191.167 155 328.5 155c67.333 0 132.333 -8.33301 195 -25c-22.667 -81.333 -42 -165 -58 -251l-42 -8l-65 200c-15.333 2 -34.666 3 -57.999 3c-76.667 0 -135.667 -34.333 -177 -103s-62 -194.334 -62 -377.001v-33h249
v-95h-249z" />
    <glyph glyph-name="g" unicode="g" horiz-adv-x="1040" 
d="M287 621c0 -86.667 17.5 -153.666 52.5 -200.999s85.833 -71 152.5 -71c64 0 112.167 22.167 144.5 66.5s48.5 109.166 48.5 194.499c0 82 -17.167 146.667 -51.5 194s-85.5 71 -153.5 71c-64 0 -112.167 -21.667 -144.5 -65s-48.5 -106.333 -48.5 -189zM274 -39.999
c-45.333 -68 -67.998 -130.666 -67.998 -187.999c0 -58.667 23.667 -104.334 71 -137.001s111.666 -49 192.999 -49c96.667 0 181.334 21.5 254.001 64.5s109 103.167 109 180.5c0 42 -17.833 74.5 -53.5 97.5s-102.834 34.5 -201.501 34.5c-35.333 0 -73.833 -1 -115.5 -3
s-81.834 -3 -120.501 -3c-21.333 0 -44 1 -68 3zM796.002 824.002c50 -55.333 74.999 -121.335 74.999 -198.002c0 -107.333 -37.333 -192.833 -112 -256.5s-168.334 -95.5 -281.001 -95.5c-64 0 -121.333 10 -172 30c-36 -58 -54 -103.667 -54 -137
c0 -18 9.16699 -30.167 27.5 -36.5s52.166 -9.5 101.499 -9.5c37.333 0 81 1 131 3s96.667 3 140 3c106 0 189.833 -20.167 251.5 -60.5s92.5 -100.166 92.5 -179.499c0 -120 -56.5 -214.667 -169.5 -284s-241.5 -104 -385.5 -104c-118 0 -212.167 19.833 -282.5 59.5
s-105.5 91.167 -105.5 154.5c0 76.667 54.333 162.667 163 258c-68.667 26 -103 60.667 -103 104c0 60.667 47.667 145.334 143 254.001c-104 63.333 -156 155 -156 275c0 104 36.833 187.667 110.5 251s168.834 95 285.501 95c30.667 0 72.334 -4 125.001 -12
c50 -9.33301 89 -14 117 -14c100.667 0 193.334 1 278.001 3l5 -41z" />
    <glyph glyph-name="h" unicode="h" horiz-adv-x="1187" 
d="M51 1436c108.667 21.333 217.33 45.0029 325.997 71.0029l9 -8c-3.33301 -62.667 -5.16602 -152 -5.49902 -268s-0.5 -247 -0.5 -393c116 74.667 224 112 324 112c92.667 0 166.334 -25.833 221.001 -77.5s82 -127.5 82 -227.5v-353
c0 -76.667 0.666992 -138.334 2 -185.001c0.666992 -17.333 9 -29 25 -35l112 -34l2 -41c-88 2 -164.667 3 -230 3s-138 -1 -218 -3l-4 41l99 29c16 5.33301 24.667 15.666 26 30.999c0.666992 9.33301 1 30.333 1 63v436c0 82 -19.667 140.833 -59 176.5
s-97.333 53.5 -174 53.5c-66 0 -135.667 -16 -209 -48v-449c0 -82.667 0.666992 -158.334 2 -227.001c0.666992 -18.667 9 -30.334 25 -35.001l104 -30l2 -41c-84 2 -158.667 3 -224 3s-142.666 -1 -231.999 -3l-4 41l113 33c17.333 5.33301 26.333 16 27 32
c1.33301 64 2 145.667 2 245v418c0 136 -0.166992 256.333 -0.5 361s-1.5 183.334 -3.5 236.001l-135 40z" />
    <glyph glyph-name="i" unicode="i" horiz-adv-x="580" 
d="M396 1304c0 -35.333 -11.001 -64.167 -33.001 -86.5s-50.333 -33.5 -85 -33.5c-33.333 0 -60.5 10.333 -81.5 31s-31.5 48 -31.5 82c0 36 11 64.5 33 85.5s51 31.5 87 31.5c32.667 0 59.334 -9.5 80.001 -28.5s31 -46.167 31 -81.5zM57.999 879.999
c116.667 22 224.669 45.334 324.002 70.001l9 -7c-4 -86.667 -6 -182 -6 -286v-384c0 -80 0.666992 -135.333 2 -166c1.33301 -18 9.66602 -29.667 24.999 -35l116 -34l2 -41c-92 2 -170.667 3 -236 3s-143 -1 -233 -3l-4 41l116 34
c15.333 5.33301 23.666 15.666 24.999 30.999c1.33301 26 2 69.667 2 131v334c0 87.333 -1.33301 168 -4 242l-133 36z" />
    <glyph glyph-name="j" unicode="j" horiz-adv-x="543" 
d="M44 880c114.667 22 221.666 45.332 320.999 69.999l9 -7c-4 -86.667 -6 -182 -6 -286v-568c0 -131.333 -25.167 -234.833 -75.5 -310.5s-138.833 -169.5 -265.5 -281.5l-46 41c98.667 130 157.334 226 176.001 288s28 141 28 237v505
c0 80.667 -1.33301 161.334 -4 242.001l-132 36zM373.999 1304c0 -35.333 -10.998 -64.167 -32.998 -86.5s-50.333 -33.5 -85 -33.5c-33.333 0 -60.5 10.333 -81.5 31s-31.5 48 -31.5 82c0 36 11.167 64.5 33.5 85.5s51.166 31.5 86.499 31.5
c33.333 0 60.166 -9.5 80.499 -28.5s30.5 -46.167 30.5 -81.5z" />
    <glyph glyph-name="k" unicode="k" horiz-adv-x="1095" 
d="M1105 -3c-89.333 2 -155.67 2.99902 -199.003 2.99902c-28.667 0 -66.667 -0.666992 -114 -2c-24.667 40.667 -54 84.334 -88 131.001c-92 128.667 -191 254.334 -297 377.001l361 350l-111 31l-4 40c86 -2 149.333 -3 190 -3c36.667 0 106.334 1 209.001 3l4 -41
c-67.333 -17.333 -115.666 -32.5 -144.999 -45.5s-63.666 -37.833 -102.999 -74.5l-214 -198l322 -402c36 -44.667 64.167 -74.334 84.5 -89.001s54.5 -27.667 102.5 -39zM55.9961 1403l-5 33c118 22.667 226.667 46.334 326 71.001l9 -8c-4 -97.333 -6 -248.333 -6 -453
v-654c0 -98.667 0.666992 -195.334 2 -290.001c1.33301 -19.333 10 -31 26 -35l97 -29l2 -41c-80 2 -152.667 3 -218 3s-142.666 -1 -231.999 -3l-4 41l118 35c13.333 4.66699 20.666 14.667 21.999 30c1.33301 75.333 2 159.333 2 252v411c0 346 -1.33301 545 -4 597z" />
    <glyph glyph-name="l" unicode="l" horiz-adv-x="575" 
d="M56 1403l-5.00098 32.999c118 22.667 226.667 46.334 326 71.001l9 -8c-4 -108.667 -6 -259.667 -6 -453v-651c0 -119.333 0.666992 -215.333 2 -288c2 -19.333 11.333 -31.333 28 -36l109 -33l3 -41c-90 2 -167.667 3 -233 3s-142.666 -1 -231.999 -3l-4 41l113 33
c16.667 5.33301 25.667 16 27 32c1.33301 75.333 2 159.333 2 252v411c0 248 -1.33301 447 -4 597z" />
    <glyph glyph-name="m" unicode="m" horiz-adv-x="1774" 
d="M976 755c9.33301 -32 13.998 -68.001 13.998 -108.001v-357c0 -78 0.666992 -140.667 2 -188c1.33301 -18 10 -29.667 26 -35l101 -29l2 -41c-81.333 2 -154.666 3 -219.999 3s-138 -1 -218 -3l-4 41l95 28c19.333 6.66699 29.333 17.334 30 32.001
c0.666992 9.33301 1 30.333 1 63v436c0 82 -18.667 140.833 -56 176.5s-92.666 53.5 -165.999 53.5c-64.667 0 -130.667 -19.333 -198 -58v-437c0 -83.333 0.666992 -159.666 2 -228.999c0.666992 -20 7.66699 -31.333 21 -34l106 -31l2 -41c-82.667 2 -156.667 3 -222 3
s-142.666 -1 -231.999 -3l-4 41l115 34c16.667 4.66699 25.334 15 26.001 31c0.666992 35.333 1 76.333 1 123v341c0 87.333 -1.33301 168.333 -4 243l-133 36l-5 34c110 21.333 215.333 44.666 316 69.999l10 -7v-116c109.333 82 213 123 311 123
c120 0 206.667 -46.333 260 -139c105.333 92.667 219.666 139 342.999 139c92.667 0 165.167 -26.167 217.5 -78.5s78.5 -127.166 78.5 -224.499v-354c0 -84 0.666992 -146 2 -186c1.33301 -18 10.333 -29.667 27 -35l111 -34l2 -41c-88 2 -164.667 3 -230 3
c-66 0 -138.667 -1 -218 -3l-4 41l99 29c15.333 5.33301 24 15.666 26 30.999c0.666992 9.33301 1 30.333 1 63v436c0 82 -19 140.833 -57 176.5s-94 53.5 -168 53.5c-74.667 0 -144.334 -24 -209.001 -72z" />
    <glyph glyph-name="n" unicode="n" horiz-adv-x="1192" 
d="M58 880c112 21.333 217.663 44.667 316.996 70l10 -7v-116c116 82 224 123 324 123c94.667 0 168.834 -26.5 222.501 -79.5s80.5 -128.167 80.5 -225.5v-353c0 -83.333 0.666992 -145 2 -185c0.666992 -18 9.33398 -29.667 26.001 -35l111 -34l2 -41
c-88 2 -164.667 3 -230 3s-138 -1 -218 -3l-4 41l100 29c15.333 5.33301 23.666 15.666 24.999 30.999c0.666992 9.33301 1 30.333 1 63v436c0 82 -19.667 140.833 -59 176.5s-97.333 53.5 -174 53.5c-67.333 0 -137 -19.333 -209 -58v-437
c0 -83.333 0.666992 -159.666 2 -228.999c0.666992 -18 8.33398 -29.333 23.001 -34l104 -31l2 -41c-82.667 2 -156.667 3 -222 3s-142.666 -1 -231.999 -3l-4 41l118 34c14.667 6 22.334 16.333 23.001 31c0.666992 42.667 1 83.667 1 123v341
c0 87.333 -1.33301 168.333 -4 243l-133 36z" />
    <glyph glyph-name="o" unicode="o" horiz-adv-x="1107" 
d="M281 472c0 -124.667 23.333 -226.166 70 -304.499s116 -117.5 208 -117.5c86 0 151.5 34.5 196.5 103.5s67.5 171.167 67.5 306.5c0 127.333 -23.667 227.666 -71 300.999s-116 110 -206 110c-85.333 0 -150.833 -33 -196.5 -99s-68.5 -166 -68.5 -300zM1027 481.001
c0 -152 -45.834 -274.833 -137.501 -368.5s-208.167 -140.5 -349.5 -140.5c-138 0 -249.5 44.167 -334.5 132.5s-127.5 203.833 -127.5 346.5c0 146.667 44.5 266.5 133.5 359.5s206.833 139.5 353.5 139.5c138.667 0 250.334 -42.833 335.001 -128.5
s127 -199.167 127 -340.5z" />
    <glyph glyph-name="p" unicode="p" horiz-adv-x="1146" 
d="M43 846l-5.00195 34.001c112 21.333 217.667 44.666 317 69.999l10 -7v-98c102 70 200.667 105 296 105c124 0 222.5 -41.5 295.5 -124.5s109.5 -190.833 109.5 -323.5c0 -163.333 -47 -292.5 -141 -387.5s-227.333 -142.5 -400 -142.5c-51.333 0 -104.666 5 -159.999 15
v-219c0 -66.667 0.666992 -113.334 2 -140.001c1.33301 -20 10.333 -32 27 -36l131 -37l3 -41c-104 2 -188.667 3 -254 3s-142.666 -1 -231.999 -3l-4 41l115 34c16 4.66699 24.333 15 25 31c1.33301 48.667 2 122.334 2 221.001v407c0 295.333 -1.33301 482 -4 560z
M364.998 77.001c58 -12.667 114 -18.999 168 -18.999c110.667 0 194 34.667 250 104s84 168.666 84 297.999c0 122 -26.667 214 -80 276s-130 93 -230 93c-72 0 -136 -14.667 -192 -44v-708z" />
    <glyph glyph-name="q" unicode="q" horiz-adv-x="1133" 
d="M778 844c-53.333 13.333 -105 19.999 -155 19.999c-117.333 0 -204.666 -34.833 -261.999 -104.5s-86 -167.167 -86 -292.5c0 -115.333 26.167 -206.666 78.5 -273.999s128.5 -101 228.5 -101c69.333 0 134.666 11.667 195.999 35v717zM969 942.999
c-4 -127.333 -6.00195 -279.332 -6.00195 -455.999v-658c0 -110 0.333008 -178.333 1 -205c0.666992 -18 8.33398 -29.333 23.001 -34l115 -35l2 -41c-90 2 -167.333 3 -232 3c-66 0 -143.333 -1 -232 -3l-5 41l115 34c16.667 5.33301 25.334 15.666 26.001 30.999
c1.33301 80.667 2 181.667 2 303v143c-101.333 -62.667 -200 -94 -296 -94c-122.667 0 -221 43.167 -295 129.5s-111 194.833 -111 325.5c0 160.667 47.5 288 142.5 382s226.833 141 395.5 141c69.333 0 151 -8 245 -24l101 24z" />
    <glyph glyph-name="r" unicode="r" horiz-adv-x="785" 
d="M58 880c111.333 21.333 216.998 44.668 316.998 70.001l10 -7v-117c123.333 82.667 244.333 124 363 124l5 -6c-19.333 -99.333 -38.333 -202.333 -57 -309l-40 -7c-18.667 56.667 -36.667 102.167 -54 136.5s-44.666 51.5 -81.999 51.5c-36 0 -81 -16.667 -135 -50v-433
c0 -104 0.666992 -178.333 2 -223c0.666992 -18 9 -29.333 25 -34l133 -38l3 -41c-104 2 -188.667 3 -254 3s-142.666 -1 -231.999 -3l-4 41l116 34c16 5.33301 24.333 15.666 25 30.999c0.666992 28.667 1 69.667 1 123v341c0 108.667 -1.33301 189.667 -4 243l-133 36z
" />
    <glyph glyph-name="s" unicode="s" horiz-adv-x="829" 
d="M571 849c-38.667 10.667 -80.667 15.9971 -126 15.9971c-62.667 0 -113.167 -12.167 -151.5 -36.5s-57.5 -57.5 -57.5 -99.5c0 -40.667 12.5 -72.667 37.5 -96s71.5 -46.333 139.5 -69l82 -28c92 -31.333 159.5 -67.166 202.5 -107.499s64.5 -93.166 64.5 -158.499
c0 -92.667 -36 -165.5 -108 -218.5s-163 -79.5 -273 -79.5c-101.333 0 -205 20.667 -311 62c22.667 86.667 41 171.334 55 254.001l39 6l72 -215c38 -14.667 86.333 -22 145 -22c62 0 111.5 12.667 148.5 38s55.5 61 55.5 107c0 42.667 -12.5 76.334 -37.5 101.001
s-64.833 46 -119.5 64l-104 35c-90 30 -152.167 66.167 -186.5 108.5s-51.5 94.833 -51.5 157.5c0 87.333 33.167 156.166 99.5 206.499s153.833 75.5 262.5 75.5c101.333 0 193.333 -14.667 276 -44c-18.667 -76 -35.667 -156.333 -51 -241l-38 -7z" />
    <glyph glyph-name="t" unicode="t" horiz-adv-x="723" 
d="M358 818c-4 -225.333 -6 -407 -6 -545c0 -69.333 10.333 -117.166 31 -143.499s60 -39.5 118 -39.5c46 0 106 6 180 18l6 -45c-115.333 -58 -218.333 -87 -309 -87c-72.667 0 -126.667 19.5 -162 58.5s-53 97.833 -53 176.5c0 129.333 2.33301 333.666 7 612.999l-138 34
l-6 41l154 13l69 242c37.333 10 71.333 19.667 102 29l10 -7c-2 -80.667 -3 -156 -3 -226v-37h301v-95h-301z" />
    <glyph glyph-name="u" unicode="u" horiz-adv-x="1166" 
d="M796 88c-104 -77.333 -207.998 -115.996 -311.998 -115.996c-104.667 0 -183.167 26.667 -235.5 80s-78.5 128.333 -78.5 225v212c0 142.667 -1.33301 249.667 -4 321l-133 36l-5 34c116.667 21.333 224.667 44.666 324 69.999l9 -7c-4 -78 -6 -178.333 -6 -301v-318
c0 -80.667 19 -139.167 57 -175.5s91.667 -54.5 161 -54.5s140.333 18.333 213 55v426c0 93.333 -1.33301 171.666 -4 234.999l-132 36l-5 34c116 21.333 223.667 44.666 323 69.999l9 -7c-4 -80 -6 -182.333 -6 -307c0 -242 0.666992 -389.667 2 -443
c0.666992 -27.333 2.66699 -49.333 6 -66s9.66602 -29.5 18.999 -38.5s23.166 -15.333 41.499 -19s42.833 -5.83398 73.5 -6.50098l5 -39c-30.667 -12 -66 -23.5 -106 -34.5s-67.333 -16.5 -82 -16.5c-67.333 0 -112 38.333 -134 115z" />
    <glyph glyph-name="v" unicode="v" horiz-adv-x="989" 
d="M-31 927c84 -2 158.666 -2.99902 223.999 -2.99902c60 0 132 1 216 3l4 -41l-116 -32c54.667 -155.333 118 -320.333 190 -495c18.667 -46 35.334 -90 50.001 -132c14.667 42 31.667 85.667 51 131c60.667 149.333 124.334 314.666 191.001 495.999l-114 32l-4 41
c54 -2 110.333 -3 169 -3c60 0 118 1 174 3l4 -41l-100 -29c-15.333 -5.33301 -28.333 -18.333 -39 -39l-183.5 -435.5l-157.5 -389.5l-85 -9c-36.667 96.667 -89.5 229 -158.5 397l-177.5 432c-10.667 23.333 -25.334 38.333 -44.001 45l-92 28z" />
    <glyph glyph-name="w" unicode="w" horiz-adv-x="1499" 
d="M-17 927c95.333 -2 165.999 -3.00195 211.999 -3.00195c66 0 140.667 1 224 3l4 -41l-118 -32c44.667 -148.667 101 -316 169 -502c14.667 -39.333 28.334 -79.666 41.001 -120.999c12.667 40.667 26.334 80.667 41.001 120c53.333 142.667 93.666 254 120.999 334
l79 235l73 8l78 -242l115 -334c16 -42.667 29.333 -83 40 -121c12.667 38.667 27 78.667 43 120c74 187.333 135.333 355.333 184 504l-113 32l-4 41c53.333 -2 110 -3 170 -3c59.333 0 113.333 1 162 3l5 -41l-80 -22c-22.667 -6.66699 -39.334 -22.667 -50.001 -48
l-167 -409.5l-158 -409.5l-90 -9l-101.5 286.5l-87.5 240.5c-13.333 35.333 -24.666 69.333 -33.999 102c-10.667 -32 -22.667 -65 -36 -99l-94.5 -245c-29 -74.667 -62.833 -166.667 -101.5 -276l-88 -9l-155 418l-158 411c-9.33301 24.667 -26.333 40.334 -51 47.001
l-72 21z" />
    <glyph glyph-name="x" unicode="x" horiz-adv-x="984" 
d="M27 927c84.667 -2 160.333 -3.00098 227 -3.00098c50 0 113 1 189 3l4 -41l-89 -23l172 -283l187 281l-85 25l-5 41c56 -2 105.667 -3 149 -3c59.333 0 114.333 1 165 3l5 -41l-95 -26c-17.333 -4.66699 -33.333 -17 -48 -37c-70 -92.667 -145.667 -198.667 -227 -318
l256 -400c12.667 -19.333 30 -32.666 52 -39.999l87 -27l4 -41c-84 2 -159.333 3 -226 3c-50 0 -113 -1 -189 -3l-4 41l87 23l-190 304l-201 -302l85 -25l4 -41c-54.667 2 -103.334 3 -146.001 3c-59.333 0 -118.666 -1 -177.999 -3l-4 41l97 26c21.333 6 41 20.667 59 44
c73.333 98 152.333 209.333 237 334l-234 374c-13.333 20.667 -31.333 35 -54 43l-87 27z" />
    <glyph glyph-name="y" unicode="y" horiz-adv-x="986" 
d="M-35 927c84 -2 158.668 -2.99902 224.001 -2.99902c44.667 0 116 1 214 3l4 -41l-117 -32c24.667 -70 53.334 -147.167 86.001 -231.5l104 -263.5c15.333 -38 32 -81.667 50 -131c18.667 50 38.667 101 60 153l91 228.5l91 244.5l-114 32l-4 41c49.333 -2 107 -3 173 -3
c59.333 0 117 1 173 3l5 -41l-93 -26c-20.667 -6.66699 -35.667 -20.334 -45 -41.001l-80 -186c-88 -206.667 -154.667 -376 -200 -508c-30.667 -89.333 -58.334 -180.833 -83.001 -274.5s-43.667 -174.167 -57 -241.5c-6 -32.667 -18.167 -57.5 -36.5 -74.5
s-61.166 -25.5 -128.499 -25.5c-68.667 0 -135.334 2.33301 -200.001 7l-5 39c73.333 11.333 127.666 35 162.999 71c42.667 46 108.667 168.333 198 367l8 19l-14 4l-331 802c-8.66699 20 -24 33.667 -46 41l-88 27z" />
    <glyph glyph-name="z" unicode="z" horiz-adv-x="983" 
d="M69 9l282.998 412l284 425h-391l-65 -201l-40 -7c-15.333 104 -32 197.333 -50 280l3 9c136 -2 267.333 -3 394 -3c128 0 261.333 1 400 3l7 -11l-278 -412l-280 -424h398l125 208l41 6c-10.667 -94 -18.667 -190.667 -24 -290l-6 -7c-115.333 2 -250.666 3 -405.999 3
c-141.333 0 -270.666 -1 -387.999 -3z" />
    <glyph glyph-name="braceleft" unicode="{" horiz-adv-x="720" 
d="M80 614c59.333 10.667 103.001 29.5039 131.001 56.5039s42 79.167 42 156.5v446c0 100.667 24.667 173.667 74 219s141.333 67.666 276 66.999l2 -46c-46.667 -10 -82.667 -21.833 -108 -35.5s-43.833 -30.334 -55.5 -50.001s-18.5 -43.167 -20.5 -70.5s-3 -60 -3 -98
v-332c0 -100.667 -13.333 -175 -40 -223s-74.667 -82.667 -144 -104v-6c69.333 -21.333 117.333 -56 144 -104s40 -122.333 40 -223v-332c0 -38 1 -70.667 3 -98s8.83301 -50.833 20.5 -70.5s30.167 -36.334 55.5 -50.001s60.666 -25.5 105.999 -35.5l2 -46
c-136 -0.666992 -228.667 21.666 -278 66.999s-74 118.333 -74 219v446c0 77.333 -14 129.5 -42 156.5s-71 45.833 -129 56.5z" />
    <glyph glyph-name="bar" unicode="|" horiz-adv-x="712" 
d="M412 1525v-2033h-112v2033h112z" />
    <glyph glyph-name="braceright" unicode="}" horiz-adv-x="720" 
d="M638 580c-58 -10.667 -101.001 -29.5039 -129.001 -56.5039s-42 -79.167 -42 -156.5v-446c0 -100.667 -24.667 -173.667 -74 -219s-141.333 -67.666 -276 -66.999l-2 46c46.667 10 82.667 21.833 108 35.5s43.833 30.334 55.5 50.001s18.5 43.167 20.5 70.5s3 60 3 98
v332c0 100.667 13.333 175 40 223s74.667 82.667 144 104v6c-69.333 21.333 -117.333 56 -144 104s-40 122.333 -40 223v332c0 38 -1 70.667 -3 98s-8.83301 50.833 -20.5 70.5s-30.167 36.334 -55.5 50.001s-60.666 25.5 -105.999 35.5l-2 46
c136 0.666992 228.667 -21.666 278 -66.999s74 -118.333 74 -219v-446c0 -77.333 14 -129.5 42 -156.5s71.667 -45.833 131 -56.5z" />
    <glyph glyph-name="asciitilde" unicode="~" horiz-adv-x="1130" 
d="M93 497c90 58.667 174.667 88 254 88c42.667 0 84.167 -6.66699 124.5 -20s80.166 -28 119.499 -44c37.333 -15.333 73.666 -29.333 108.999 -42s72 -19 110 -19c64 0 139.667 29 227 87v-121c-84.667 -55.333 -166.667 -83 -246 -83c-42.667 0 -84.5 6.66699 -125.5 20
s-81.5 28 -121.5 44c-37.333 14.667 -73.666 28 -108.999 40s-71.666 18 -108.999 18c-65.333 0 -143 -29.667 -233 -89v121z" />
    <glyph glyph-name="exclamdown" unicode="&#xa1;" horiz-adv-x="524" 
d="M249 526l78 -967l-224 -10l-9 8l93 966zM218 712c-34.667 0 -63.167 10.833 -85.5 32.5s-33.5 50.167 -33.5 85.5s11.167 64.166 33.5 86.499s50.833 33.5 85.5 33.5c36.667 0 66 -11.167 88 -33.5s33 -51.166 33 -86.499s-11 -63.833 -33 -85.5s-51.333 -32.5 -88 -32.5
z" />
    <glyph glyph-name="cent" unicode="&#xa2;" horiz-adv-x="929" 
d="M869 67c-95.333 -55.333 -198.667 -85.998 -310 -91.998l-3 -136l-78 -8l4 145c-126 9.33301 -224.5 55.166 -295.5 137.499s-106.5 190.166 -106.5 323.499c0 136 38.167 249.167 114.5 339.5s179.5 143.5 309.5 159.5l4 138l78 8l-4 -142
c97.333 -1.33301 190 -16.333 278 -45c-9.33301 -40.667 -18.333 -82.5 -27 -125.5l-26 -134.5l-37 -6l-60 215c-46.667 11.333 -89.667 17 -129 17l-19 -772c18 -2.66699 43.667 -4 77 -4c70 0 144.667 7.33301 224 22zM501.999 854.002
c-75.333 -13.333 -135 -52.3311 -179 -116.998s-66 -148.334 -66 -251.001c0 -212.667 76 -340.334 228 -383.001z" />
    <glyph glyph-name="sterling" unicode="&#xa3;" horiz-adv-x="991" 
d="M100 559l152.002 0.000976562c-1.33301 28 -2.33301 53.5 -3 76.5s-1 41.833 -1 56.5c0 118 38.167 209.667 114.5 275s175.833 98 298.5 98c77.333 0 153.666 -11.667 228.999 -35l5 -5l-50 -270l-37 -6l-59 224c-36 10.667 -71 16 -105 16
c-72 0 -126.333 -24.333 -163 -73s-55 -120 -55 -214c0 -18.667 0.166992 -40.334 0.5 -65.001s1.16602 -50.667 2.49902 -78h276v-81h-277c-4 -148 -46.667 -261.333 -128 -340l2 -9h486l87 183l41 8l-20 -316l-7 -7c-143.333 2 -281.333 3 -414 3
c-184.667 0 -331.667 -1 -441 -3l-4 40c100.667 26 163.5 58.167 188.5 96.5s37.5 109.833 37.5 214.5c0 60.667 -0.333008 104 -1 130h-155v81z" />
    <glyph glyph-name="currency" unicode="&#xa4;" horiz-adv-x="1130" 
d="M148 1190l154.001 -154.001c74.667 54.667 162 82 262 82c103.333 0 191.333 -27.667 264 -83l155 155l79 -79l-155 -155c56 -76.667 84 -164 84 -262c0 -96 -28.333 -183.667 -85 -263l156 -155l-79 -79l-156 156c-78.667 -54.667 -166.334 -82 -263.001 -82
c-100.667 0 -187.667 27 -261 81l-155 -155l-79 79l154 154c-56.667 74.667 -85 162.667 -85 264c0 102.667 28 190.334 84 263.001l-153 154zM256.001 693.999c0 -94 28.334 -171.335 85.001 -232.002s131 -91 223 -91s166.5 30.5 223.5 91.5s85.5 138.167 85.5 231.5
c0 94.667 -28.833 172.334 -86.5 233.001s-131.834 91 -222.501 91c-89.333 0 -163 -29.667 -221 -89s-87 -137.666 -87 -234.999z" />
    <glyph glyph-name="yen" unicode="&#xa5;" horiz-adv-x="1076" 
d="M949 277l-300.005 0.00195312v-79c0.666992 -16.667 1 -32.334 1 -47.001s0.333008 -28.667 1 -42c0.666992 -16.667 12.334 -28 35.001 -34l124 -38l2 -40c-93.333 2 -179.333 3 -258 3c-74 0 -157 -1 -249 -3l-4 40l134 40c18 5.33301 27.333 15.666 28 30.999
c0.666992 13.333 1 27.333 1 42v47v80h-300v81h300v124h-300v81h270l-193 286c-20 30 -39 56.167 -57 78.5s-43 38.166 -75 47.499l-97 28l-2 40c30.667 -1.33301 66.167 -2.33301 106.5 -3s86.5 -1 138.5 -1c40.667 0 81.834 0.333008 123.501 1s86.5 1.66699 134.5 3
l4 -40l-84 -24c-26.667 -7.33301 -40 -19.333 -40 -36c0 -13.333 6.66699 -30.166 20 -50.499l52 -77.5l135 -200l105 178l52 87.5c14 23 21 41.833 21 56.5c0 10 -3.66699 18.167 -11 24.5s-19.666 11.833 -36.999 16.5l-80 22l-2 43c36 -1.33301 69.833 -2.33301 101.5 -3
s65.5 -1 101.5 -1c36.667 0 72.334 0.333008 107.001 1s69.334 1.66699 104.001 3l4 -40l-102 -32c-25.333 -7.33301 -45.333 -19.333 -60 -36s-29 -36 -43 -58l-197 -314h285v-81h-300v-124h300v-81z" />
    <glyph glyph-name="brokenbar" unicode="&#xa6;" horiz-adv-x="742" 
d="M300 854v671h142v-671h-142zM300 -68v671h142v-671h-142z" />
    <glyph glyph-name="section" unicode="&#xa7;" horiz-adv-x="1106" 
d="M281 -228c71.333 -23.333 135.667 -34.999 193 -34.999c76 0 134.833 18.833 176.5 56.5s62.5 87.834 62.5 150.501c0 32 -8.83301 60.333 -26.5 85s-41.167 47 -70.5 67s-62.833 38.667 -100.5 56l-116.5 53c-42.667 18.667 -84.834 38.167 -126.501 58.5
s-79 42.833 -112 67.5s-59.667 52.667 -80 84s-30.5 67.666 -30.5 108.999c0 106.667 83 212.667 249 318c-125.333 71.333 -188 158 -188 260c0 104 39.5 183.5 118.5 238.5s186.167 82.5 321.5 82.5c102 0 212.333 -12.333 331 -37l7 -7l-59 -312l-40 -7l-65 249
c-71.333 23.333 -135.666 35 -192.999 35c-76 0 -134.833 -18.5 -176.5 -55.5s-62.5 -86.167 -62.5 -147.5c0 -31.333 8.83301 -58.833 26.5 -82.5s41.167 -45.5 70.5 -65.5s62.833 -38.5 100.5 -55.5l116.5 -51.5l126.5 -58c41.667 -20 79 -42.333 112 -67
s59.667 -52.834 80 -84.501s30.5 -68.167 30.5 -109.5c0 -107.333 -83 -213.333 -249 -318c125.333 -71.333 188 -159.333 188 -264c0 -106 -39.5 -187 -118.5 -243s-186.167 -84 -321.5 -84c-102 0 -212.333 12.333 -331 37l-7 7l59 312l40 7zM778.001 502.001
c0 31.333 -8.83398 59.168 -26.501 83.501s-41 46.5 -70 66.5s-62.167 38.833 -99.5 56.5l-116 52.5c-35.333 15.333 -70.666 31.666 -105.999 48.999c-88 -74.667 -132 -148.334 -132 -221.001c0 -31.333 8.83301 -59.166 26.5 -83.499s41 -46.5 70 -66.5
s62.167 -38.833 99.5 -56.5l116 -52.5l105 -49c88.667 74 133 147.667 133 221z" />
    <glyph glyph-name="dieresis" unicode="&#xa8;" horiz-adv-x="840" 
d="M338 1304c0 -34 -10.5 -61.501 -31.5 -82.501s-48.167 -31.5 -81.5 -31.5c-32 0 -57.833 9.66699 -77.5 29s-29.5 45.333 -29.5 78c0 34.667 10.5 62 31.5 82s48.5 30 82.5 30c31.333 0 56.833 -9.16699 76.5 -27.5s29.5 -44.166 29.5 -77.499zM722 1304
c0 -34 -10.5 -61.501 -31.5 -82.501s-48.167 -31.5 -81.5 -31.5c-31.333 0 -57 9.66699 -77 29s-30 45.333 -30 78c0 34.667 10.5 62 31.5 82s48.5 30 82.5 30c32 0 57.667 -9.16699 77 -27.5s29 -44.166 29 -77.499zM0 927.998z" />
    <glyph glyph-name="copyright" unicode="&#xa9;" horiz-adv-x="1631" 
d="M818 1386c204 0 373.667 -67.001 509 -201.001s203 -304 203 -510c0 -197.333 -67.667 -362.166 -203 -494.499s-306 -198.5 -512 -198.5s-376.833 66.167 -512.5 198.5s-203.5 298.833 -203.5 499.5c0 205.333 68.667 374.333 206 507s308.333 199 513 199zM816 1308
c-184 0 -333 -58.668 -447 -176.001s-171 -266.666 -171 -447.999c0 -182 57.5 -331.5 172.5 -448.5s264.5 -175.5 448.5 -175.5c180.667 0 328 58 442 174s171 266 171 450s-57.833 334 -173.5 450s-263.167 174 -442.5 174zM1056 771.998l-31.001 -5.00098l-59 218
c-35.333 13.333 -72.666 20 -111.999 20c-79.333 0 -142.166 -26.667 -188.499 -80s-69.5 -122.666 -69.5 -207.999c0 -94.667 30 -171 90 -229s140.333 -87 241 -87c63.333 0 130.333 15.333 201 46l8 -37c-86 -70 -184.333 -105 -295 -105
c-120.667 0 -220.334 34.5 -299.001 103.5s-118 159.167 -118 270.5c0 122 42.833 218.333 128.5 289s194.5 106 326.5 106c74 0 148 -11.333 222 -34l5 -6z" />
    <glyph glyph-name="ordfeminine" unicode="&#xaa;" horiz-adv-x="611" 
d="M363 917c-72 0 -121.334 -7.83301 -148.001 -23.5s-40 -41.5 -40 -77.5c0 -34 8.83301 -57.833 26.5 -71.5s41.834 -20.5 72.501 -20.5c32.667 0 62 4.33301 88 13zM85.999 1152c80 36.667 156.667 55.002 230 55.002c58 0 103.333 -15.333 136 -46s48.667 -75 48 -133
l-3 -235c0 -20.667 0.666992 -36.834 2 -48.501s5 -21 11 -28s15 -11.667 27 -14s28.333 -3.83301 49 -4.5l4 -27c-17.333 -5.33301 -39.5 -11.166 -66.5 -17.499s-46.5 -9.5 -58.5 -9.5c-53.333 0 -87 19.333 -101 58c-52.667 -39.333 -103.334 -59 -152.001 -59
c-53.333 0 -96.166 13.167 -128.499 39.5s-48.5 64.166 -48.5 113.499c0 57.333 26.5 101 79.5 131s135.833 45 248.5 45v41c0.666992 39.333 -8.33301 68.666 -27 87.999s-48 29 -88 29c-47.333 0 -96.333 -7.33301 -147 -22zM44.999 413.002v75h528v-75h-528z" />
    <glyph glyph-name="guillemotleft" unicode="&#xab;" horiz-adv-x="1048" 
d="M460 71c-124 148.667 -245.999 273.667 -365.999 375l-4 36c123.333 101.333 246.666 226.333 369.999 375l48 -25c-60 -120 -131.667 -241 -215 -363c83.333 -126 155 -250.333 215 -373zM880.001 71c-124 148.667 -245.999 273.667 -365.999 375l-4 36
c123.333 101.333 246.666 226.333 369.999 375l48 -25c-60 -120 -131.667 -241 -215 -363c83.333 -126 155 -250.333 215 -373z" />
    <glyph glyph-name="logicalnot" unicode="&#xac;" horiz-adv-x="1130" 
d="M93 522h944v-532h-121v411h-823v121z" />
    <glyph glyph-name="registered" unicode="&#xae;" horiz-adv-x="844" 
d="M434 1406c106 0 191.331 -30.667 255.998 -92s97 -145 97 -251c0 -108 -32.833 -193.833 -98.5 -257.5s-152.5 -95.5 -260.5 -95.5c-105.333 0 -190.166 31.833 -254.499 95.5s-96.5 148.5 -96.5 254.5c0 104.667 33.833 188.5 101.5 251.5s152.834 94.5 255.501 94.5z
M428.998 1357c-83.333 0 -151.168 -26.333 -203.501 -79s-78.5 -125 -78.5 -217c0 -93.333 26 -167 78 -221s120.667 -81 206 -81c86.667 0 155.834 25.833 207.501 77.5s77.5 126.5 77.5 224.5c0 90.667 -26.333 162.667 -79 216s-122 80 -208 80zM384.996 1019
l0.00292969 -43.999c0 -13.333 0.333008 -25.333 1 -36c0.666992 -10 3.66699 -15.667 9 -17l40 -11l1 -17c-16.667 0.666992 -32.167 1 -46.5 1h-44.5h-51c-17.333 0 -34.333 -0.333008 -51 -1l-2 17l49 14c6.66699 2.66699 10.334 7 11.001 13c0.666992 10.667 1 23 1 37
v45v106v39c0 11.333 -0.333008 21.666 -1 30.999c-0.666992 8 -4.66699 13 -12 15l-47 13l-1 19c17.333 -0.666992 34.166 -1.16699 50.499 -1.5s32.833 -0.5 49.5 -0.5c9.33301 0 24.5 0.666992 45.5 2s38.5 2 52.5 2c94.667 0 142 -29.333 142 -88
c0 -40.667 -26.333 -71 -79 -91c19.333 -29.333 35.166 -54.833 47.499 -76.5s26.166 -40.167 41.499 -55.5c8 -8 15 -13.5 21 -16.5s16 -5.83301 30 -8.5l2 -16c-17.333 -4 -35.333 -6 -54 -6s-33.5 1.5 -44.5 4.5s-21.5 8.5 -31.5 16.5
c-8.66699 7.33301 -19.334 21.833 -32.001 43.5l-37 62.5c-8 14.667 -14.333 23.667 -19 27s-12 5 -22 5h-19v-27zM384.999 1078c6.66699 -0.666992 15.333 -1 26 -1c56.667 0 85 22.333 85 67c0 23.333 -6.33301 40.333 -19 51s-33 16 -61 16
c-8 0 -18.333 -0.666992 -31 -2v-131z" />
    <glyph glyph-name="macron" unicode="&#xaf;" horiz-adv-x="840" 
d="M149 1190v109h541v-109h-541zM0 928z" />
    <glyph glyph-name="macron" unicode="&#x2c9;" horiz-adv-x="840" 
d="M149 1190v109h541v-109h-541zM0 928z" />
    <glyph glyph-name="degree" unicode="&#xb0;" horiz-adv-x="702" 
d="M155 1095c0 -63.333 18.833 -114.333 56.5 -153s87.5 -58 149.5 -58c60.667 0 110.167 19.167 148.5 57.5s57.5 89.5 57.5 153.5c0 62.667 -19.167 113.834 -57.5 153.501s-87.833 59.5 -148.5 59.5c-62 0 -111.833 -19.833 -149.5 -59.5s-56.5 -90.834 -56.5 -153.501z
M60 1094c0 87.333 28.833 159.502 86.5 216.502s129.167 85.5 214.5 85.5s156.833 -28.333 214.5 -85s86.5 -128.334 86.5 -215.001s-29 -158.334 -87 -215.001s-129.333 -85 -214 -85c-85.333 0 -156.833 28 -214.5 84s-86.5 127.333 -86.5 214z" />
    <glyph glyph-name="plusminus" unicode="&#xb1;" horiz-adv-x="1130" 
d="M93 683h412v332h121v-332h411v-121h-411v-331h-121v331h-412v121zM93 131h944v-121h-944v121z" />
    <glyph glyph-name="twosuperior" unicode="&#xb2;" horiz-adv-x="738" 
d="M626 916l34 5.99805l-17 -261l-5 -5c-74.667 0.666992 -170.334 1.33398 -287.001 2.00098c-106.667 0 -208 -0.666992 -304 -2l-6 63c181.333 127.333 297.833 224.666 349.5 291.999s77.5 131.666 77.5 192.999c0 50.667 -17.667 91.834 -53 123.501
s-80.666 47.5 -135.999 47.5c-52.667 0 -111 -12.667 -175 -38l-30 51c92.667 58 184 87 274 87c78.667 0 144.167 -19.167 196.5 -57.5s78.5 -89.5 78.5 -153.5c0 -77.333 -34 -154.666 -102 -231.999s-171 -160.666 -309 -249.999l1 -4h347z" />
    <glyph glyph-name="threesuperior" unicode="&#xb3;" horiz-adv-x="738" 
d="M199 1109c76 6.66699 136.166 23.834 180.499 51.501s66.5 63.167 66.5 106.5c0 34.667 -14.333 63 -43 85s-64.667 33 -108 33c-58 0 -117.333 -12 -178 -36l-25 50c88.667 50.667 177.667 76 267 76c66 0 121.833 -14.5 167.5 -43.5s68.5 -68.833 68.5 -119.5
c0 -82.667 -62.333 -145 -187 -187v-2c76.667 -8 136.5 -29.167 179.5 -63.5s64.5 -77.5 64.5 -129.5c0 -84.667 -48.167 -154.334 -144.5 -209.001s-235.166 -84.667 -416.499 -90l-7 55c138 8 241 32.333 309 73s102 91 102 151c0 48 -18.167 85.5 -54.5 112.5
s-87.5 40.5 -153.5 40.5c-25.333 0 -53 -3 -83 -9z" />
    <glyph glyph-name="acute" unicode="&#xb4;" horiz-adv-x="840" 
d="M468 1417h200l-238 -373h-68zM0 928z" />
    <glyph glyph-name="mu" unicode="&#xb5;" horiz-adv-x="1131" 
d="M163 -494l-0.00683594 1135.99c0 50 -1 96.833 -3 140.5s-4.66699 84.834 -8 123.501c68 14.667 131 29.334 189 44.001l9 -7c-4 -87.333 -6 -182.666 -6 -285.999v-344c0 -71.333 15.833 -124.333 47.5 -159s82.5 -52 152.5 -52c42 0 83 8 123 24s74 42 102 78v438
c0 50 -1 96.833 -3 140.5s-4.66699 84.834 -8 123.501c68 14.667 131 29.334 189 44.001l9 -7c-4 -87.333 -6 -182.666 -6 -285.999v-175c0 -139.333 1 -241 3 -305c0.666992 -36.667 7.33398 -62.334 20.001 -77.001c12.667 -13.333 31.334 -22.5 56.001 -27.5
s58.667 -7.83301 102 -8.5l5 -40c-107.333 -32.667 -186.666 -49 -237.999 -49c-39.333 0 -69.833 11.5 -91.5 34.5s-34.167 60.833 -37.5 113.5c-15.333 -25.333 -33.166 -47.5 -53.499 -66.5s-41.666 -34.667 -63.999 -47s-45.666 -21.666 -69.999 -27.999
s-48.166 -9.5 -71.499 -9.5c-70.667 0 -132.667 26.667 -186 80c9.33301 -218 22 -393.333 38 -526c-31.333 -3.33301 -62.833 -7.16602 -94.5 -11.499s-63.167 -9.5 -94.5 -15.5z" />
    <glyph glyph-name="paragraph" unicode="&#xb6;" horiz-adv-x="1172" 
d="M888 -308l-178 -9.99805l-9 8l59 1622l-90 3l-29 -752c-28 -2.66699 -53.333 -4 -76 -4c-172 0 -305.833 38.667 -401.5 116s-143.5 186.666 -143.5 327.999c0 129.333 42 228.5 126 297.5s205.333 103.5 364 103.5c43.333 0 91.333 -1.33301 144 -4s107 -4 163 -4
c81.333 0 162.333 1.33301 243 4l4 -43l-165 -40c-16 -4 -24.667 -14.667 -26 -32c-0.666992 -20.667 -1 -44.834 -1 -72.501v-93.5z" />
    <glyph glyph-name="periodcentered" unicode="&#xb7;" horiz-adv-x="524" 
d="M263 625c36.667 0 66.834 -11.5 90.501 -34.5s35.5 -53.167 35.5 -90.5s-11.833 -67.833 -35.5 -91.5s-53.834 -35.5 -90.501 -35.5c-38.667 0 -69.667 11.833 -93 35.5s-35 54.167 -35 91.5s11.667 67.5 35 90.5s54.333 34.5 93 34.5z" />
    <glyph glyph-name="periodcentered" unicode="&#x2219;" horiz-adv-x="524" 
d="M263 625c36.667 0 66.834 -11.5 90.501 -34.5s35.5 -53.167 35.5 -90.5s-11.833 -67.833 -35.5 -91.5s-53.834 -35.5 -90.501 -35.5c-38.667 0 -69.667 11.833 -93 35.5s-35 54.167 -35 91.5s11.667 67.5 35 90.5s54.333 34.5 93 34.5z" />
    <glyph glyph-name="cedilla" unicode="&#xb8;" horiz-adv-x="840" 
d="M243 -190l147 189.999h86l-82 -109c80 -29.333 120 -71.333 120 -126c0 -73.333 -69.667 -157 -209 -251l-35 38c65.333 53.333 98 102.333 98 147c0 48.667 -40.333 83.334 -121 104.001z" />
    <glyph glyph-name="onesuperior" unicode="&#xb9;" horiz-adv-x="738" 
d="M129 1389l-3.00098 31c115.333 16.667 223.333 34 324 52l6 -6c-6 -113.333 -9 -226 -9 -338v-160c0 -90 0.666992 -162 2 -216c0.666992 -14.667 7.66699 -23.667 21 -27l149 -39l2 -30c-112 1.33301 -192.667 2 -242 2c-48.667 0 -129 -0.666992 -241 -2l-3 30l152 39
c12.667 3.33301 19.334 11.333 20.001 24c1.33301 56 2 119 2 189v93c0 122 -1 235.667 -3 341z" />
    <glyph glyph-name="ordmasculine" unicode="&#xba;" horiz-adv-x="678" 
d="M199 932c0 -70 12.1689 -126.5 36.502 -169.5s59.833 -64.5 106.5 -64.5c43.333 0 76.666 19.167 99.999 57.5s35 94.5 35 168.5c0 70 -12.333 125.5 -37 166.5s-60 61.5 -106 61.5c-42.667 0 -75.834 -18.167 -99.501 -54.5s-35.5 -91.5 -35.5 -165.5zM630.002 937
c0 -88 -28.168 -158.999 -84.501 -212.999s-128.166 -81 -215.499 -81c-84 0 -152.167 25.5 -204.5 76.5s-78.5 117.833 -78.5 200.5c0 84 27.333 152.833 82 206.5s127 80.5 217 80.5c84.667 0 153.167 -24.833 205.5 -74.5s78.5 -114.834 78.5 -195.501zM68.001 413.001
v75h541v-75h-541z" />
    <glyph glyph-name="guillemotright" unicode="&#xbb;" horiz-adv-x="1048" 
d="M168 857c124 -148.667 245.999 -273.667 365.999 -375l4 -36c-123.333 -101.333 -246.666 -226.333 -369.999 -375l-48 25c60 120 131.667 241 215 363c-83.333 126 -155 250.333 -215 373zM587.999 857c124 -148.667 245.999 -273.667 365.999 -375l4 -36
c-123.333 -101.333 -246.666 -226.333 -369.999 -375l-48 25c60 120 131.667 241 215 363c-83.333 126 -155 250.333 -215 373z" />
    <glyph glyph-name="onequarter" unicode="&#xbc;" horiz-adv-x="1687" 
d="M129 1389l-3.00098 31c115.333 16.667 223.333 34 324 52l6 -6c-6 -113.333 -9 -226 -9 -338v-160c0 -90 0.666992 -162 2 -216c0.666992 -14.667 7.66699 -23.667 21 -27l149 -39l2 -30c-112 1.33301 -192.667 2 -242 2c-48.667 0 -129 -0.666992 -241 -2l-3 30l152 39
c12.667 3.33301 19.334 11.333 20.001 24c1.33301 56 2 119 2 189v93c0 122 -1 235.667 -3 341zM397.999 0l946 1477l75 -47l-947 -1477zM1516 198c0 -39.333 0.666016 -76.332 1.99902 -110.999c0.666992 -15.333 7.66699 -24.333 21 -27l119 -32l2 -30
c-92 1.33301 -162.667 2 -212 2c-48.667 0 -124 -0.666992 -226 -2l-3 30l137 35c13.333 3.33301 20.333 11.666 21 24.999c0.666992 37.333 1 74 1 110h-165c-63.333 0 -139 -0.666992 -227 -2l-4 64l459 547l80 5c-3.33301 -73.333 -5 -149.333 -5 -228v-306h157l3 -82
c-51.333 1.33301 -104.666 2 -159.999 2zM1378 636.001c-103.333 -117.333 -203 -236.667 -299 -358h299v358z" />
    <glyph glyph-name="onehalf" unicode="&#xbd;" horiz-adv-x="1687" 
d="M129 1389l-3.00098 31c115.333 16.667 223.333 34 324 52l6 -6c-6 -113.333 -9 -226 -9 -338v-160c0 -90 0.666992 -162 2 -216c0.666992 -14.667 7.66699 -23.667 21 -27l149 -39l2 -30c-112 1.33301 -192.667 2 -242 2c-48.667 0 -129 -0.666992 -241 -2l-3 30l152 39
c12.667 3.33301 19.334 11.333 20.001 24c1.33301 56 2 119 2 189v93c0 122 -1 235.667 -3 341zM347.999 0l946 1477l75 -47l-947 -1477zM1575 258l34 5.99805l-17 -261l-5 -5c-74.667 0.666992 -170.334 1.33398 -287.001 2.00098c-106.667 0 -208 -0.666992 -304 -2l-6 63
c181.333 127.333 297.833 224.666 349.5 291.999s77.5 131.666 77.5 192.999c0 50.667 -17.667 91.834 -53 123.501s-80.666 47.5 -135.999 47.5c-52.667 0 -111 -12.667 -175 -38l-30 51c92.667 58 184 87 274 87c78.667 0 144.167 -19.167 196.5 -57.5
s78.5 -89.5 78.5 -153.5c0 -77.333 -34 -154.666 -102 -231.999s-171 -160.666 -309 -249.999l1 -4h347z" />
    <glyph glyph-name="threequarters" unicode="&#xbe;" horiz-adv-x="1687" 
d="M199 1109c76 6.66699 136.166 23.834 180.499 51.501s66.5 63.167 66.5 106.5c0 34.667 -14.333 63 -43 85s-64.667 33 -108 33c-58 0 -117.333 -12 -178 -36l-25 50c88.667 50.667 177.667 76 267 76c66 0 121.833 -14.5 167.5 -43.5s68.5 -68.833 68.5 -119.5
c0 -82.667 -62.333 -145 -187 -187v-2c76.667 -8 136.5 -29.167 179.5 -63.5s64.5 -77.5 64.5 -129.5c0 -84.667 -48.167 -154.334 -144.5 -209.001s-235.166 -84.667 -416.499 -90l-7 55c138 8 241 32.333 309 73s102 91 102 151c0 48 -18.167 85.5 -54.5 112.5
s-87.5 40.5 -153.5 40.5c-25.333 0 -53 -3 -83 -9zM377.999 0l946 1477l75 -47l-947 -1477zM1516 198c0 -39.333 0.666016 -76.332 1.99902 -110.999c0.666992 -15.333 7.66699 -24.333 21 -27l119 -32l2 -30c-92 1.33301 -162.667 2 -212 2
c-48.667 0 -124 -0.666992 -226 -2l-3 30l137 35c13.333 3.33301 20.333 11.666 21 24.999c0.666992 37.333 1 74 1 110h-165c-63.333 0 -139 -0.666992 -227 -2l-4 64l459 547l80 5c-3.33301 -73.333 -5 -149.333 -5 -228v-306h157l3 -82
c-51.333 1.33301 -104.666 2 -159.999 2zM1378 636.001c-103.333 -117.333 -203 -236.667 -299 -358h299v358z" />
    <glyph glyph-name="questiondown" unicode="&#xbf;" horiz-adv-x="880" 
d="M438 712c-34.667 0 -63.167 10.667 -85.5 32s-33.5 50 -33.5 86s11.167 65 33.5 87s50.833 33 85.5 33c36.667 0 66 -11 88 -33s33 -51 33 -87s-11 -64.667 -33 -86s-51.333 -32 -88 -32zM434 534c39.333 -35.333 76.002 -75.8311 110.002 -121.498
s51 -78.834 51 -99.501c0 -18.667 -4.83301 -37.667 -14.5 -57s-22.334 -39 -38.001 -59s-33.5 -40.167 -53.5 -60.5l-62 -62.5l-66.5 -67c-21.667 -22.667 -41 -45.5 -58 -68.5s-30.667 -45.833 -41 -68.5s-15.5 -45.667 -15.5 -69c0 -56.667 18.833 -101.667 56.5 -135
s88.167 -50 151.5 -50c44 0 88 9.33301 132 28l66 229l39 6l59 -280c-112 -43.333 -218.667 -65 -320 -65c-110.667 0 -198.334 24.667 -263.001 74s-97 120.333 -97 213c0 36 5.83301 69.5 17.5 100.5s27 60.167 46 87.5s40.167 53.166 63.5 77.499s47 47.833 71 70.5
l59.5 57c19 18.667 36 37.167 51 55.5s26.833 37.333 35.5 57s13 39.5 13 59.5c0 36.667 -12.333 76.667 -37 120z" />
    <glyph glyph-name="Agrave" unicode="&#xc0;" horiz-adv-x="1381" 
d="M754 1421l443.999 -1223c16.667 -46 31.834 -77.167 45.501 -93.5s33.167 -28.5 58.5 -36.5l94 -28l2 -43c-87.333 2 -168.333 3 -243 3c-76 0 -165.667 -1 -269 -3l-4 43l95 28c13.333 4.66699 22.833 9.83398 28.5 15.501s8.5 14.5 8.5 26.5
c0 13.333 -3.5 30.833 -10.5 52.5s-16.833 50.5 -29.5 86.5l-94 268h-482l-105 -267l-33 -89c-8 -22 -12 -39.333 -12 -52c0 -11.333 3.16699 -19.833 9.5 -25.5s15.833 -10.5 28.5 -14.5l93 -27l2 -45c-94.667 2 -172 3 -232 3s-127 -1 -201 -3l-5 43l101 31
c25.333 8 44 20.333 56 37s25.333 42.667 40 78l511 1220zM434.999 607.999h412l-195 551zM446.999 1668l137 118l326 -244l-26 -46l-437 157v15zM279.999 1400z" />
    <glyph glyph-name="Aacute" unicode="&#xc1;" horiz-adv-x="1381" 
d="M754 1421l443.999 -1223c16.667 -46 31.834 -77.167 45.501 -93.5s33.167 -28.5 58.5 -36.5l94 -28l2 -43c-87.333 2 -168.333 3 -243 3c-76 0 -165.667 -1 -269 -3l-4 43l95 28c13.333 4.66699 22.833 9.83398 28.5 15.501s8.5 14.5 8.5 26.5
c0 13.333 -3.5 30.833 -10.5 52.5s-16.833 50.5 -29.5 86.5l-94 268h-482l-105 -267l-33 -89c-8 -22 -12 -39.333 -12 -52c0 -11.333 3.16699 -19.833 9.5 -25.5s15.833 -10.5 28.5 -14.5l93 -27l2 -45c-94.667 2 -172 3 -232 3s-127 -1 -201 -3l-5 43l101 31
c25.333 8 44 20.333 56 37s25.333 42.667 40 78l511 1220zM434.999 607.999h412l-195 551zM940.999 1653l-436 -157l-27 46l326 244l137 -118v-15zM279.999 1400z" />
    <glyph glyph-name="Acircumflex" unicode="&#xc2;" horiz-adv-x="1381" 
d="M754 1421l443.999 -1223c16.667 -46 31.834 -77.167 45.501 -93.5s33.167 -28.5 58.5 -36.5l94 -28l2 -43c-87.333 2 -168.333 3 -243 3c-76 0 -165.667 -1 -269 -3l-4 43l95 28c13.333 4.66699 22.833 9.83398 28.5 15.501s8.5 14.5 8.5 26.5
c0 13.333 -3.5 30.833 -10.5 52.5s-16.833 50.5 -29.5 86.5l-94 268h-482l-105 -267l-33 -89c-8 -22 -12 -39.333 -12 -52c0 -11.333 3.16699 -19.833 9.5 -25.5s15.833 -10.5 28.5 -14.5l93 -27l2 -45c-94.667 2 -172 3 -232 3s-127 -1 -201 -3l-5 43l101 31
c25.333 8 44 20.333 56 37s25.333 42.667 40 78l511 1220zM434.999 607.999h412l-195 551zM744.999 1770l286 -239l-27 -46l-304 135l-305 -135l-26 46l286 239h90zM279.999 1400z" />
    <glyph glyph-name="Atilde" unicode="&#xc3;" horiz-adv-x="1381" 
d="M754 1421l443.999 -1223c16.667 -46 31.834 -77.167 45.501 -93.5s33.167 -28.5 58.5 -36.5l94 -28l2 -43c-87.333 2 -168.333 3 -243 3c-76 0 -165.667 -1 -269 -3l-4 43l95 28c13.333 4.66699 22.833 9.83398 28.5 15.501s8.5 14.5 8.5 26.5
c0 13.333 -3.5 30.833 -10.5 52.5s-16.833 50.5 -29.5 86.5l-94 268h-482l-105 -267l-33 -89c-8 -22 -12 -39.333 -12 -52c0 -11.333 3.16699 -19.833 9.5 -25.5s15.833 -10.5 28.5 -14.5l93 -27l2 -45c-94.667 2 -172 3 -232 3s-127 -1 -201 -3l-5 43l101 31
c25.333 8 44 20.333 56 37s25.333 42.667 40 78l511 1220zM434.999 607.999h412l-195 551zM1036 1724c-76 -132.667 -150.667 -199 -224 -199c-24 0 -46.5 4.83301 -67.5 14.5s-44.167 22.167 -69.5 37.5l-59 32.5c-15.333 8.33301 -31.333 12.5 -48 12.5
c-18.667 0 -36.167 -5.66699 -52.5 -17s-43.5 -37.666 -81.5 -78.999l-50 39c46 71.333 85.167 121.666 117.5 150.999s66.5 44 102.5 44c20.667 0 39.5 -3.33301 56.5 -10s41.5 -19.334 73.5 -38.001l67.5 -36.5c15.667 -8.33301 32.167 -12.5 49.5 -12.5
c20.667 0 38.5 5.33301 53.5 16s41.167 37.334 78.5 80.001zM279.999 1400z" />
    <glyph glyph-name="Adieresis" unicode="&#xc4;" horiz-adv-x="1381" 
d="M754 1421l443.999 -1223c16.667 -46 31.834 -77.167 45.501 -93.5s33.167 -28.5 58.5 -36.5l94 -28l2 -43c-87.333 2 -168.333 3 -243 3c-76 0 -165.667 -1 -269 -3l-4 43l95 28c13.333 4.66699 22.833 9.83398 28.5 15.501s8.5 14.5 8.5 26.5
c0 13.333 -3.5 30.833 -10.5 52.5s-16.833 50.5 -29.5 86.5l-94 268h-482l-105 -267l-33 -89c-8 -22 -12 -39.333 -12 -52c0 -11.333 3.16699 -19.833 9.5 -25.5s15.833 -10.5 28.5 -14.5l93 -27l2 -45c-94.667 2 -172 3 -232 3s-127 -1 -201 -3l-5 43l101 31
c25.333 8 44 20.333 56 37s25.333 42.667 40 78l511 1220zM434.999 607.999h412l-195 551zM599.999 1635c0 -34.667 -10.5 -62.501 -31.5 -83.501s-48.167 -31.5 -81.5 -31.5c-31.333 0 -57 9.83301 -77 29.5s-30 45.5 -30 77.5c0 35.333 10.5 63 31.5 83s48.5 30 82.5 30
c31.333 0 56.833 -9.16699 76.5 -27.5s29.5 -44.166 29.5 -77.499zM1020 1635c0 -34.667 -10.5 -62.501 -31.5 -83.501s-48.167 -31.5 -81.5 -31.5c-31.333 0 -57 9.83301 -77 29.5s-30 45.5 -30 77.5c0 35.333 10.5 63 31.5 83s48.5 30 82.5 30
c31.333 0 56.833 -9.16699 76.5 -27.5s29.5 -44.166 29.5 -77.499zM279.999 1400z" />
    <glyph glyph-name="Aring" unicode="&#xc5;" horiz-adv-x="1381" 
d="M754 1421l443.999 -1223c16.667 -46 31.834 -77.167 45.501 -93.5s33.167 -28.5 58.5 -36.5l94 -28l2 -43c-87.333 2 -168.333 3 -243 3c-76 0 -165.667 -1 -269 -3l-4 43l95 28c13.333 4.66699 22.833 9.83398 28.5 15.501s8.5 14.5 8.5 26.5
c0 13.333 -3.5 30.833 -10.5 52.5s-16.833 50.5 -29.5 86.5l-94 268h-482l-105 -267l-33 -89c-8 -22 -12 -39.333 -12 -52c0 -11.333 3.16699 -19.833 9.5 -25.5s15.833 -10.5 28.5 -14.5l93 -27l2 -45c-94.667 2 -172 3 -232 3s-127 -1 -201 -3l-5 43l101 31
c25.333 8 44 20.333 56 37s25.333 42.667 40 78l511 1220zM434.999 607.999h412l-195 551zM694.999 1473c-65.333 0 -117.333 14.999 -156 44.999s-58 72.333 -58 127c0 57.333 21.833 103.5 65.5 138.5s96.5 52.5 158.5 52.5c61.333 0 112.333 -16.5 153 -49.5
s61 -76.5 61 -130.5c0 -55.333 -21 -99.666 -63 -132.999s-95.667 -50 -161 -50zM699.999 1531c32.667 0 59.3301 9.33203 79.9971 27.999s31 48.334 31 89.001s-10.167 72.5 -30.5 95.5s-47.166 34.5 -80.499 34.5s-60.166 -9.66699 -80.499 -29s-30.5 -49.333 -30.5 -90
s10.333 -72.167 31 -94.5s47.334 -33.5 80.001 -33.5zM279.995 1400z" />
    <glyph glyph-name="AE" unicode="&#xc6;" horiz-adv-x="1839" 
d="M786 1396h453.003c149.333 0 307 1.33301 473 4l6 -8l-58 -309l-40 -7l-62 231h-442v-570h71c69.333 0 146.666 0.666992 231.999 2c17.333 0.666992 28.666 9.33398 33.999 26.001l35 135l54 2c-2 -93.333 -3 -162.333 -3 -207c0 -43.333 1 -111.333 3 -204l-54 -4
l-36 137c-5.33301 17.333 -15.666 26.333 -30.999 27c-86.667 1.33301 -165 2 -235 2h-70v-344c0 -74 0.666992 -147 2 -219h460l122 254l45 8l-22 -348l-7 -7c-172.667 2 -332 3 -478 3h-218c-80.667 0 -163.334 -1 -248.001 -3l-4 43l123 37
c16.667 4.66699 25.667 15 27 31c0.666992 26.667 1.16699 56.5 1.5 89.5s0.5 69.5 0.5 109.5v346h-410l-202 -403c-13.333 -26 -25.5 -50.833 -36.5 -74.5s-16.5 -44.167 -16.5 -61.5c0 -10.667 2.83301 -19.834 8.5 -27.501s15.5 -13.5 29.5 -17.5l93 -27l2 -45
c-97.333 2 -177.333 3 -240 3c-30 -0 -63.333 -0.166992 -100 -0.5s-73.667 -1.16602 -111 -2.49902l-5 43l101 31c25.333 8 44.666 18.667 57.999 32s31 40.666 53 81.999l568 1091c8.66699 16.667 2.66699 28 -18 34l-154 47l-2 43c86 -2.66699 168.667 -4 248 -4z
M920.003 1307h-82l-286 -570h368v570z" />
    <glyph glyph-name="Ccedilla" unicode="&#xc7;" horiz-adv-x="1334" 
d="M643 -190l119.997 155.999c-198 11.333 -358.167 81.333 -480.5 210s-183.5 296.667 -183.5 504c0 228.667 72.667 409.667 218 543s335.333 200 570 200c112.667 0 228 -13.667 346 -41l7 -8l-62 -323l-40 -6l-73 263c-82.667 20.667 -157.667 31 -225 31
c-163.333 0 -291.666 -57 -384.999 -171s-140 -262 -140 -444c0 -194.667 53.333 -350 160 -466s254.334 -174 443.001 -174c106 0 217.667 20.333 335 61l11 -45c-123.333 -84.667 -261.666 -129.667 -414.999 -135l-55 -74c80 -29.333 120 -71.333 120 -126
c0 -73.333 -69.667 -157 -209 -251l-35 38c65.333 53.333 98 102.333 98 147c0 48.667 -40.333 83.334 -121 104.001z" />
    <glyph glyph-name="Egrave" unicode="&#xc8;" horiz-adv-x="1189" 
d="M346 1396h243.002c149.333 0 307 1.33301 473 4l6 -8l-58 -309l-40 -7l-62 231h-462v-550h91c69.333 0 146.666 0.666992 231.999 2c17.333 0.666992 28.666 9.33398 33.999 26.001l35 135l54 2c-2 -93.333 -3 -162.333 -3 -207c0 -43.333 1 -111.333 3 -204l-54 -4
l-36 137c-5.33301 17.333 -15.666 26.333 -30.999 27c-86.667 1.33301 -165 2 -235 2h-90v-364c0 -74 0.666992 -147 2 -219h480l122 254l45 8l-22 -348l-7 -7c-172.667 2 -332 3 -478 3h-238c-80.667 0 -163.334 -1 -248.001 -3l-4 43l123 37
c16.667 4.66699 25.667 15 27 31c0.666992 26.667 1.16699 56.5 1.5 89.5s0.5 69.5 0.5 109.5v811c0 34 -0.166992 64.667 -0.5 92s-0.833008 52 -1.5 74c-0.666992 17.333 -8.66699 28.666 -24 33.999l-124 39l-2 43c86 -2.66699 168.667 -4 248 -4zM367.002 1668l137 118
l326 -244l-26 -46l-437 157v15zM200.002 1400z" />
    <glyph glyph-name="Eacute" unicode="&#xc9;" horiz-adv-x="1189" 
d="M346 1396h243.002c149.333 0 307 1.33301 473 4l6 -8l-58 -309l-40 -7l-62 231h-462v-550h91c69.333 0 146.666 0.666992 231.999 2c17.333 0.666992 28.666 9.33398 33.999 26.001l35 135l54 2c-2 -93.333 -3 -162.333 -3 -207c0 -43.333 1 -111.333 3 -204l-54 -4
l-36 137c-5.33301 17.333 -15.666 26.333 -30.999 27c-86.667 1.33301 -165 2 -235 2h-90v-364c0 -74 0.666992 -147 2 -219h480l122 254l45 8l-22 -348l-7 -7c-172.667 2 -332 3 -478 3h-238c-80.667 0 -163.334 -1 -248.001 -3l-4 43l123 37
c16.667 4.66699 25.667 15 27 31c0.666992 26.667 1.16699 56.5 1.5 89.5s0.5 69.5 0.5 109.5v811c0 34 -0.166992 64.667 -0.5 92s-0.833008 52 -1.5 74c-0.666992 17.333 -8.66699 28.666 -24 33.999l-124 39l-2 43c86 -2.66699 168.667 -4 248 -4zM861.002 1653
l-436 -157l-27 46l326 244l137 -118v-15zM200.002 1400z" />
    <glyph glyph-name="Ecircumflex" unicode="&#xca;" horiz-adv-x="1189" 
d="M346 1396h243.002c149.333 0 307 1.33301 473 4l6 -8l-58 -309l-40 -7l-62 231h-462v-550h91c69.333 0 146.666 0.666992 231.999 2c17.333 0.666992 28.666 9.33398 33.999 26.001l35 135l54 2c-2 -93.333 -3 -162.333 -3 -207c0 -43.333 1 -111.333 3 -204l-54 -4
l-36 137c-5.33301 17.333 -15.666 26.333 -30.999 27c-86.667 1.33301 -165 2 -235 2h-90v-364c0 -74 0.666992 -147 2 -219h480l122 254l45 8l-22 -348l-7 -7c-172.667 2 -332 3 -478 3h-238c-80.667 0 -163.334 -1 -248.001 -3l-4 43l123 37
c16.667 4.66699 25.667 15 27 31c0.666992 26.667 1.16699 56.5 1.5 89.5s0.5 69.5 0.5 109.5v811c0 34 -0.166992 64.667 -0.5 92s-0.833008 52 -1.5 74c-0.666992 17.333 -8.66699 28.666 -24 33.999l-124 39l-2 43c86 -2.66699 168.667 -4 248 -4zM665.002 1770l286 -239
l-27 -46l-304 135l-305 -135l-26 46l286 239h90zM200.002 1400z" />
    <glyph glyph-name="Edieresis" unicode="&#xcb;" horiz-adv-x="1189" 
d="M346 1396h243.002c149.333 0 307 1.33301 473 4l6 -8l-58 -309l-40 -7l-62 231h-462v-550h91c69.333 0 146.666 0.666992 231.999 2c17.333 0.666992 28.666 9.33398 33.999 26.001l35 135l54 2c-2 -93.333 -3 -162.333 -3 -207c0 -43.333 1 -111.333 3 -204l-54 -4
l-36 137c-5.33301 17.333 -15.666 26.333 -30.999 27c-86.667 1.33301 -165 2 -235 2h-90v-364c0 -74 0.666992 -147 2 -219h480l122 254l45 8l-22 -348l-7 -7c-172.667 2 -332 3 -478 3h-238c-80.667 0 -163.334 -1 -248.001 -3l-4 43l123 37
c16.667 4.66699 25.667 15 27 31c0.666992 26.667 1.16699 56.5 1.5 89.5s0.5 69.5 0.5 109.5v811c0 34 -0.166992 64.667 -0.5 92s-0.833008 52 -1.5 74c-0.666992 17.333 -8.66699 28.666 -24 33.999l-124 39l-2 43c86 -2.66699 168.667 -4 248 -4zM520.002 1635
c0 -34.667 -10.5 -62.501 -31.5 -83.501s-48.167 -31.5 -81.5 -31.5c-31.333 0 -57 9.83301 -77 29.5s-30 45.5 -30 77.5c0 35.333 10.5 63 31.5 83s48.5 30 82.5 30c31.333 0 56.833 -9.16699 76.5 -27.5s29.5 -44.166 29.5 -77.499zM940.002 1635
c0 -34.667 -10.5 -62.501 -31.5 -83.501s-48.167 -31.5 -81.5 -31.5c-31.333 0 -57 9.83301 -77 29.5s-30 45.5 -30 77.5c0 35.333 10.5 63 31.5 83s48.5 30 82.5 30c31.333 0 56.833 -9.16699 76.5 -27.5s29.5 -44.166 29.5 -77.499zM200.002 1400z" />
    <glyph glyph-name="Igrave" unicode="&#xcc;" horiz-adv-x="696" 
d="M446 307c0 -40 0.166992 -76.3301 0.5 -108.997s0.833008 -62.334 1.5 -89.001c0.666992 -16.667 12.334 -28 35.001 -34l113 -35l2 -43c-86 2 -168.667 3 -248 3c-80.667 0 -163.334 -1 -248.001 -3l-4 43l123 37c16.667 4.66699 25.667 15 27 31
c0.666992 26.667 1.16699 56.5 1.5 89.5s0.5 69.5 0.5 109.5v811c0 34 -0.166992 64.667 -0.5 92s-0.833008 52 -1.5 74c-0.666992 17.333 -8.66699 28.666 -24 33.999l-124 39l-2 43c86 -2.66699 168.667 -4 248 -4c80 0 162.667 1.33301 248 4l4 -43l-124 -37
c-16 -4 -24.667 -14.333 -26 -31c-0.666992 -23.333 -1.16699 -48.833 -1.5 -76.5s-0.5 -57.834 -0.5 -90.501v-815zM97 1668l137 118l326 -244l-26 -46l-437 157v15zM-70 1400z" />
    <glyph glyph-name="Iacute" unicode="&#xcd;" horiz-adv-x="696" 
d="M446 307c0 -40 0.166992 -76.3301 0.5 -108.997s0.833008 -62.334 1.5 -89.001c0.666992 -16.667 12.334 -28 35.001 -34l113 -35l2 -43c-86 2 -168.667 3 -248 3c-80.667 0 -163.334 -1 -248.001 -3l-4 43l123 37c16.667 4.66699 25.667 15 27 31
c0.666992 26.667 1.16699 56.5 1.5 89.5s0.5 69.5 0.5 109.5v811c0 34 -0.166992 64.667 -0.5 92s-0.833008 52 -1.5 74c-0.666992 17.333 -8.66699 28.666 -24 33.999l-124 39l-2 43c86 -2.66699 168.667 -4 248 -4c80 0 162.667 1.33301 248 4l4 -43l-124 -37
c-16 -4 -24.667 -14.333 -26 -31c-0.666992 -23.333 -1.16699 -48.833 -1.5 -76.5s-0.5 -57.834 -0.5 -90.501v-815zM591 1653l-436 -157l-27 46l326 244l137 -118v-15zM-70 1400z" />
    <glyph glyph-name="Icircumflex" unicode="&#xce;" horiz-adv-x="696" 
d="M446 307c0 -40 0.166992 -76.3301 0.5 -108.997s0.833008 -62.334 1.5 -89.001c0.666992 -16.667 12.334 -28 35.001 -34l113 -35l2 -43c-86 2 -168.667 3 -248 3c-80.667 0 -163.334 -1 -248.001 -3l-4 43l123 37c16.667 4.66699 25.667 15 27 31
c0.666992 26.667 1.16699 56.5 1.5 89.5s0.5 69.5 0.5 109.5v811c0 34 -0.166992 64.667 -0.5 92s-0.833008 52 -1.5 74c-0.666992 17.333 -8.66699 28.666 -24 33.999l-124 39l-2 43c86 -2.66699 168.667 -4 248 -4c80 0 162.667 1.33301 248 4l4 -43l-124 -37
c-16 -4 -24.667 -14.333 -26 -31c-0.666992 -23.333 -1.16699 -48.833 -1.5 -76.5s-0.5 -57.834 -0.5 -90.501v-815zM395 1770l286 -239l-27 -46l-304 135l-305 -135l-26 46l286 239h90zM-70 1400z" />
    <glyph glyph-name="Idieresis" unicode="&#xcf;" horiz-adv-x="696" 
d="M446 307c0 -40 0.166992 -76.3301 0.5 -108.997s0.833008 -62.334 1.5 -89.001c0.666992 -16.667 12.334 -28 35.001 -34l113 -35l2 -43c-86 2 -168.667 3 -248 3c-80.667 0 -163.334 -1 -248.001 -3l-4 43l123 37c16.667 4.66699 25.667 15 27 31
c0.666992 26.667 1.16699 56.5 1.5 89.5s0.5 69.5 0.5 109.5v811c0 34 -0.166992 64.667 -0.5 92s-0.833008 52 -1.5 74c-0.666992 17.333 -8.66699 28.666 -24 33.999l-124 39l-2 43c86 -2.66699 168.667 -4 248 -4c80 0 162.667 1.33301 248 4l4 -43l-124 -37
c-16 -4 -24.667 -14.333 -26 -31c-0.666992 -23.333 -1.16699 -48.833 -1.5 -76.5s-0.5 -57.834 -0.5 -90.501v-815zM250 1635c0 -34.667 -10.5 -62.501 -31.5 -83.501s-48.167 -31.5 -81.5 -31.5c-31.333 0 -57 9.83301 -77 29.5s-30 45.5 -30 77.5
c0 35.333 10.5 63 31.5 83s48.5 30 82.5 30c31.333 0 56.833 -9.16699 76.5 -27.5s29.5 -44.166 29.5 -77.499zM670 1635c0 -34.667 -10.5 -62.501 -31.5 -83.501s-48.167 -31.5 -81.5 -31.5c-31.333 0 -57 9.83301 -77 29.5s-30 45.5 -30 77.5c0 35.333 10.5 63 31.5 83
s48.5 30 82.5 30c31.333 0 56.833 -9.16699 76.5 -27.5s29.5 -44.166 29.5 -77.499zM-70 1400z" />
    <glyph glyph-name="Eth" unicode="&#xd0;" horiz-adv-x="1538" 
d="M350 0c-80.667 0 -163.332 -0.999023 -247.999 -2.99902l-4 43l123 37c17.333 5.33301 26.333 15.666 27 30.999c0.666992 26.667 1.16699 56.5 1.5 89.5s0.5 69.5 0.5 109.5v385h-152v91h152v335c0 34 -0.166992 64.667 -0.5 92s-0.833008 52 -1.5 74
c-0.666992 17.333 -8.66699 28.666 -24 33.999l-124 39l-2 43c86 -2.66699 169.667 -4 251 -4c66.667 0 131 1.66699 193 5s125.667 5 191 5c233.333 0 408.666 -53.167 525.999 -159.5s176 -264.166 176 -473.499c0 -246.667 -65.167 -438.167 -195.5 -574.5
s-313.166 -204.5 -548.499 -204.5c-64.667 0 -122.334 1 -173.001 3s-106.667 3 -168 3zM778.002 692.001l-332.001 -0.000976562v-603c39.333 -5.33301 77.833 -8.83301 115.5 -10.5s75.5 -2.5 113.5 -2.5c176 0 310 51.833 402 155.5s138 262.5 138 476.5
c0 208 -43.667 362.167 -131 462.5s-225.666 150.5 -414.999 150.5c-30 0 -63.167 -0.666992 -99.5 -2s-77.5 -3.66602 -123.5 -6.99902v-529h332v-91z" />
    <glyph glyph-name="Ntilde" unicode="&#xd1;" horiz-adv-x="1534" 
d="M341 1115l0.000976562 -807.999c0 -78.667 0.666992 -144 2 -196c0.666992 -18.667 9 -30 25 -34l119 -35l2 -45c-83.333 2 -151.666 3 -204.999 3c-52 0 -121 -1 -207 -3l-4 43l123 37c17.333 5.33301 26.333 15.666 27 30.999c1.33301 54 2 120.333 2 199v811
c0 66.667 -0.666992 122 -2 166c-0.666992 17.333 -8.66699 28.666 -24 33.999l-124 39l-2 43c86 -2.66699 154 -4 204 -4c30 0 60.333 1.33301 91 4l840 -1049v771c0 64.667 -0.666992 120.334 -2 167.001c-0.666992 15.333 -9.33398 25.666 -26.001 30.999l-118 34l-2 46
c85.333 -2.66699 154.333 -4 207 -4c53.333 0 121.666 1.33301 204.999 4l4 -43l-126 -39c-15.333 -5.33301 -23.333 -16.666 -24 -33.999c-1.33301 -44 -2 -99.333 -2 -166v-1118l-84 -8zM1116 1724c-76 -132.667 -150.667 -199 -224 -199c-24 0 -46.5 4.83301 -67.5 14.5
s-44.167 22.167 -69.5 37.5l-59 32.5c-15.333 8.33301 -31.333 12.5 -48 12.5c-18.667 0 -36.167 -5.66699 -52.5 -17s-43.5 -37.666 -81.5 -78.999l-50 39c46 71.333 85.167 121.666 117.5 150.999s66.5 44 102.5 44c20.667 0 39.5 -3.33301 56.5 -10
s41.5 -19.334 73.5 -38.001l67.5 -36.5c15.667 -8.33301 32.167 -12.5 49.5 -12.5c20.667 0 38.5 5.33301 53.5 16s41.167 37.334 78.5 80.001zM360.001 1400z" />
    <glyph glyph-name="Ograve" unicode="&#xd2;" horiz-adv-x="1647" 
d="M319 717c0 -217.333 44.001 -383.833 132.001 -499.5s217 -173.5 387 -173.5c167.333 0 290.833 52.5 370.5 157.5s119.5 269.833 119.5 494.5c0 210.667 -42.333 372.667 -127 486s-215.334 170 -392.001 170c-171.333 0 -295.833 -52.5 -373.5 -157.5
s-116.5 -264.167 -116.5 -477.5zM1548 730c0 -230.667 -65.501 -416.167 -196.501 -556.5s-314.167 -210.5 -549.5 -210.5c-223.333 0 -396.166 64.833 -518.499 194.5s-183.5 305.167 -183.5 526.5c0 230.667 65.833 413.167 197.5 547.5s314.167 201.5 547.5 201.5
c224 0 397.167 -62.833 519.5 -188.5s183.5 -297.167 183.5 -514.5zM570 1668l137 118l326 -244l-26 -46l-437 157v15zM403 1400z" />
    <glyph glyph-name="Oacute" unicode="&#xd3;" horiz-adv-x="1647" 
d="M319 717c0 -217.333 44.001 -383.833 132.001 -499.5s217 -173.5 387 -173.5c167.333 0 290.833 52.5 370.5 157.5s119.5 269.833 119.5 494.5c0 210.667 -42.333 372.667 -127 486s-215.334 170 -392.001 170c-171.333 0 -295.833 -52.5 -373.5 -157.5
s-116.5 -264.167 -116.5 -477.5zM1548 730c0 -230.667 -65.501 -416.167 -196.501 -556.5s-314.167 -210.5 -549.5 -210.5c-223.333 0 -396.166 64.833 -518.499 194.5s-183.5 305.167 -183.5 526.5c0 230.667 65.833 413.167 197.5 547.5s314.167 201.5 547.5 201.5
c224 0 397.167 -62.833 519.5 -188.5s183.5 -297.167 183.5 -514.5zM1064 1653l-436 -157l-27 46l326 244l137 -118v-15zM403 1400z" />
    <glyph glyph-name="Ocircumflex" unicode="&#xd4;" horiz-adv-x="1647" 
d="M319 717c0 -217.333 44.001 -383.833 132.001 -499.5s217 -173.5 387 -173.5c167.333 0 290.833 52.5 370.5 157.5s119.5 269.833 119.5 494.5c0 210.667 -42.333 372.667 -127 486s-215.334 170 -392.001 170c-171.333 0 -295.833 -52.5 -373.5 -157.5
s-116.5 -264.167 -116.5 -477.5zM1548 730c0 -230.667 -65.501 -416.167 -196.501 -556.5s-314.167 -210.5 -549.5 -210.5c-223.333 0 -396.166 64.833 -518.499 194.5s-183.5 305.167 -183.5 526.5c0 230.667 65.833 413.167 197.5 547.5s314.167 201.5 547.5 201.5
c224 0 397.167 -62.833 519.5 -188.5s183.5 -297.167 183.5 -514.5zM868 1770l286 -239l-27 -46l-304 135l-305 -135l-26 46l286 239h90zM403 1400z" />
    <glyph glyph-name="Otilde" unicode="&#xd5;" horiz-adv-x="1647" 
d="M319 717c0 -217.333 44.001 -383.833 132.001 -499.5s217 -173.5 387 -173.5c167.333 0 290.833 52.5 370.5 157.5s119.5 269.833 119.5 494.5c0 210.667 -42.333 372.667 -127 486s-215.334 170 -392.001 170c-171.333 0 -295.833 -52.5 -373.5 -157.5
s-116.5 -264.167 -116.5 -477.5zM1548 730c0 -230.667 -65.501 -416.167 -196.501 -556.5s-314.167 -210.5 -549.5 -210.5c-223.333 0 -396.166 64.833 -518.499 194.5s-183.5 305.167 -183.5 526.5c0 230.667 65.833 413.167 197.5 547.5s314.167 201.5 547.5 201.5
c224 0 397.167 -62.833 519.5 -188.5s183.5 -297.167 183.5 -514.5zM1159 1724c-76 -132.667 -150.667 -199 -224 -199c-24 0 -46.5 4.83301 -67.5 14.5s-44.167 22.167 -69.5 37.5l-59 32.5c-15.333 8.33301 -31.333 12.5 -48 12.5c-18.667 0 -36.167 -5.66699 -52.5 -17
s-43.5 -37.666 -81.5 -78.999l-50 39c46 71.333 85.167 121.666 117.5 150.999s66.5 44 102.5 44c20.667 0 39.5 -3.33301 56.5 -10s41.5 -19.334 73.5 -38.001l67.5 -36.5c15.667 -8.33301 32.167 -12.5 49.5 -12.5c20.667 0 38.5 5.33301 53.5 16
s41.167 37.334 78.5 80.001zM403 1400z" />
    <glyph glyph-name="Odieresis" unicode="&#xd6;" horiz-adv-x="1647" 
d="M319 717c0 -217.333 44.001 -383.833 132.001 -499.5s217 -173.5 387 -173.5c167.333 0 290.833 52.5 370.5 157.5s119.5 269.833 119.5 494.5c0 210.667 -42.333 372.667 -127 486s-215.334 170 -392.001 170c-171.333 0 -295.833 -52.5 -373.5 -157.5
s-116.5 -264.167 -116.5 -477.5zM1548 730c0 -230.667 -65.501 -416.167 -196.501 -556.5s-314.167 -210.5 -549.5 -210.5c-223.333 0 -396.166 64.833 -518.499 194.5s-183.5 305.167 -183.5 526.5c0 230.667 65.833 413.167 197.5 547.5s314.167 201.5 547.5 201.5
c224 0 397.167 -62.833 519.5 -188.5s183.5 -297.167 183.5 -514.5zM723 1635c0 -34.667 -10.5 -62.501 -31.5 -83.501s-48.167 -31.5 -81.5 -31.5c-31.333 0 -57 9.83301 -77 29.5s-30 45.5 -30 77.5c0 35.333 10.5 63 31.5 83s48.5 30 82.5 30
c31.333 0 56.833 -9.16699 76.5 -27.5s29.5 -44.166 29.5 -77.499zM1143 1635c0 -34.667 -10.5 -62.501 -31.5 -83.501s-48.167 -31.5 -81.5 -31.5c-31.333 0 -57 9.83301 -77 29.5s-30 45.5 -30 77.5c0 35.333 10.5 63 31.5 83s48.5 30 82.5 30
c31.333 0 56.833 -9.16699 76.5 -27.5s29.5 -44.166 29.5 -77.499zM403 1400z" />
    <glyph glyph-name="multiply" unicode="&#xd7;" horiz-adv-x="1130" 
d="M194 918l371 -371l371 371l86 -85l-371 -372l370 -370l-85 -86l-371 371l-371 -371l-85 86l370 370l-371 372z" />
    <glyph glyph-name="Oslash" unicode="&#xd8;" horiz-adv-x="1647" 
d="M1548 730c0 -230.667 -65.5 -416.167 -196.5 -556.5s-314.167 -210.5 -549.5 -210.5c-166 0 -304.333 35.667 -415 107l-122 -160l-66 51l122 159c-147.333 132 -221 320 -221 564c0 230.667 65.833 413.167 197.5 547.5s314.167 201.5 547.5 201.5
c162 0 297.333 -33 406 -99l105 138l70 -46l-107 -140c152.667 -128.667 229 -314 229 -556zM838 44c167.333 0 290.833 52.501 370.5 157.501s119.5 269.833 119.5 494.5c0 195.333 -36.333 348.666 -109 459.999l-743 -970c87.333 -94.667 208 -142 362 -142zM319 717.001
c0 -194.667 35.333 -348.667 106 -462l740 968c-84 86 -202.667 129 -356 129c-171.333 0 -295.833 -52.5 -373.5 -157.5s-116.5 -264.167 -116.5 -477.5z" />
    <glyph glyph-name="Ugrave" unicode="&#xd9;" horiz-adv-x="1523" 
d="M63 1400c86 -2.66699 168.664 -3.99707 247.997 -3.99707c80 0 162.667 1.33301 248 4l4 -43l-124 -37c-16 -4 -24.667 -14.333 -26 -31c-0.666992 -23.333 -1.16699 -48.833 -1.5 -76.5s-0.5 -57.834 -0.5 -90.501v-547c0 -190.667 30.333 -322.834 91 -396.501
s158.334 -110.5 293.001 -110.5c136.667 0 235.667 38 297 114s92 203 92 381v559c0 32.667 -0.166992 62.834 -0.5 90.501s-1.16602 53.167 -2.49902 76.5c-0.666992 15.333 -9.33398 25.666 -26.001 30.999l-117 34l-2 46c84.667 -2.66699 157.334 -4 218.001 -4
c58 0 128.667 1.33301 212 4l4 -43l-126 -39c-15.333 -5.33301 -23.333 -16.666 -24 -33.999c-0.666992 -22 -1.16699 -46.667 -1.5 -74s-0.5 -58 -0.5 -92v-513c0 -218.667 -44.5 -380.334 -133.5 -485.001s-229.167 -157 -420.5 -157
c-187.333 0 -325.666 47.167 -414.999 141.5s-134 240.833 -134 439.5v574c0 34 -0.166992 64.667 -0.5 92s-0.833008 52 -1.5 74c-0.666992 17.333 -8.66699 28.666 -24 33.999l-124 39zM531.997 1668l137 118l326 -244l-26 -46l-437 157v15zM364.997 1400z" />
    <glyph glyph-name="Uacute" unicode="&#xda;" horiz-adv-x="1523" 
d="M63 1400c86 -2.66699 168.664 -3.99707 247.997 -3.99707c80 0 162.667 1.33301 248 4l4 -43l-124 -37c-16 -4 -24.667 -14.333 -26 -31c-0.666992 -23.333 -1.16699 -48.833 -1.5 -76.5s-0.5 -57.834 -0.5 -90.501v-547c0 -190.667 30.333 -322.834 91 -396.501
s158.334 -110.5 293.001 -110.5c136.667 0 235.667 38 297 114s92 203 92 381v559c0 32.667 -0.166992 62.834 -0.5 90.501s-1.16602 53.167 -2.49902 76.5c-0.666992 15.333 -9.33398 25.666 -26.001 30.999l-117 34l-2 46c84.667 -2.66699 157.334 -4 218.001 -4
c58 0 128.667 1.33301 212 4l4 -43l-126 -39c-15.333 -5.33301 -23.333 -16.666 -24 -33.999c-0.666992 -22 -1.16699 -46.667 -1.5 -74s-0.5 -58 -0.5 -92v-513c0 -218.667 -44.5 -380.334 -133.5 -485.001s-229.167 -157 -420.5 -157
c-187.333 0 -325.666 47.167 -414.999 141.5s-134 240.833 -134 439.5v574c0 34 -0.166992 64.667 -0.5 92s-0.833008 52 -1.5 74c-0.666992 17.333 -8.66699 28.666 -24 33.999l-124 39zM1026 1653l-436 -157l-27 46l326 244l137 -118v-15zM364.997 1400z" />
    <glyph glyph-name="Ucircumflex" unicode="&#xdb;" horiz-adv-x="1523" 
d="M63 1400c86 -2.66699 168.664 -3.99707 247.997 -3.99707c80 0 162.667 1.33301 248 4l4 -43l-124 -37c-16 -4 -24.667 -14.333 -26 -31c-0.666992 -23.333 -1.16699 -48.833 -1.5 -76.5s-0.5 -57.834 -0.5 -90.501v-547c0 -190.667 30.333 -322.834 91 -396.501
s158.334 -110.5 293.001 -110.5c136.667 0 235.667 38 297 114s92 203 92 381v559c0 32.667 -0.166992 62.834 -0.5 90.501s-1.16602 53.167 -2.49902 76.5c-0.666992 15.333 -9.33398 25.666 -26.001 30.999l-117 34l-2 46c84.667 -2.66699 157.334 -4 218.001 -4
c58 0 128.667 1.33301 212 4l4 -43l-126 -39c-15.333 -5.33301 -23.333 -16.666 -24 -33.999c-0.666992 -22 -1.16699 -46.667 -1.5 -74s-0.5 -58 -0.5 -92v-513c0 -218.667 -44.5 -380.334 -133.5 -485.001s-229.167 -157 -420.5 -157
c-187.333 0 -325.666 47.167 -414.999 141.5s-134 240.833 -134 439.5v574c0 34 -0.166992 64.667 -0.5 92s-0.833008 52 -1.5 74c-0.666992 17.333 -8.66699 28.666 -24 33.999l-124 39zM829.997 1770l286 -239l-27 -46l-304 135l-305 -135l-26 46l286 239h90z
M364.997 1400z" />
    <glyph glyph-name="Udieresis" unicode="&#xdc;" horiz-adv-x="1523" 
d="M63 1400c86 -2.66699 168.664 -3.99707 247.997 -3.99707c80 0 162.667 1.33301 248 4l4 -43l-124 -37c-16 -4 -24.667 -14.333 -26 -31c-0.666992 -23.333 -1.16699 -48.833 -1.5 -76.5s-0.5 -57.834 -0.5 -90.501v-547c0 -190.667 30.333 -322.834 91 -396.501
s158.334 -110.5 293.001 -110.5c136.667 0 235.667 38 297 114s92 203 92 381v559c0 32.667 -0.166992 62.834 -0.5 90.501s-1.16602 53.167 -2.49902 76.5c-0.666992 15.333 -9.33398 25.666 -26.001 30.999l-117 34l-2 46c84.667 -2.66699 157.334 -4 218.001 -4
c58 0 128.667 1.33301 212 4l4 -43l-126 -39c-15.333 -5.33301 -23.333 -16.666 -24 -33.999c-0.666992 -22 -1.16699 -46.667 -1.5 -74s-0.5 -58 -0.5 -92v-513c0 -218.667 -44.5 -380.334 -133.5 -485.001s-229.167 -157 -420.5 -157
c-187.333 0 -325.666 47.167 -414.999 141.5s-134 240.833 -134 439.5v574c0 34 -0.166992 64.667 -0.5 92s-0.833008 52 -1.5 74c-0.666992 17.333 -8.66699 28.666 -24 33.999l-124 39zM684.997 1635c0 -34.667 -10.5 -62.501 -31.5 -83.501s-48.167 -31.5 -81.5 -31.5
c-31.333 0 -57 9.83301 -77 29.5s-30 45.5 -30 77.5c0 35.333 10.5 63 31.5 83s48.5 30 82.5 30c31.333 0 56.833 -9.16699 76.5 -27.5s29.5 -44.166 29.5 -77.499zM1105 1635c0 -34.667 -10.5 -62.501 -31.5 -83.501s-48.167 -31.5 -81.5 -31.5
c-31.333 0 -57 9.83301 -77 29.5s-30 45.5 -30 77.5c0 35.333 10.5 63 31.5 83s48.5 30 82.5 30c31.333 0 56.833 -9.16699 76.5 -27.5s29.5 -44.166 29.5 -77.499zM364.997 1400z" />
    <glyph glyph-name="Yacute" unicode="&#xdd;" horiz-adv-x="1215" 
d="M668 712l231 436.998l42 82c11.333 22.667 17 41.334 17 56.001c0 20.667 -14.667 35 -44 43l-90 24l-2 46c72 -2.66699 145.667 -4 221 -4c72.667 0 143.334 1.33301 212.001 4l4 -43l-101 -32c-24 -7.33301 -42.5 -19 -55.5 -35s-26.167 -35.667 -39.5 -59l-346 -617
v-304c0 -40 0.166992 -76.333 0.5 -109s0.833008 -62.334 1.5 -89.001c0.666992 -16.667 12.334 -28 35.001 -34l124 -38l2 -43c-93.333 2 -179.333 3 -258 3c-80.667 0 -167 -1 -259 -3l-4 43l134 40c16.667 4.66699 25.667 15 27 31
c0.666992 26.667 1.16699 56.5 1.5 89.5s0.5 69.5 0.5 109.5v283l-352 610c-24.667 40.667 -44.834 70 -60.501 88s-36.5 30.667 -62.5 38l-91 28l-2 43c60.667 -2.66699 142.667 -4 246 -4c90 0 183 1.33301 279 4l4 -43l-94 -26c-14 -3.33301 -24 -8.16602 -30 -14.499
s-9 -14.166 -9 -23.499c0 -14 5.16699 -31.167 15.5 -51.5s23.166 -43.833 38.499 -70.5zM891 1653l-436 -157l-27 46l326 244l137 -118v-15zM230 1400z" />
    <glyph glyph-name="Thorn" unicode="&#xde;" horiz-adv-x="1198" 
d="M446 307c0.666992 -105.333 1.33398 -171.331 2.00098 -197.998c0.666992 -16.667 12.334 -28 35.001 -34l113 -35l2 -43c-86 2 -168.667 3 -248 3c-80.667 0 -163.334 -1 -248.001 -3l-4 43l123 37c16.667 4.66699 25.667 15 27 31
c0.666992 26.667 1.16699 56.5 1.5 89.5s0.5 69.5 0.5 109.5v811c0 34 -0.166992 64.667 -0.5 92s-0.833008 52 -1.5 74c-0.666992 17.333 -8.66699 28.666 -24 33.999l-124 39l-2 43c86 -2.66699 168.667 -4 248 -4c80 0 162.667 1.33301 248 4l4 -43l-124 -37
c-16 -4 -24.667 -14.333 -26 -31c-0.666992 -23.333 -1.33398 -49 -2.00098 -77v-68c64.667 4 119 6 163 6c173.333 0 302.333 -30.833 387 -92.5s127 -156.834 127 -285.501c0 -138.667 -46.5 -247.167 -139.5 -325.5s-222.833 -117.5 -389.5 -117.5
c-46 0 -95.333 3 -148 9v-31zM446 421.002c47.333 -8.66699 93.334 -12.998 138.001 -12.998c105.333 0 186.166 28.167 242.499 84.5s84.5 140.166 84.5 251.499c0 109.333 -26.5 190.666 -79.5 243.999s-136.5 80 -250.5 80c-35.333 0 -80.333 -3 -135 -9v-638z" />
    <glyph glyph-name="germandbls" unicode="&#xdf;" horiz-adv-x="1250" 
d="M201 924c0 182.667 40.9971 325.499 122.997 428.499s196.333 154.5 343 154.5c120 0 211.333 -34 274 -102s94 -168 94 -300c0 -36 -1.66699 -68 -5 -96c-104 -21.333 -181.667 -53 -233 -95s-77 -87.333 -77 -136c0 -22 5.83301 -42 17.5 -60
s27.334 -35.167 47.001 -51.5s42.167 -32 67.5 -47l79 -45.5l93.5 -56c31 -19.333 58.667 -40.666 83 -63.999s44.166 -49.5 59.499 -78.5s23 -61.833 23 -98.5c0 -97.333 -35.667 -172.5 -107 -225.5s-165.666 -79.5 -282.999 -79.5
c-101.333 0 -199.666 20.667 -294.999 62c20.667 70 38.334 150.667 53.001 242l43 7l70 -204c40 -14.667 84.667 -22 134 -22c64 0 114.167 12.667 150.5 38s54.5 63.333 54.5 114c0 26 -5.83301 49.167 -17.5 69.5s-27.167 39.166 -46.5 56.499s-41.5 33.333 -66.5 48
l-77.5 45c-28.667 16 -56.834 32.833 -84.501 50.5s-52.5 37.5 -74.5 59.5s-39.833 46.833 -53.5 74.5s-20.5 59.5 -20.5 95.5c0 67.333 26.333 130.833 79 190.5s124.667 105.5 216 137.5c2 20.667 3 41 3 61c0 96.667 -19.167 175.834 -57.5 237.501
s-92.5 92.5 -162.5 92.5c-91.333 0 -157.833 -35 -199.5 -105s-62.5 -184.667 -62.5 -344v-662c0 -107.333 0.666992 -213 2 -317c-29.333 0.666992 -60 1 -92 1c-66 0 -143.667 -1 -233 -3l-5 41l112 32c18.667 6 28.334 17 29.001 33c1.33301 41.333 2 85 2 131v589
l-136 34l-7 42l144 12v13z" />
    <glyph glyph-name="agrave" unicode="&#xe0;" horiz-adv-x="983" 
d="M617 453c-146 0 -245.667 -14.334 -299 -43.001s-80 -77 -80 -145c0 -63.333 17.667 -108.166 53 -134.499s83.333 -39.5 144 -39.5c68.667 0 128.667 11.667 180 35zM132 864.999c130 56.667 245.001 84.998 345.001 84.998c102 0 181.5 -26.667 238.5 -80
s85.167 -130.333 84.5 -231l-5 -416c-0.666992 -34 0.166016 -61.333 2.49902 -82s8.33301 -36.5 18 -47.5s24.167 -18.667 43.5 -23s45.333 -6.83301 78 -7.5l5 -39c-28.667 -11.333 -63.667 -22.666 -105 -33.999s-69.333 -17 -84 -17c-64.667 0 -109 33.333 -133 100
c-93.333 -67.333 -181.333 -101 -264 -101c-92.667 0 -167.167 22.833 -223.5 68.5s-84.5 110.167 -84.5 193.5c0 102.667 45.833 178.334 137.5 227.001s235.5 73 431.5 73l1 78c0.666992 74.667 -18.333 130 -57 166s-98 54 -178 54c-60.667 0 -136.667 -11.333 -228 -34z
M531.001 1044h-69l-237 373h200zM53.001 926.997z" />
    <glyph glyph-name="aacute" unicode="&#xe1;" horiz-adv-x="983" 
d="M617 453c-146 0 -245.667 -14.334 -299 -43.001s-80 -77 -80 -145c0 -63.333 17.667 -108.166 53 -134.499s83.333 -39.5 144 -39.5c68.667 0 128.667 11.667 180 35zM132 864.999c130 56.667 245.001 84.998 345.001 84.998c102 0 181.5 -26.667 238.5 -80
s85.167 -130.333 84.5 -231l-5 -416c-0.666992 -34 0.166016 -61.333 2.49902 -82s8.33301 -36.5 18 -47.5s24.167 -18.667 43.5 -23s45.333 -6.83301 78 -7.5l5 -39c-28.667 -11.333 -63.667 -22.666 -105 -33.999s-69.333 -17 -84 -17c-64.667 0 -109 33.333 -133 100
c-93.333 -67.333 -181.333 -101 -264 -101c-92.667 0 -167.167 22.833 -223.5 68.5s-84.5 110.167 -84.5 193.5c0 102.667 45.833 178.334 137.5 227.001s235.5 73 431.5 73l1 78c0.666992 74.667 -18.333 130 -57 166s-98 54 -178 54c-60.667 0 -136.667 -11.333 -228 -34z
M521.001 1417h200l-238 -373h-68zM53.001 927.997z" />
    <glyph glyph-name="acircumflex" unicode="&#xe2;" horiz-adv-x="983" 
d="M617 453c-146 0 -245.667 -14.334 -299 -43.001s-80 -77 -80 -145c0 -63.333 17.667 -108.166 53 -134.499s83.333 -39.5 144 -39.5c68.667 0 128.667 11.667 180 35zM132 864.999c130 56.667 245.001 84.998 345.001 84.998c102 0 181.5 -26.667 238.5 -80
s85.167 -130.333 84.5 -231l-5 -416c-0.666992 -34 0.166016 -61.333 2.49902 -82s8.33301 -36.5 18 -47.5s24.167 -18.667 43.5 -23s45.333 -6.83301 78 -7.5l5 -39c-28.667 -11.333 -63.667 -22.666 -105 -33.999s-69.333 -17 -84 -17c-64.667 0 -109 33.333 -133 100
c-93.333 -67.333 -181.333 -101 -264 -101c-92.667 0 -167.167 22.833 -223.5 68.5s-84.5 110.167 -84.5 193.5c0 102.667 45.833 178.334 137.5 227.001s235.5 73 431.5 73l1 78c0.666992 74.667 -18.333 130 -57 166s-98 54 -178 54c-60.667 0 -136.667 -11.333 -228 -34z
M763.001 1044h-76l-216 226l-216 -226h-72l216 373h147zM53.001 927.997z" />
    <glyph glyph-name="atilde" unicode="&#xe3;" horiz-adv-x="983" 
d="M617 453c-146 0 -245.667 -14.334 -299 -43.001s-80 -77 -80 -145c0 -63.333 17.667 -108.166 53 -134.499s83.333 -39.5 144 -39.5c68.667 0 128.667 11.667 180 35zM132 864.999c130 56.667 245.001 84.998 345.001 84.998c102 0 181.5 -26.667 238.5 -80
s85.167 -130.333 84.5 -231l-5 -416c-0.666992 -34 0.166016 -61.333 2.49902 -82s8.33301 -36.5 18 -47.5s24.167 -18.667 43.5 -23s45.333 -6.83301 78 -7.5l5 -39c-28.667 -11.333 -63.667 -22.666 -105 -33.999s-69.333 -17 -84 -17c-64.667 0 -109 33.333 -133 100
c-93.333 -67.333 -181.333 -101 -264 -101c-92.667 0 -167.167 22.833 -223.5 68.5s-84.5 110.167 -84.5 193.5c0 102.667 45.833 178.334 137.5 227.001s235.5 73 431.5 73l1 78c0.666992 74.667 -18.333 130 -57 166s-98 54 -178 54c-60.667 0 -136.667 -11.333 -228 -34z
M821.001 1322c-78.667 -138 -156 -207 -232 -207c-25.333 0 -48.833 5 -70.5 15s-45.5 23 -71.5 39l-61.5 34c-15.667 8.66699 -32.167 13 -49.5 13c-19.333 0 -37.5 -5.83301 -54.5 -17.5s-45.167 -39.167 -84.5 -82.5l-52 41c48 74 88.667 126.167 122 156.5
s68.666 45.5 105.999 45.5c21.333 0 40.833 -3.5 58.5 -10.5s43.167 -20.167 76.5 -39.5l69.5 -38c16.333 -8.66699 33.5 -13 51.5 -13c21.333 0 39.833 5.66699 55.5 17s42.834 39 81.501 83zM53.001 927.997z" />
    <glyph glyph-name="adieresis" unicode="&#xe4;" horiz-adv-x="983" 
d="M617 453c-146 0 -245.667 -14.334 -299 -43.001s-80 -77 -80 -145c0 -63.333 17.667 -108.166 53 -134.499s83.333 -39.5 144 -39.5c68.667 0 128.667 11.667 180 35zM132 864.999c130 56.667 245.001 84.998 345.001 84.998c102 0 181.5 -26.667 238.5 -80
s85.167 -130.333 84.5 -231l-5 -416c-0.666992 -34 0.166016 -61.333 2.49902 -82s8.33301 -36.5 18 -47.5s24.167 -18.667 43.5 -23s45.333 -6.83301 78 -7.5l5 -39c-28.667 -11.333 -63.667 -22.666 -105 -33.999s-69.333 -17 -84 -17c-64.667 0 -109 33.333 -133 100
c-93.333 -67.333 -181.333 -101 -264 -101c-92.667 0 -167.167 22.833 -223.5 68.5s-84.5 110.167 -84.5 193.5c0 102.667 45.833 178.334 137.5 227.001s235.5 73 431.5 73l1 78c0.666992 74.667 -18.333 130 -57 166s-98 54 -178 54c-60.667 0 -136.667 -11.333 -228 -34z
M391.001 1304c0 -34 -10.5 -61.501 -31.5 -82.501s-48.167 -31.5 -81.5 -31.5c-32 0 -57.833 9.66699 -77.5 29s-29.5 45.333 -29.5 78c0 34.667 10.5 62 31.5 82s48.5 30 82.5 30c31.333 0 56.833 -9.16699 76.5 -27.5s29.5 -44.166 29.5 -77.499zM775.001 1304
c0 -34 -10.5 -61.501 -31.5 -82.501s-48.167 -31.5 -81.5 -31.5c-31.333 0 -57 9.66699 -77 29s-30 45.333 -30 78c0 34.667 10.5 62 31.5 82s48.5 30 82.5 30c32 0 57.667 -9.16699 77 -27.5s29 -44.166 29 -77.499zM53.001 927.995z" />
    <glyph glyph-name="aring" unicode="&#xe5;" horiz-adv-x="983" 
d="M617 453c-146 0 -245.667 -14.334 -299 -43.001s-80 -77 -80 -145c0 -63.333 17.667 -108.166 53 -134.499s83.333 -39.5 144 -39.5c68.667 0 128.667 11.667 180 35zM132 864.999c130 56.667 245.001 84.998 345.001 84.998c102 0 181.5 -26.667 238.5 -80
s85.167 -130.333 84.5 -231l-5 -416c-0.666992 -34 0.166016 -61.333 2.49902 -82s8.33301 -36.5 18 -47.5s24.167 -18.667 43.5 -23s45.333 -6.83301 78 -7.5l5 -39c-28.667 -11.333 -63.667 -22.666 -105 -33.999s-69.333 -17 -84 -17c-64.667 0 -109 33.333 -133 100
c-93.333 -67.333 -181.333 -101 -264 -101c-92.667 0 -167.167 22.833 -223.5 68.5s-84.5 110.167 -84.5 193.5c0 102.667 45.833 178.334 137.5 227.001s235.5 73 431.5 73l1 78c0.666992 74.667 -18.333 130 -57 166s-98 54 -178 54c-60.667 0 -136.667 -11.333 -228 -34z
M468.001 1044c-66 0 -118.834 15.667 -158.501 47s-59.5 75.666 -59.5 132.999c0 60 22.333 108.333 67 145s98.334 55 161.001 55c62 0 113.833 -17.167 155.5 -51.5s62.5 -80.166 62.5 -137.499c0 -58 -21.5 -104.333 -64.5 -139s-97.5 -52 -163.5 -52zM473 1105
c33.333 0 60.5 9.66699 81.5 29s31.5 50.333 31.5 93c0 42 -10.333 75.167 -31 99.5s-48 36.5 -82 36.5s-61.333 -10.167 -82 -30.5s-31 -51.833 -31 -94.5c0 -42 10.5 -74.667 31.5 -98s48.167 -35 81.5 -35zM53 927.997z" />
    <glyph glyph-name="ae" unicode="&#xe6;" horiz-adv-x="1511" 
d="M132 865c130 56.667 245.001 84.9971 345.001 84.9971c129.333 0 221.666 -43.667 276.999 -131c79.333 87.333 185.666 131 318.999 131c116 0 206.333 -37.167 271 -111.5s97 -177.166 97 -308.499c0 -19.333 -1 -39.666 -3 -60.999h-634
c2.66699 -128 37 -222.167 103 -282.5s170.667 -90.5 314 -90.5c64 0 132.333 6 205 18l6 -43c-56 -35.333 -113.833 -60.666 -173.5 -75.999s-114.5 -23 -164.5 -23c-158 0 -280.667 47.667 -368 143c-135.333 -95.333 -258.666 -143 -369.999 -143
c-92.667 0 -167.167 23.5 -223.5 70.5s-84.5 113.833 -84.5 200.5c0 106 45.833 184 137.5 234s235.5 75 431.5 75l1 60c0.666992 74.667 -18.333 130 -57 166s-98 54 -178 54c-60.667 0 -136.667 -11.333 -228 -34zM615.001 468.997
c-145.333 0 -244.5 -14.833 -297.5 -44.5s-79.5 -80.167 -79.5 -151.5c0 -66.667 17.5 -113.667 52.5 -141s82.833 -41 143.5 -41c95.333 0 180 24.667 254 74c-48.667 80.667 -73 182 -73 304zM1242 551.997v49c0 100 -15.167 170.333 -45.5 211s-75.5 61 -135.5 61
c-79.333 0 -140.833 -29.5 -184.5 -88.5s-66.5 -136.5 -68.5 -232.5h434z" />
    <glyph glyph-name="ccedilla" unicode="&#xe7;" horiz-adv-x="945" 
d="M373 -189l126.003 162.998c-127.333 7.33301 -229.5 52.333 -306.5 135s-115.5 191.667 -115.5 327c0 152.667 47.667 276.5 143 371.5s218.666 142.5 369.999 142.5c98 0 193 -20 285 -60c-22 -89.333 -41.667 -180.666 -59 -273.999l-39 -6l-81 240
c-30.667 10.667 -65.334 16 -104.001 16c-99.333 0 -177 -34.667 -233 -104s-84 -161 -84 -275c0 -134 31.667 -233 95 -297s163.666 -96 300.999 -96c63.333 0 131 6.33301 203 19l6 -42c-90.667 -56.667 -188.667 -89 -294 -97l-62 -83c80 -29.333 120 -71.333 120 -126
c0 -73.333 -69.667 -157 -209 -251l-35 38c65.333 53.333 98 102.333 98 147c0 48.667 -40.333 83.334 -121 104.001z" />
    <glyph glyph-name="egrave" unicode="&#xe8;" horiz-adv-x="981" 
d="M902 71c-56.667 -35.333 -114.998 -60.668 -174.998 -76.001s-115.667 -23 -167 -23c-146.667 0 -263.667 41.833 -351 125.5s-131 199.834 -131 348.501c0 148 41.833 269 125.5 363s195.5 141 335.5 141c117.333 0 208.666 -35.167 273.999 -105.5s98 -167.5 98 -291.5
c0 -18.667 -1 -37.667 -3 -57h-634c0 -143.333 33.667 -245.833 101 -307.5s172.666 -92.5 315.999 -92.5c64 0 132.333 6 205 18zM712.002 578.998v29.998c0 94.667 -15.167 162.334 -45.5 203.001s-75.5 61 -135.5 61c-79.333 0 -140 -28.667 -182 -86
s-65.667 -126.666 -71 -207.999h434zM591.002 1044h-69l-237 373h200zM113.002 926.996z" />
    <glyph glyph-name="eacute" unicode="&#xe9;" horiz-adv-x="981" 
d="M902 71c-56.667 -35.333 -114.998 -60.668 -174.998 -76.001s-115.667 -23 -167 -23c-146.667 0 -263.667 41.833 -351 125.5s-131 199.834 -131 348.501c0 148 41.833 269 125.5 363s195.5 141 335.5 141c117.333 0 208.666 -35.167 273.999 -105.5s98 -167.5 98 -291.5
c0 -18.667 -1 -37.667 -3 -57h-634c0 -143.333 33.667 -245.833 101 -307.5s172.666 -92.5 315.999 -92.5c64 0 132.333 6 205 18zM712.002 578.998v29.998c0 94.667 -15.167 162.334 -45.5 203.001s-75.5 61 -135.5 61c-79.333 0 -140 -28.667 -182 -86
s-65.667 -126.666 -71 -207.999h434zM581.002 1417h200l-238 -373h-68zM113.002 927.996z" />
    <glyph glyph-name="ecircumflex" unicode="&#xea;" horiz-adv-x="981" 
d="M902 71c-56.667 -35.333 -114.998 -60.668 -174.998 -76.001s-115.667 -23 -167 -23c-146.667 0 -263.667 41.833 -351 125.5s-131 199.834 -131 348.501c0 148 41.833 269 125.5 363s195.5 141 335.5 141c117.333 0 208.666 -35.167 273.999 -105.5s98 -167.5 98 -291.5
c0 -18.667 -1 -37.667 -3 -57h-634c0 -143.333 33.667 -245.833 101 -307.5s172.666 -92.5 315.999 -92.5c64 0 132.333 6 205 18zM712.002 578.998v29.998c0 94.667 -15.167 162.334 -45.5 203.001s-75.5 61 -135.5 61c-79.333 0 -140 -28.667 -182 -86
s-65.667 -126.666 -71 -207.999h434zM823.002 1044h-76l-216 226l-216 -226h-72l216 373h147zM113.002 927.996z" />
    <glyph glyph-name="edieresis" unicode="&#xeb;" horiz-adv-x="981" 
d="M902 71c-56.667 -35.333 -114.998 -60.668 -174.998 -76.001s-115.667 -23 -167 -23c-146.667 0 -263.667 41.833 -351 125.5s-131 199.834 -131 348.501c0 148 41.833 269 125.5 363s195.5 141 335.5 141c117.333 0 208.666 -35.167 273.999 -105.5s98 -167.5 98 -291.5
c0 -18.667 -1 -37.667 -3 -57h-634c0 -143.333 33.667 -245.833 101 -307.5s172.666 -92.5 315.999 -92.5c64 0 132.333 6 205 18zM712.002 578.998v29.998c0 94.667 -15.167 162.334 -45.5 203.001s-75.5 61 -135.5 61c-79.333 0 -140 -28.667 -182 -86
s-65.667 -126.666 -71 -207.999h434zM451.002 1304c0 -34 -10.5 -61.501 -31.5 -82.501s-48.167 -31.5 -81.5 -31.5c-32 0 -57.833 9.66699 -77.5 29s-29.5 45.333 -29.5 78c0 34.667 10.5 62 31.5 82s48.5 30 82.5 30c31.333 0 56.833 -9.16699 76.5 -27.5
s29.5 -44.166 29.5 -77.499zM835.002 1304c0 -34 -10.5 -61.501 -31.5 -82.501s-48.167 -31.5 -81.5 -31.5c-31.333 0 -57 9.66699 -77 29s-30 45.333 -30 78c0 34.667 10.5 62 31.5 82s48.5 30 82.5 30c32 0 57.667 -9.16699 77 -27.5s29 -44.166 29 -77.499z
M113.002 927.994z" />
    <glyph glyph-name="igrave" unicode="&#xec;" horiz-adv-x="580" 
d="M58 880c116.667 22 224.669 45.334 324.002 70.001l9 -7c-4 -86.667 -6 -182 -6 -286v-384c0 -80 0.666992 -135.333 2 -166c1.33301 -18 9.66602 -29.667 24.999 -35l116 -34l2 -41c-92 2 -170.667 3 -236 3s-143 -1 -233 -3l-4 41l116 34
c15.333 5.33301 23.666 15.666 24.999 30.999c1.33301 26 2 69.667 2 131v334c0 87.333 -1.33301 168 -4 242l-133 36zM328.002 1044h-69l-237 373h200zM-149.998 927.001z" />
    <glyph glyph-name="iacute" unicode="&#xed;" horiz-adv-x="580" 
d="M58 880c116.667 22 224.669 45.334 324.002 70.001l9 -7c-4 -86.667 -6 -182 -6 -286v-384c0 -80 0.666992 -135.333 2 -166c1.33301 -18 9.66602 -29.667 24.999 -35l116 -34l2 -41c-92 2 -170.667 3 -236 3s-143 -1 -233 -3l-4 41l116 34
c15.333 5.33301 23.666 15.666 24.999 30.999c1.33301 26 2 69.667 2 131v334c0 87.333 -1.33301 168 -4 242l-133 36zM318.002 1417h200l-238 -373h-68zM-149.998 928.001z" />
    <glyph glyph-name="icircumflex" unicode="&#xee;" horiz-adv-x="580" 
d="M58 880c116.667 22 224.669 45.334 324.002 70.001l9 -7c-4 -86.667 -6 -182 -6 -286v-384c0 -80 0.666992 -135.333 2 -166c1.33301 -18 9.66602 -29.667 24.999 -35l116 -34l2 -41c-92 2 -170.667 3 -236 3s-143 -1 -233 -3l-4 41l116 34
c15.333 5.33301 23.666 15.666 24.999 30.999c1.33301 26 2 69.667 2 131v334c0 87.333 -1.33301 168 -4 242l-133 36zM560.002 1044h-76l-216 226l-216 -226h-72l216 373h147zM-149.998 928.001z" />
    <glyph glyph-name="idieresis" unicode="&#xef;" horiz-adv-x="580" 
d="M58 880c116.667 22 224.669 45.334 324.002 70.001l9 -7c-4 -86.667 -6 -182 -6 -286v-384c0 -80 0.666992 -135.333 2 -166c1.33301 -18 9.66602 -29.667 24.999 -35l116 -34l2 -41c-92 2 -170.667 3 -236 3s-143 -1 -233 -3l-4 41l116 34
c15.333 5.33301 23.666 15.666 24.999 30.999c1.33301 26 2 69.667 2 131v334c0 87.333 -1.33301 168 -4 242l-133 36zM188.002 1304c0 -34 -10.5 -61.501 -31.5 -82.501s-48.167 -31.5 -81.5 -31.5c-32 0 -57.833 9.66699 -77.5 29s-29.5 45.333 -29.5 78
c0 34.667 10.5 62 31.5 82s48.5 30 82.5 30c31.333 0 56.833 -9.16699 76.5 -27.5s29.5 -44.166 29.5 -77.499zM572.002 1304c0 -34 -10.5 -61.501 -31.5 -82.501s-48.167 -31.5 -81.5 -31.5c-31.333 0 -57 9.66699 -77 29s-30 45.333 -30 78c0 34.667 10.5 62 31.5 82
s48.5 30 82.5 30c32 0 57.667 -9.16699 77 -27.5s29 -44.166 29 -77.499zM-149.998 927.999z" />
    <glyph glyph-name="eth" unicode="&#xf0;" horiz-adv-x="1122" 
d="M264 1107l276.001 142.998c-92 84 -198.333 155.333 -319 214l1 12h252c78 -42 149.333 -91.667 214 -149l239 123l43 -65l-223 -115c188.667 -202 283 -439.333 283 -712c0 -179.333 -42.833 -321.833 -128.5 -427.5s-206.5 -158.5 -362.5 -158.5
c-136 0 -246.667 43.333 -332 130s-128 201.334 -128 344.001c0 140.667 42.167 257.834 126.5 351.501s193.166 140.5 326.499 140.5c112 0 201 -32.333 267 -97l6 3c-42 132 -110.667 247.667 -206 347l-293 -152zM833.001 499.998c0 116.667 -23.668 205.5 -71.001 266.5
s-111.666 91.5 -192.999 91.5c-92 0 -162.833 -33.667 -212.5 -101s-74.5 -161.333 -74.5 -282c0 -124.667 24.5 -226.667 73.5 -306s116.5 -119 202.5 -119c89.333 0 157.5 41 204.5 123s70.5 191 70.5 327z" />
    <glyph glyph-name="ntilde" unicode="&#xf1;" horiz-adv-x="1192" 
d="M58 880c112 21.333 217.663 44.667 316.996 70l10 -7v-116c116 82 224 123 324 123c94.667 0 168.834 -26.5 222.501 -79.5s80.5 -128.167 80.5 -225.5v-353c0 -83.333 0.666992 -145 2 -185c0.666992 -18 9.33398 -29.667 26.001 -35l111 -34l2 -41
c-88 2 -164.667 3 -230 3s-138 -1 -218 -3l-4 41l100 29c15.333 5.33301 23.666 15.666 24.999 30.999c0.666992 9.33301 1 30.333 1 63v436c0 82 -19.667 140.833 -59 176.5s-97.333 53.5 -174 53.5c-67.333 0 -137 -19.333 -209 -58v-437
c0 -83.333 0.666992 -159.666 2 -228.999c0.666992 -18 8.33398 -29.333 23.001 -34l104 -31l2 -41c-82.667 2 -156.667 3 -222 3s-142.666 -1 -231.999 -3l-4 41l118 34c14.667 6 22.334 16.333 23.001 31c0.666992 42.667 1 83.667 1 123v341
c0 87.333 -1.33301 168.333 -4 243l-133 36zM941.996 1322c-78.667 -138 -156 -207 -232 -207c-25.333 0 -48.833 5 -70.5 15s-45.5 23 -71.5 39l-61.5 34c-15.667 8.66699 -32.167 13 -49.5 13c-19.333 0 -37.5 -5.83301 -54.5 -17.5s-45.167 -39.167 -84.5 -82.5l-52 41
c48 74 88.667 126.167 122 156.5s68.666 45.5 105.999 45.5c21.333 0 40.833 -3.5 58.5 -10.5s43.167 -20.167 76.5 -39.5l69.5 -38c16.333 -8.66699 33.5 -13 51.5 -13c21.333 0 39.833 5.66699 55.5 17s42.834 39 81.501 83zM173.996 928.001z" />
    <glyph glyph-name="ograve" unicode="&#xf2;" horiz-adv-x="1107" 
d="M281 472c0 -124.667 23.333 -226.166 70 -304.499s116 -117.5 208 -117.5c86 0 151.5 34.5 196.5 103.5s67.5 171.167 67.5 306.5c0 127.333 -23.667 227.666 -71 300.999s-116 110 -206 110c-85.333 0 -150.833 -33 -196.5 -99s-68.5 -166 -68.5 -300zM1027 481.001
c0 -152 -45.834 -274.833 -137.501 -368.5s-208.167 -140.5 -349.5 -140.5c-138 0 -249.5 44.167 -334.5 132.5s-127.5 203.833 -127.5 346.5c0 146.667 44.5 266.5 133.5 359.5s206.833 139.5 353.5 139.5c138.667 0 250.334 -42.833 335.001 -128.5
s127 -199.167 127 -340.5zM612.999 1044h-69l-237 373h200zM134.999 927.001z" />
    <glyph glyph-name="oacute" unicode="&#xf3;" horiz-adv-x="1107" 
d="M281 472c0 -124.667 23.333 -226.166 70 -304.499s116 -117.5 208 -117.5c86 0 151.5 34.5 196.5 103.5s67.5 171.167 67.5 306.5c0 127.333 -23.667 227.666 -71 300.999s-116 110 -206 110c-85.333 0 -150.833 -33 -196.5 -99s-68.5 -166 -68.5 -300zM1027 481.001
c0 -152 -45.834 -274.833 -137.501 -368.5s-208.167 -140.5 -349.5 -140.5c-138 0 -249.5 44.167 -334.5 132.5s-127.5 203.833 -127.5 346.5c0 146.667 44.5 266.5 133.5 359.5s206.833 139.5 353.5 139.5c138.667 0 250.334 -42.833 335.001 -128.5
s127 -199.167 127 -340.5zM602.999 1417h200l-238 -373h-68zM134.999 928.001z" />
    <glyph glyph-name="ocircumflex" unicode="&#xf4;" horiz-adv-x="1107" 
d="M281 472c0 -124.667 23.333 -226.166 70 -304.499s116 -117.5 208 -117.5c86 0 151.5 34.5 196.5 103.5s67.5 171.167 67.5 306.5c0 127.333 -23.667 227.666 -71 300.999s-116 110 -206 110c-85.333 0 -150.833 -33 -196.5 -99s-68.5 -166 -68.5 -300zM1027 481.001
c0 -152 -45.834 -274.833 -137.501 -368.5s-208.167 -140.5 -349.5 -140.5c-138 0 -249.5 44.167 -334.5 132.5s-127.5 203.833 -127.5 346.5c0 146.667 44.5 266.5 133.5 359.5s206.833 139.5 353.5 139.5c138.667 0 250.334 -42.833 335.001 -128.5
s127 -199.167 127 -340.5zM844.999 1044h-76l-216 226l-216 -226h-72l216 373h147zM134.999 928.001z" />
    <glyph glyph-name="otilde" unicode="&#xf5;" horiz-adv-x="1107" 
d="M281 472c0 -124.667 23.333 -226.166 70 -304.499s116 -117.5 208 -117.5c86 0 151.5 34.5 196.5 103.5s67.5 171.167 67.5 306.5c0 127.333 -23.667 227.666 -71 300.999s-116 110 -206 110c-85.333 0 -150.833 -33 -196.5 -99s-68.5 -166 -68.5 -300zM1027 481.001
c0 -152 -45.834 -274.833 -137.501 -368.5s-208.167 -140.5 -349.5 -140.5c-138 0 -249.5 44.167 -334.5 132.5s-127.5 203.833 -127.5 346.5c0 146.667 44.5 266.5 133.5 359.5s206.833 139.5 353.5 139.5c138.667 0 250.334 -42.833 335.001 -128.5
s127 -199.167 127 -340.5zM902.999 1322c-78.667 -138 -156 -207 -232 -207c-25.333 0 -48.833 5 -70.5 15s-45.5 23 -71.5 39l-61.5 34c-15.667 8.66699 -32.167 13 -49.5 13c-19.333 0 -37.5 -5.83301 -54.5 -17.5s-45.167 -39.167 -84.5 -82.5l-52 41
c48 74 88.667 126.167 122 156.5s68.666 45.5 105.999 45.5c21.333 0 40.833 -3.5 58.5 -10.5s43.167 -20.167 76.5 -39.5l69.5 -38c16.333 -8.66699 33.5 -13 51.5 -13c21.333 0 39.833 5.66699 55.5 17s42.834 39 81.501 83zM134.999 928.001z" />
    <glyph glyph-name="odieresis" unicode="&#xf6;" horiz-adv-x="1107" 
d="M281 472c0 -124.667 23.333 -226.166 70 -304.499s116 -117.5 208 -117.5c86 0 151.5 34.5 196.5 103.5s67.5 171.167 67.5 306.5c0 127.333 -23.667 227.666 -71 300.999s-116 110 -206 110c-85.333 0 -150.833 -33 -196.5 -99s-68.5 -166 -68.5 -300zM1027 481.001
c0 -152 -45.834 -274.833 -137.501 -368.5s-208.167 -140.5 -349.5 -140.5c-138 0 -249.5 44.167 -334.5 132.5s-127.5 203.833 -127.5 346.5c0 146.667 44.5 266.5 133.5 359.5s206.833 139.5 353.5 139.5c138.667 0 250.334 -42.833 335.001 -128.5
s127 -199.167 127 -340.5zM472.999 1304c0 -34 -10.5 -61.501 -31.5 -82.501s-48.167 -31.5 -81.5 -31.5c-32 0 -57.833 9.66699 -77.5 29s-29.5 45.333 -29.5 78c0 34.667 10.5 62 31.5 82s48.5 30 82.5 30c31.333 0 56.833 -9.16699 76.5 -27.5s29.5 -44.166 29.5 -77.499
zM856.999 1304c0 -34 -10.5 -61.501 -31.5 -82.501s-48.167 -31.5 -81.5 -31.5c-31.333 0 -57 9.66699 -77 29s-30 45.333 -30 78c0 34.667 10.5 62 31.5 82s48.5 30 82.5 30c32 0 57.667 -9.16699 77 -27.5s29 -44.166 29 -77.499zM134.999 927.999z" />
    <glyph glyph-name="divide" unicode="&#xf7;" horiz-adv-x="1130" 
d="M566 904c33.333 0 60.833 -10.5 82.5 -31.5s32.5 -48.5 32.5 -82.5s-10.833 -61.667 -32.5 -83s-49.167 -32 -82.5 -32c-34.667 0 -62.667 10.667 -84 32s-32 49 -32 83s10.667 61.5 32 82.5s49.333 31.5 84 31.5zM566 258c33.333 0 60.833 -10.5 82.5 -31.5
s32.5 -48.5 32.5 -82.5s-10.833 -61.667 -32.5 -83s-49.167 -32 -82.5 -32c-34.667 0 -62.667 10.667 -84 32s-32 49 -32 83s10.667 61.5 32 82.5s49.333 31.5 84 31.5zM93 522h944v-121h-944v121z" />
    <glyph glyph-name="oslash" unicode="&#xf8;" horiz-adv-x="1107" 
d="M1027 481c0 -152 -45.833 -274.836 -137.5 -368.503s-208.167 -140.5 -349.5 -140.5c-100.667 0 -187 23 -259 69l-85 -112l-63 43l88 116l-16 16c-84.667 88.667 -127 204.334 -127 347.001c0 146.667 44.5 266.5 133.5 359.5s206.833 139.5 353.5 139.5
c100 0 186 -22.333 258 -67l84 111l62 -44l-86 -113c5.33301 -5.33301 11 -10.666 17 -15.999c84.667 -85.333 127 -198.666 127 -339.999zM558 46.9971c87.333 0 153.667 34.833 199 104.5s68 172.5 68 308.5c0 97.333 -14 179.333 -42 246l-422 -559
c46 -66.667 111.667 -100 197 -100zM279.001 471.997c0 -98 14.001 -182 42.001 -252l422 558c-46.667 64.667 -112.334 97 -197.001 97c-86 0 -152 -33.333 -198 -100s-69 -167.667 -69 -303z" />
    <glyph glyph-name="ugrave" unicode="&#xf9;" horiz-adv-x="1166" 
d="M796 88c-104 -77.333 -207.998 -115.996 -311.998 -115.996c-104.667 0 -183.167 26.667 -235.5 80s-78.5 128.333 -78.5 225v212c0 142.667 -1.33301 249.667 -4 321l-133 36l-5 34c116.667 21.333 224.667 44.666 324 69.999l9 -7c-4 -78 -6 -178.333 -6 -301v-318
c0 -80.667 19 -139.167 57 -175.5s91.667 -54.5 161 -54.5s140.333 18.333 213 55v426c0 93.333 -1.33301 171.666 -4 234.999l-132 36l-5 34c116 21.333 223.667 44.666 323 69.999l9 -7c-4 -80 -6 -182.333 -6 -307c0 -242 0.666992 -389.667 2 -443
c0.666992 -27.333 2.66699 -49.333 6 -66s9.66602 -29.5 18.999 -38.5s23.166 -15.333 41.499 -19s42.833 -5.83398 73.5 -6.50098l5 -39c-30.667 -12 -66 -23.5 -106 -34.5s-67.333 -16.5 -82 -16.5c-67.333 0 -112 38.333 -134 115zM618.002 1044h-69l-237 373h200z
M140.002 927.004z" />
    <glyph glyph-name="uacute" unicode="&#xfa;" horiz-adv-x="1166" 
d="M796 88c-104 -77.333 -207.998 -115.996 -311.998 -115.996c-104.667 0 -183.167 26.667 -235.5 80s-78.5 128.333 -78.5 225v212c0 142.667 -1.33301 249.667 -4 321l-133 36l-5 34c116.667 21.333 224.667 44.666 324 69.999l9 -7c-4 -78 -6 -178.333 -6 -301v-318
c0 -80.667 19 -139.167 57 -175.5s91.667 -54.5 161 -54.5s140.333 18.333 213 55v426c0 93.333 -1.33301 171.666 -4 234.999l-132 36l-5 34c116 21.333 223.667 44.666 323 69.999l9 -7c-4 -80 -6 -182.333 -6 -307c0 -242 0.666992 -389.667 2 -443
c0.666992 -27.333 2.66699 -49.333 6 -66s9.66602 -29.5 18.999 -38.5s23.166 -15.333 41.499 -19s42.833 -5.83398 73.5 -6.50098l5 -39c-30.667 -12 -66 -23.5 -106 -34.5s-67.333 -16.5 -82 -16.5c-67.333 0 -112 38.333 -134 115zM608.002 1417h200l-238 -373h-68z
M140.002 928.004z" />
    <glyph glyph-name="ucircumflex" unicode="&#xfb;" horiz-adv-x="1166" 
d="M796 88c-104 -77.333 -207.998 -115.996 -311.998 -115.996c-104.667 0 -183.167 26.667 -235.5 80s-78.5 128.333 -78.5 225v212c0 142.667 -1.33301 249.667 -4 321l-133 36l-5 34c116.667 21.333 224.667 44.666 324 69.999l9 -7c-4 -78 -6 -178.333 -6 -301v-318
c0 -80.667 19 -139.167 57 -175.5s91.667 -54.5 161 -54.5s140.333 18.333 213 55v426c0 93.333 -1.33301 171.666 -4 234.999l-132 36l-5 34c116 21.333 223.667 44.666 323 69.999l9 -7c-4 -80 -6 -182.333 -6 -307c0 -242 0.666992 -389.667 2 -443
c0.666992 -27.333 2.66699 -49.333 6 -66s9.66602 -29.5 18.999 -38.5s23.166 -15.333 41.499 -19s42.833 -5.83398 73.5 -6.50098l5 -39c-30.667 -12 -66 -23.5 -106 -34.5s-67.333 -16.5 -82 -16.5c-67.333 0 -112 38.333 -134 115zM850.002 1044h-76l-216 226l-216 -226
h-72l216 373h147zM140.002 928.004z" />
    <glyph glyph-name="udieresis" unicode="&#xfc;" horiz-adv-x="1166" 
d="M796 88c-104 -77.333 -207.998 -115.996 -311.998 -115.996c-104.667 0 -183.167 26.667 -235.5 80s-78.5 128.333 -78.5 225v212c0 142.667 -1.33301 249.667 -4 321l-133 36l-5 34c116.667 21.333 224.667 44.666 324 69.999l9 -7c-4 -78 -6 -178.333 -6 -301v-318
c0 -80.667 19 -139.167 57 -175.5s91.667 -54.5 161 -54.5s140.333 18.333 213 55v426c0 93.333 -1.33301 171.666 -4 234.999l-132 36l-5 34c116 21.333 223.667 44.666 323 69.999l9 -7c-4 -80 -6 -182.333 -6 -307c0 -242 0.666992 -389.667 2 -443
c0.666992 -27.333 2.66699 -49.333 6 -66s9.66602 -29.5 18.999 -38.5s23.166 -15.333 41.499 -19s42.833 -5.83398 73.5 -6.50098l5 -39c-30.667 -12 -66 -23.5 -106 -34.5s-67.333 -16.5 -82 -16.5c-67.333 0 -112 38.333 -134 115zM478.002 1304
c0 -34 -10.5 -61.501 -31.5 -82.501s-48.167 -31.5 -81.5 -31.5c-32 0 -57.833 9.66699 -77.5 29s-29.5 45.333 -29.5 78c0 34.667 10.5 62 31.5 82s48.5 30 82.5 30c31.333 0 56.833 -9.16699 76.5 -27.5s29.5 -44.166 29.5 -77.499zM862.002 1304
c0 -34 -10.5 -61.501 -31.5 -82.501s-48.167 -31.5 -81.5 -31.5c-31.333 0 -57 9.66699 -77 29s-30 45.333 -30 78c0 34.667 10.5 62 31.5 82s48.5 30 82.5 30c32 0 57.667 -9.16699 77 -27.5s29 -44.166 29 -77.499zM140.002 928.002z" />
    <glyph glyph-name="yacute" unicode="&#xfd;" horiz-adv-x="986" 
d="M-30 927c84 -2 158.668 -2.99902 224.001 -2.99902c44.667 0 116 1 214 3l4 -41l-117 -32c24.667 -70 53.334 -147.167 86.001 -231.5l104 -263.5c15.333 -38 32 -81.667 50 -131c18.667 50 38.667 101 60 153l91 228.5l91 244.5l-114 32l-4 41c49.333 -2 107 -3 173 -3
c59.333 0 117 1 173 3l5 -41l-93 -26c-20.667 -6.66699 -35.667 -20.334 -45 -41.001l-80 -186c-88 -206.667 -154.667 -376 -200 -508c-30.667 -89.333 -58.334 -180.833 -83.001 -274.5s-43.667 -174.167 -57 -241.5c-6 -32.667 -18.167 -57.5 -36.5 -74.5
s-61.166 -25.5 -128.499 -25.5c-68.667 0 -135.334 2.33301 -200.001 7l-5 39c73.333 11.333 127.666 35 162.999 71c42.667 46 108.667 168.333 198 367l8 19l-14 4l-331 802c-8.66699 20 -24 33.667 -46 41l-88 27zM558.001 1417h200l-238 -373h-68zM90.001 928.001z" />
    <glyph glyph-name="thorn" unicode="&#xfe;" horiz-adv-x="1141" 
d="M360 1048l-0.000976562 -203.001c102 70 200.667 105 296 105c123.333 0 221.666 -41.5 294.999 -124.5s110 -190.833 110 -323.5c0 -163.333 -47.167 -292.5 -141.5 -387.5s-227.5 -142.5 -399.5 -142.5c-52 0 -105.333 5 -160 15v-219
c0 -66.667 0.666992 -113.334 2 -140.001c1.33301 -20 10.333 -32 27 -36l131 -37l2 -41c-103.333 2 -187.666 3 -252.999 3s-142.666 -1 -231.999 -3l-4 41l114 34c16.667 4.66699 25.334 15 26.001 31c1.33301 48.667 2 122.334 2 221.001v1109
c0 147.333 -1.33301 285 -4 413l-135 40l-5 33c109.333 20.667 217.666 44.334 324.999 71.001l10 -8c-4 -100 -6 -250.333 -6 -451zM359.999 76.999c58 -12.667 114 -18.999 168 -18.999c110 0 193 34.667 249 104s84 168.666 84 297.999c0 122 -26.5 214 -79.5 276
s-129.5 93 -229.5 93c-72 0 -136 -14.667 -192 -44v-708z" />
    <glyph glyph-name="ydieresis" unicode="&#xff;" horiz-adv-x="986" 
d="M-30 927c84 -2 158.668 -2.99902 224.001 -2.99902c44.667 0 116 1 214 3l4 -41l-117 -32c24.667 -70 53.334 -147.167 86.001 -231.5l104 -263.5c15.333 -38 32 -81.667 50 -131c18.667 50 38.667 101 60 153l91 228.5l91 244.5l-114 32l-4 41c49.333 -2 107 -3 173 -3
c59.333 0 117 1 173 3l5 -41l-93 -26c-20.667 -6.66699 -35.667 -20.334 -45 -41.001l-80 -186c-88 -206.667 -154.667 -376 -200 -508c-30.667 -89.333 -58.334 -180.833 -83.001 -274.5s-43.667 -174.167 -57 -241.5c-6 -32.667 -18.167 -57.5 -36.5 -74.5
s-61.166 -25.5 -128.499 -25.5c-68.667 0 -135.334 2.33301 -200.001 7l-5 39c73.333 11.333 127.666 35 162.999 71c42.667 46 108.667 168.333 198 367l8 19l-14 4l-331 802c-8.66699 20 -24 33.667 -46 41l-88 27zM428.001 1304c0 -34 -10.5 -61.501 -31.5 -82.501
s-48.167 -31.5 -81.5 -31.5c-32 0 -57.833 9.66699 -77.5 29s-29.5 45.333 -29.5 78c0 34.667 10.5 62 31.5 82s48.5 30 82.5 30c31.333 0 56.833 -9.16699 76.5 -27.5s29.5 -44.166 29.5 -77.499zM812.001 1304c0 -34 -10.5 -61.501 -31.5 -82.501
s-48.167 -31.5 -81.5 -31.5c-31.333 0 -57 9.66699 -77 29s-30 45.333 -30 78c0 34.667 10.5 62 31.5 82s48.5 30 82.5 30c32 0 57.667 -9.16699 77 -27.5s29 -44.166 29 -77.499zM90.001 927.999z" />
    <glyph glyph-name="Amacron" unicode="&#x100;" horiz-adv-x="1381" 
d="M754 1421l443.999 -1223c16.667 -46 31.834 -77.167 45.501 -93.5s33.167 -28.5 58.5 -36.5l94 -28l2 -43c-87.333 2 -168.333 3 -243 3c-76 0 -165.667 -1 -269 -3l-4 43l95 28c13.333 4.66699 22.833 9.83398 28.5 15.501s8.5 14.5 8.5 26.5
c0 13.333 -3.5 30.833 -10.5 52.5s-16.833 50.5 -29.5 86.5l-94 268h-482l-105 -267l-33 -89c-8 -22 -12 -39.333 -12 -52c0 -11.333 3.16699 -19.833 9.5 -25.5s15.833 -10.5 28.5 -14.5l93 -27l2 -45c-94.667 2 -172 3 -232 3s-127 -1 -201 -3l-5 43l101 31
c25.333 8 44 20.333 56 37s25.333 42.667 40 78l511 1220zM434.999 607.999h412l-195 551zM439.999 1557v109h519v-109h-519zM279.999 1400z" />
    <glyph glyph-name="amacron" unicode="&#x101;" horiz-adv-x="983" 
d="M617 453c-146 0 -245.667 -14.334 -299 -43.001s-80 -77 -80 -145c0 -63.333 17.667 -108.166 53 -134.499s83.333 -39.5 144 -39.5c68.667 0 128.667 11.667 180 35zM132 864.999c130 56.667 245.001 84.998 345.001 84.998c102 0 181.5 -26.667 238.5 -80
s85.167 -130.333 84.5 -231l-5 -416c-0.666992 -34 0.166016 -61.333 2.49902 -82s8.33301 -36.5 18 -47.5s24.167 -18.667 43.5 -23s45.333 -6.83301 78 -7.5l5 -39c-28.667 -11.333 -63.667 -22.666 -105 -33.999s-69.333 -17 -84 -17c-64.667 0 -109 33.333 -133 100
c-93.333 -67.333 -181.333 -101 -264 -101c-92.667 0 -167.167 22.833 -223.5 68.5s-84.5 110.167 -84.5 193.5c0 102.667 45.833 178.334 137.5 227.001s235.5 73 431.5 73l1 78c0.666992 74.667 -18.333 130 -57 166s-98 54 -178 54c-60.667 0 -136.667 -11.333 -228 -34z
M202.001 1190v109h541v-109h-541zM53.001 927.997z" />
    <glyph glyph-name="Abreve" unicode="&#x102;" horiz-adv-x="1381" 
d="M754 1421l443.999 -1223c16.667 -46 31.834 -77.167 45.501 -93.5s33.167 -28.5 58.5 -36.5l94 -28l2 -43c-87.333 2 -168.333 3 -243 3c-76 0 -165.667 -1 -269 -3l-4 43l95 28c13.333 4.66699 22.833 9.83398 28.5 15.501s8.5 14.5 8.5 26.5
c0 13.333 -3.5 30.833 -10.5 52.5s-16.833 50.5 -29.5 86.5l-94 268h-482l-105 -267l-33 -89c-8 -22 -12 -39.333 -12 -52c0 -11.333 3.16699 -19.833 9.5 -25.5s15.833 -10.5 28.5 -14.5l93 -27l2 -45c-94.667 2 -172 3 -232 3s-127 -1 -201 -3l-5 43l101 31
c25.333 8 44 20.333 56 37s25.333 42.667 40 78l511 1220zM434.999 607.999h412l-195 551zM483.999 1813c10 -52.667 34.001 -94.5 72.001 -125.5s87 -46.5 147 -46.5c60.667 0 109.5 15.167 146.5 45.5s62.5 69.833 76.5 118.5l64 7
c0 -86.667 -25.833 -159.167 -77.5 -217.5s-123.834 -87.5 -216.501 -87.5c-86.667 0 -154.667 26.5 -204 79.5s-74 126.167 -74 219.5zM280 1400z" />
    <glyph glyph-name="abreve" unicode="&#x103;" horiz-adv-x="983" 
d="M617 453c-146 0 -245.667 -14.334 -299 -43.001s-80 -77 -80 -145c0 -63.333 17.667 -108.166 53 -134.499s83.333 -39.5 144 -39.5c68.667 0 128.667 11.667 180 35zM132 864.999c130 56.667 245.001 84.998 345.001 84.998c102 0 181.5 -26.667 238.5 -80
s85.167 -130.333 84.5 -231l-5 -416c-0.666992 -34 0.166016 -61.333 2.49902 -82s8.33301 -36.5 18 -47.5s24.167 -18.667 43.5 -23s45.333 -6.83301 78 -7.5l5 -39c-28.667 -11.333 -63.667 -22.666 -105 -33.999s-69.333 -17 -84 -17c-64.667 0 -109 33.333 -133 100
c-93.333 -67.333 -181.333 -101 -264 -101c-92.667 0 -167.167 22.833 -223.5 68.5s-84.5 110.167 -84.5 193.5c0 102.667 45.833 178.334 137.5 227.001s235.5 73 431.5 73l1 78c0.666992 74.667 -18.333 130 -57 166s-98 54 -178 54c-60.667 0 -136.667 -11.333 -228 -34z
M268.001 1395c9.33301 -65.333 32 -115.333 68 -150s82.333 -52 139 -52c57.333 0 103.5 17 138.5 51s59.167 81.667 72.5 143l66 7c0 -98 -24.833 -178.333 -74.5 -241s-119.5 -94 -209.5 -94c-84 0 -149.667 28.167 -197 84.5s-71 137.5 -71 243.5zM53.001 927.997z" />
    <glyph glyph-name="Aogonek" unicode="&#x104;" horiz-adv-x="1381" 
d="M1108 0c-62.667 0 -111.834 -19.667 -147.501 -59s-53.5 -88.666 -53.5 -147.999c0 -62 18.833 -109.833 56.5 -143.5s90.167 -50.5 157.5 -50.5c10.667 0 25.667 0.666992 45 2l5 -39c-93.333 -34.667 -163.333 -52 -210 -52c-68 0 -122 19.667 -162 59
s-60 90.666 -60 153.999c0 132 80 244.333 240 337c24.667 14.667 37 30 37 46c0 13.333 -3.5 30.833 -10.5 52.5l-28.5 86.5l-97 272h-482l-105 -267l-33 -89c-8 -22 -12 -39.333 -12 -52c0 -11.333 3.16699 -19.833 9.5 -25.5s15.833 -10.5 28.5 -14.5l93 -27l2 -45
c-94.667 2 -172 3 -232 3s-127 -1 -201 -3l-5 43l101 31c25.333 8 44 20.333 56 37s25.333 42.667 40 78l511 1220l103 15l444 -1223c16.667 -46 31.834 -77.167 45.501 -93.5s33.167 -28.5 58.5 -36.5l94 -28l2 -43c-87.333 2 -168.333 3 -243 3h-47zM435 608h412l-195 551
z" />
    <glyph glyph-name="aogonek" unicode="&#x105;" horiz-adv-x="983" 
d="M942 -438c-94.667 -34.667 -164.667 -52.002 -210 -52.002c-66 0 -119 18.833 -159 56.5s-60 86.834 -60 147.501c0 104.667 57.667 196 173 274c-28 18 -50 46.333 -66 85c-93.333 -67.333 -181.333 -101 -264 -101c-92 0 -166.667 22.667 -224 68
c-56 46 -84 110.667 -84 194c0 102.667 45.833 178.334 137.5 227.001s235.5 73 431.5 73l1 78c0.666992 74.667 -18.166 130 -56.499 166s-97.833 54 -178.5 54c-30 0 -64 -2.83301 -102 -8.5s-80 -14.167 -126 -25.5l-23 67c130 56.667 245 85 345 85
c51.333 0 97.166 -6.83301 137.499 -20.5s74.333 -33.5 102 -59.5s48.667 -58.333 63 -97s21.5 -83.334 21.5 -134.001l-6 -416c-0.666992 -34 0.333008 -61.333 3 -82s8.66699 -36.5 18 -47.5s23.666 -18.667 42.999 -23s45.333 -6.83301 78 -7.5l5 -39
c-50.667 -18.667 -105.667 -34.667 -165 -48c-26 -9.33301 -48.833 -31.666 -68.5 -66.999s-29.5 -75.333 -29.5 -120c0 -57.333 18.333 -103.333 55 -138s89.667 -52 159 -52c12.667 0 27.334 0.666992 44.001 2zM617 452.998c-146 0 -245.667 -14.668 -299 -44.001
c-53.333 -28 -80 -76 -80 -144c0 -63.333 17.667 -108.166 53 -134.499s83.333 -39.5 144 -39.5c68 0 128 11.667 180 35z" />
    <glyph glyph-name="Cacute" unicode="&#x106;" horiz-adv-x="1334" 
d="M1178 1051l-40.002 -6l-73 263c-82.667 20.667 -157.667 31 -225 31c-163.333 0 -291.666 -57 -384.999 -171s-140 -262 -140 -444c0 -194.667 53.333 -350 160 -466s254.334 -174 443.001 -174c106 0 217.667 20.333 335 61l11 -45
c-131.333 -90.667 -280 -136 -446 -136c-215.333 0 -389 65.667 -521 197s-198 304.333 -198 519c0 228.667 72.667 409.667 218 543s335.333 200 570 200c112.667 0 228 -13.667 346 -41l7 -8zM1081 1653l-436 -157l-27 46l326 244l137 -118v-15zM419.998 1400z" />
    <glyph glyph-name="cacute" unicode="&#x107;" horiz-adv-x="945" 
d="M880 71c-41.333 -28 -92.4971 -51.501 -153.497 -70.501s-121.5 -28.5 -181.5 -28.5c-144 0 -258 42.167 -342 126.5s-126 196.833 -126 337.5c0 152.667 47.667 276.5 143 371.5s218.666 142.5 369.999 142.5c98 0 193 -20 285 -60
c-22 -89.333 -41.667 -180.666 -59 -273.999l-39 -6l-81 240c-30.667 10.667 -65.334 16 -104.001 16c-99.333 0 -177 -34.667 -233 -104s-84 -161 -84 -275c0 -134 31.667 -233 95 -297s163.666 -96 300.999 -96c63.333 0 131 6.33301 203 19zM612.003 1417h200l-238 -373
h-68zM144.003 927.999z" />
    <glyph glyph-name="Ccircumflex" unicode="&#x108;" horiz-adv-x="1334" 
d="M1178 1051l-40.002 -6l-73 263c-82.667 20.667 -157.667 31 -225 31c-163.333 0 -291.666 -57 -384.999 -171s-140 -262 -140 -444c0 -194.667 53.333 -350 160 -466s254.334 -174 443.001 -174c106 0 217.667 20.333 335 61l11 -45
c-131.333 -90.667 -280 -136 -446 -136c-215.333 0 -389 65.667 -521 197s-198 304.333 -198 519c0 228.667 72.667 409.667 218 543s335.333 200 570 200c112.667 0 228 -13.667 346 -41l7 -8zM884.998 1770l286 -239l-27 -46l-304 135l-305 -135l-26 46l286 239h90z
M419.998 1400z" />
    <glyph glyph-name="ccircumflex" unicode="&#x109;" horiz-adv-x="945" 
d="M880 71c-41.333 -28 -92.4971 -51.501 -153.497 -70.501s-121.5 -28.5 -181.5 -28.5c-144 0 -258 42.167 -342 126.5s-126 196.833 -126 337.5c0 152.667 47.667 276.5 143 371.5s218.666 142.5 369.999 142.5c98 0 193 -20 285 -60
c-22 -89.333 -41.667 -180.666 -59 -273.999l-39 -6l-81 240c-30.667 10.667 -65.334 16 -104.001 16c-99.333 0 -177 -34.667 -233 -104s-84 -161 -84 -275c0 -134 31.667 -233 95 -297s163.666 -96 300.999 -96c63.333 0 131 6.33301 203 19zM854.003 1044h-76l-216 226
l-216 -226h-72l216 373h147zM144.003 927.999z" />
    <glyph glyph-name="Cdotaccent" unicode="&#x10a;" horiz-adv-x="1334" 
d="M1178 1051l-40.002 -6l-73 263c-82.667 20.667 -157.667 31 -225 31c-163.333 0 -291.666 -57 -384.999 -171s-140 -262 -140 -444c0 -194.667 53.333 -350 160 -466s254.334 -174 443.001 -174c106 0 217.667 20.333 335 61l11 -45
c-131.333 -90.667 -280 -136 -446 -136c-215.333 0 -389 65.667 -521 197s-198 304.333 -198 519c0 228.667 72.667 409.667 218 543s335.333 200 570 200c112.667 0 228 -13.667 346 -41l7 -8zM952.998 1638c0 -35.333 -10.834 -63.833 -32.501 -85.5
s-49.5 -32.5 -83.5 -32.5c-32 0 -58.333 10.167 -79 30.5s-31 46.833 -31 79.5c0 36 10.833 64.333 32.5 85s49.834 31 84.501 31c32 0 58.167 -9.5 78.5 -28.5s30.5 -45.5 30.5 -79.5zM419.997 1400z" />
    <glyph glyph-name="cdotaccent" unicode="&#x10b;" horiz-adv-x="945" 
d="M880 71c-41.333 -28 -92.4971 -51.501 -153.497 -70.501s-121.5 -28.5 -181.5 -28.5c-144 0 -258 42.167 -342 126.5s-126 196.833 -126 337.5c0 152.667 47.667 276.5 143 371.5s218.666 142.5 369.999 142.5c98 0 193 -20 285 -60
c-22 -89.333 -41.667 -180.666 -59 -273.999l-39 -6l-81 240c-30.667 10.667 -65.334 16 -104.001 16c-99.333 0 -177 -34.667 -233 -104s-84 -161 -84 -275c0 -134 31.667 -233 95 -297s163.666 -96 300.999 -96c63.333 0 131 6.33301 203 19zM679.003 1304
c0 -35.333 -10.998 -64.167 -32.998 -86.5s-50.333 -33.5 -85 -33.5c-33.333 0 -60.5 10.333 -81.5 31s-31.5 48 -31.5 82c0 36 11.167 64.5 33.5 85.5s51.166 31.5 86.499 31.5c33.333 0 60.166 -9.5 80.499 -28.5s30.5 -46.167 30.5 -81.5zM144.005 927.998z" />
    <glyph glyph-name="Ccaron" unicode="&#x10c;" horiz-adv-x="1334" 
d="M1178 1051l-40.002 -6l-73 263c-82.667 20.667 -157.667 31 -225 31c-163.333 0 -291.666 -57 -384.999 -171s-140 -262 -140 -444c0 -194.667 53.333 -350 160 -466s254.334 -174 443.001 -174c106 0 217.667 20.333 335 61l11 -45
c-131.333 -90.667 -280 -136 -446 -136c-215.333 0 -389 65.667 -521 197s-198 304.333 -198 519c0 228.667 72.667 409.667 218 543s335.333 200 570 200c112.667 0 228 -13.667 346 -41l7 -8zM794.998 1498l-286 238l26 46l305 -134l304 134l27 -46l-286 -238h-90z
M419.998 1400z" />
    <glyph glyph-name="ccaron" unicode="&#x10d;" horiz-adv-x="945" 
d="M880 71c-41.333 -28 -92.4971 -51.501 -153.497 -70.501s-121.5 -28.5 -181.5 -28.5c-144 0 -258 42.167 -342 126.5s-126 196.833 -126 337.5c0 152.667 47.667 276.5 143 371.5s218.666 142.5 369.999 142.5c98 0 193 -20 285 -60
c-22 -89.333 -41.667 -180.666 -59 -273.999l-39 -6l-81 240c-30.667 10.667 -65.334 16 -104.001 16c-99.333 0 -177 -34.667 -233 -104s-84 -161 -84 -275c0 -134 31.667 -233 95 -297s163.666 -96 300.999 -96c63.333 0 131 6.33301 203 19zM274.003 1417h76l216 -226
l216 226h72l-217 -373h-147zM144.003 927.999z" />
    <glyph glyph-name="Dcaron" unicode="&#x10e;" horiz-adv-x="1538" 
d="M350 0c-80.667 0 -163.332 -0.999023 -247.999 -2.99902l-4 43l123 37c17.333 5.33301 26.333 15.666 27 30.999c0.666992 26.667 1.16699 56.5 1.5 89.5s0.5 69.5 0.5 109.5v811c0 34 -0.166992 64.667 -0.5 92s-0.833008 52 -1.5 74
c-0.666992 17.333 -8.66699 28.666 -24 33.999l-124 39l-2 43c86 -2.66699 169.667 -4 251 -4c66.667 0 131 1.66699 193 5s125.667 5 191 5c233.333 0 408.666 -53.167 525.999 -159.5s176 -264.166 176 -473.499c0 -246.667 -65.167 -438.167 -195.5 -574.5
s-313.166 -204.5 -548.499 -204.5c-64.667 0 -122.334 1 -173.001 3s-106.667 3 -168 3zM446.002 89.001c39.333 -5.33301 77.832 -8.83398 115.499 -10.501s75.5 -2.5 113.5 -2.5c176 0 310 51.833 402 155.5s138 262.5 138 476.5c0 208 -43.667 362.167 -131 462.5
s-225.666 150.5 -414.999 150.5c-30 0 -63.167 -0.666992 -99.5 -2s-77.5 -3.66602 -123.5 -6.99902v-1223zM680.001 1498l-286 238l26 46l305 -134l304 134l27 -46l-286 -238h-90zM305.001 1400z" />
    <glyph glyph-name="dcaron" unicode="&#x10f;" horiz-adv-x="1281" 
d="M777 840c-44.667 14 -94.666 21 -149.999 21c-114.667 0 -202 -32.5 -262 -97.5s-90 -163.5 -90 -295.5c0 -114 26.667 -205.167 80 -273.5s128.666 -102.5 225.999 -102.5c62.667 0 128 17.333 196 52v696zM633.001 1436c118.667 22.667 227.333 46.333 326 71l9 -8
c-4 -142.667 -6 -296 -6 -460v-544c0 -92 0.333008 -183 1 -273c0 -34 1.16699 -61.333 3.5 -82s8.16602 -36.5 17.499 -47.5s23.166 -18.5 41.499 -22.5s44.166 -6.33301 77.499 -7l5 -39c-29.333 -11.333 -64.5 -22.666 -105.5 -33.999s-68.833 -17 -83.5 -17
c-67.333 0 -112.666 38 -135.999 114c-103.333 -76.667 -203.666 -115 -300.999 -115c-123.333 0 -221.833 43.833 -295.5 131.5s-110.5 195.5 -110.5 323.5c0 165.333 49 293.333 147 384s235 136 411 136c42.667 0 90.334 -4.66699 143.001 -14
c0 147.333 -1.33301 290.666 -4 429.999l-135 40zM1075 1034c63.333 67.333 94.998 133.333 94.998 198c0 56.667 -31.667 102 -95 136c0 33.333 10.5 59.666 31.5 78.999s48.167 29 81.5 29c36.667 0 66.334 -13.167 89.001 -39.5s34 -63.166 34 -110.499
c0 -56 -16.667 -112 -50 -168s-83.666 -110 -150.999 -162zM1162 927.999z" />
    <glyph glyph-name="Dcroat" unicode="&#x110;" horiz-adv-x="1538" 
d="M350 0c-80.667 0 -163.332 -0.999023 -247.999 -2.99902l-4 43l123 37c17.333 5.33301 26.333 15.666 27 30.999c0.666992 26.667 1.16699 56.5 1.5 89.5s0.5 69.5 0.5 109.5v385h-152v91h152v335c0 34 -0.166992 64.667 -0.5 92s-0.833008 52 -1.5 74
c-0.666992 17.333 -8.66699 28.666 -24 33.999l-124 39l-2 43c86 -2.66699 169.667 -4 251 -4c66.667 0 131 1.66699 193 5s125.667 5 191 5c233.333 0 408.666 -53.167 525.999 -159.5s176 -264.166 176 -473.499c0 -246.667 -65.167 -438.167 -195.5 -574.5
s-313.166 -204.5 -548.499 -204.5c-64.667 0 -122.334 1 -173.001 3s-106.667 3 -168 3zM778.002 692.001l-332.001 -0.000976562v-603c39.333 -5.33301 77.833 -8.83301 115.5 -10.5s75.5 -2.5 113.5 -2.5c176 0 310 51.833 402 155.5s138 262.5 138 476.5
c0 208 -43.667 362.167 -131 462.5s-225.666 150.5 -414.999 150.5c-30 0 -63.167 -0.666992 -99.5 -2s-77.5 -3.66602 -123.5 -6.99902v-529h332v-91z" />
    <glyph glyph-name="dcroat" unicode="&#x111;" horiz-adv-x="1162" 
d="M1115 1114l-153.001 -0.00195312v-619c0 -92 0.333008 -183 1 -273c0 -34 1.16699 -61.333 3.5 -82s8.16602 -36.5 17.499 -47.5s23.166 -18.5 41.499 -22.5s44.166 -6.33301 77.499 -7l5 -39c-29.333 -11.333 -64.5 -22.666 -105.5 -33.999s-68.833 -17 -83.5 -17
c-67.333 0 -112.666 38 -135.999 114c-103.333 -76.667 -203.666 -115 -300.999 -115c-123.333 0 -221.833 43 -295.5 129s-110.5 191.667 -110.5 317c0 161.333 49 286.333 147 375s235 133 411 133c42.667 0 90.334 -4.66699 143.001 -14v202h-356v81h356
c-0.666992 58.667 -2 114.667 -4 168l-135 40l-5 33c118.667 22.667 227.334 46.334 326.001 71.001l9 -8c-3.33301 -102.667 -5.33301 -204 -6 -304h153v-81zM776.999 819.998c-44.667 13.333 -94.666 20.001 -149.999 20.001c-114.667 0 -202 -31.667 -262 -95
s-90 -159 -90 -287c0 -110.667 26.667 -199.334 80 -266.001s128.666 -100 225.999 -100c62.667 0 128 17.333 196 52v676z" />
    <glyph glyph-name="Emacron" unicode="&#x112;" horiz-adv-x="1189" 
d="M346 1396h243.002c149.333 0 307 1.33301 473 4l6 -8l-58 -309l-40 -7l-62 231h-462v-550h91c69.333 0 146.666 0.666992 231.999 2c17.333 0.666992 28.666 9.33398 33.999 26.001l35 135l54 2c-2 -93.333 -3 -162.333 -3 -207c0 -43.333 1 -111.333 3 -204l-54 -4
l-36 137c-5.33301 17.333 -15.666 26.333 -30.999 27c-86.667 1.33301 -165 2 -235 2h-90v-364c0 -74 0.666992 -147 2 -219h480l122 254l45 8l-22 -348l-7 -7c-172.667 2 -332 3 -478 3h-238c-80.667 0 -163.334 -1 -248.001 -3l-4 43l123 37
c16.667 4.66699 25.667 15 27 31c0.666992 26.667 1.16699 56.5 1.5 89.5s0.5 69.5 0.5 109.5v811c0 34 -0.166992 64.667 -0.5 92s-0.833008 52 -1.5 74c-0.666992 17.333 -8.66699 28.666 -24 33.999l-124 39l-2 43c86 -2.66699 168.667 -4 248 -4zM360.002 1557v109h519
v-109h-519zM200.002 1400z" />
    <glyph glyph-name="emacron" unicode="&#x113;" horiz-adv-x="981" 
d="M902 71c-56.667 -35.333 -114.998 -60.668 -174.998 -76.001s-115.667 -23 -167 -23c-146.667 0 -263.667 41.833 -351 125.5s-131 199.834 -131 348.501c0 148 41.833 269 125.5 363s195.5 141 335.5 141c117.333 0 208.666 -35.167 273.999 -105.5s98 -167.5 98 -291.5
c0 -18.667 -1 -37.667 -3 -57h-634c0 -143.333 33.667 -245.833 101 -307.5s172.666 -92.5 315.999 -92.5c64 0 132.333 6 205 18zM712.002 578.998v29.998c0 94.667 -15.167 162.334 -45.5 203.001s-75.5 61 -135.5 61c-79.333 0 -140 -28.667 -182 -86
s-65.667 -126.666 -71 -207.999h434zM262.002 1190v109h541v-109h-541zM113.002 927.996z" />
    <glyph glyph-name="Ebreve" unicode="&#x114;" horiz-adv-x="1189" 
d="M346 1396h243.002c149.333 0 307 1.33301 473 4l6 -8l-58 -309l-40 -7l-62 231h-462v-550h91c69.333 0 146.666 0.666992 231.999 2c17.333 0.666992 28.666 9.33398 33.999 26.001l35 135l54 2c-2 -93.333 -3 -162.333 -3 -207c0 -43.333 1 -111.333 3 -204l-54 -4
l-36 137c-5.33301 17.333 -15.666 26.333 -30.999 27c-86.667 1.33301 -165 2 -235 2h-90v-364c0 -74 0.666992 -147 2 -219h480l122 254l45 8l-22 -348l-7 -7c-172.667 2 -332 3 -478 3h-238c-80.667 0 -163.334 -1 -248.001 -3l-4 43l123 37
c16.667 4.66699 25.667 15 27 31c0.666992 26.667 1.16699 56.5 1.5 89.5s0.5 69.5 0.5 109.5v811c0 34 -0.166992 64.667 -0.5 92s-0.833008 52 -1.5 74c-0.666992 17.333 -8.66699 28.666 -24 33.999l-124 39l-2 43c86 -2.66699 168.667 -4 248 -4zM404.002 1813
c10 -52.667 34.001 -94.5 72.001 -125.5s87 -46.5 147 -46.5c60.667 0 109.5 15.167 146.5 45.5s62.5 69.833 76.5 118.5l64 7c0 -86.667 -25.833 -159.167 -77.5 -217.5s-123.834 -87.5 -216.501 -87.5c-86.667 0 -154.667 26.5 -204 79.5s-74 126.167 -74 219.5z
M200.003 1400z" />
    <glyph glyph-name="ebreve" unicode="&#x115;" horiz-adv-x="981" 
d="M902 71c-56.667 -35.333 -114.998 -60.668 -174.998 -76.001s-115.667 -23 -167 -23c-146.667 0 -263.667 41.833 -351 125.5s-131 199.834 -131 348.501c0 148 41.833 269 125.5 363s195.5 141 335.5 141c117.333 0 208.666 -35.167 273.999 -105.5s98 -167.5 98 -291.5
c0 -18.667 -1 -37.667 -3 -57h-634c0 -143.333 33.667 -245.833 101 -307.5s172.666 -92.5 315.999 -92.5c64 0 132.333 6 205 18zM712.002 578.998v29.998c0 94.667 -15.167 162.334 -45.5 203.001s-75.5 61 -135.5 61c-79.333 0 -140 -28.667 -182 -86
s-65.667 -126.666 -71 -207.999h434zM328.002 1395c9.33301 -65.333 32 -115.333 68 -150s82.333 -52 139 -52c57.333 0 103.5 17 138.5 51s59.167 81.667 72.5 143l66 7c0 -98 -24.833 -178.333 -74.5 -241s-119.5 -94 -209.5 -94c-84 0 -149.667 28.167 -197 84.5
s-71 137.5 -71 243.5zM113.002 927.996z" />
    <glyph glyph-name="Edotaccent" unicode="&#x116;" horiz-adv-x="1189" 
d="M346 1396h243.002c149.333 0 307 1.33301 473 4l6 -8l-58 -309l-40 -7l-62 231h-462v-550h91c69.333 0 146.666 0.666992 231.999 2c17.333 0.666992 28.666 9.33398 33.999 26.001l35 135l54 2c-2 -93.333 -3 -162.333 -3 -207c0 -43.333 1 -111.333 3 -204l-54 -4
l-36 137c-5.33301 17.333 -15.666 26.333 -30.999 27c-86.667 1.33301 -165 2 -235 2h-90v-364c0 -74 0.666992 -147 2 -219h480l122 254l45 8l-22 -348l-7 -7c-172.667 2 -332 3 -478 3h-238c-80.667 0 -163.334 -1 -248.001 -3l-4 43l123 37
c16.667 4.66699 25.667 15 27 31c0.666992 26.667 1.16699 56.5 1.5 89.5s0.5 69.5 0.5 109.5v811c0 34 -0.166992 64.667 -0.5 92s-0.833008 52 -1.5 74c-0.666992 17.333 -8.66699 28.666 -24 33.999l-124 39l-2 43c86 -2.66699 168.667 -4 248 -4zM733.002 1638
c0 -35.333 -10.834 -63.833 -32.501 -85.5s-49.5 -32.5 -83.5 -32.5c-32 0 -58.333 10.167 -79 30.5s-31 46.833 -31 79.5c0 36 10.833 64.333 32.5 85s49.834 31 84.501 31c32 0 58.167 -9.5 78.5 -28.5s30.5 -45.5 30.5 -79.5zM200.001 1400z" />
    <glyph glyph-name="edotaccent" unicode="&#x117;" horiz-adv-x="981" 
d="M902 71c-56.667 -35.333 -114.998 -60.668 -174.998 -76.001s-115.667 -23 -167 -23c-146.667 0 -263.667 41.833 -351 125.5s-131 199.834 -131 348.501c0 148 41.833 269 125.5 363s195.5 141 335.5 141c117.333 0 208.666 -35.167 273.999 -105.5s98 -167.5 98 -291.5
c0 -18.667 -1 -37.667 -3 -57h-634c0 -143.333 33.667 -245.833 101 -307.5s172.666 -92.5 315.999 -92.5c64 0 132.333 6 205 18zM712.002 578.998v29.998c0 94.667 -15.167 162.334 -45.5 203.001s-75.5 61 -135.5 61c-79.333 0 -140 -28.667 -182 -86
s-65.667 -126.666 -71 -207.999h434zM648.002 1304c0 -35.333 -10.998 -64.167 -32.998 -86.5s-50.333 -33.5 -85 -33.5c-33.333 0 -60.5 10.333 -81.5 31s-31.5 48 -31.5 82c0 36 11.167 64.5 33.5 85.5s51.166 31.5 86.499 31.5c33.333 0 60.166 -9.5 80.499 -28.5
s30.5 -46.167 30.5 -81.5zM113.004 927.995z" />
    <glyph glyph-name="Eogonek" unicode="&#x118;" horiz-adv-x="1189" 
d="M346 1396l243 0.000976562c149.333 0 307 1.33301 473 4l6 -8l-58 -309l-40 -7l-62 231h-462v-550h91c69.333 0 146.666 0.666992 231.999 2c17.333 0.666992 28.666 9.33398 33.999 26.001l35 135l54 2c-2 -93.333 -3 -162.333 -3 -207c0 -43.333 1 -111.333 3 -204
l-54 -4l-36 137c-5.33301 17.333 -15.666 26.333 -30.999 27c-86.667 1.33301 -165 2 -235 2h-90v-364c0 -74 0.666992 -147 2 -219h480l122 254l45 8l-22 -348l-7 -7c-26 0.666992 -51.333 1 -76 1c-53.333 -2 -97.333 -21.833 -132 -59.5s-52 -86.167 -52 -145.5
c0 -62 18.667 -109.833 56 -143.5s90 -50.5 158 -50.5c10.667 0 25.334 0.666992 44.001 2l5 -39c-92.667 -34.667 -162.667 -52 -210 -52c-67.333 0 -120.666 19.167 -159.999 57.5s-59 87.166 -59 146.499c0 109.333 62.333 204.333 187 285v1h-477
c-80.667 0 -163.334 -1 -248.001 -3l-4 43l123 37c16.667 4.66699 25.667 15 27 31c0.666992 26.667 1.16699 56.5 1.5 89.5s0.5 69.5 0.5 109.5v811c0 34 -0.166992 64.667 -0.5 92s-0.833008 52 -1.5 74c-0.666992 17.333 -8.66699 28.666 -24 33.999l-124 39l-2 43
c86 -2.66699 168.667 -4 248 -4z" />
    <glyph glyph-name="eogonek" unicode="&#x119;" horiz-adv-x="981" 
d="M902 -438c-54.667 -34.667 -124.664 -52.002 -209.997 -52.002c-67.333 0 -120.833 19 -160.5 57s-59.5 87 -59.5 147c0 88 48.333 175.667 145 263c-20.667 -3.33301 -38.667 -5 -54 -5c-148 0 -265.833 41.833 -353.5 125.5s-131.5 199.834 -131.5 348.501
c0 148 41.833 269 125.5 363s195.5 141 335.5 141c117.333 0 208.666 -35.167 273.999 -105.5s98 -167.5 98 -291.5c0 -18.667 -1 -37.667 -3 -57h-634c0 -143.333 33.667 -245.833 101 -307.5s172.666 -92.5 315.999 -92.5c64 0 132.333 6 205 18l6 -43
c-38 -23.333 -77 -42.666 -117 -57.999c-46.667 -19.333 -82.834 -49.5 -108.501 -90.5s-38.5 -85.5 -38.5 -133.5c0 -58.667 18.667 -105 56 -139s90 -51 158 -51c12 0 26.667 0.666992 44 2zM712.003 578.998v29.998c0 94.667 -15.167 162.334 -45.5 203.001
s-75.5 61 -135.5 61c-79.333 0 -140 -28.667 -182 -86s-65.667 -126.666 -71 -207.999h434z" />
    <glyph glyph-name="Ecaron" unicode="&#x11a;" horiz-adv-x="1189" 
d="M346 1396h243.002c149.333 0 307 1.33301 473 4l6 -8l-58 -309l-40 -7l-62 231h-462v-550h91c69.333 0 146.666 0.666992 231.999 2c17.333 0.666992 28.666 9.33398 33.999 26.001l35 135l54 2c-2 -93.333 -3 -162.333 -3 -207c0 -43.333 1 -111.333 3 -204l-54 -4
l-36 137c-5.33301 17.333 -15.666 26.333 -30.999 27c-86.667 1.33301 -165 2 -235 2h-90v-364c0 -74 0.666992 -147 2 -219h480l122 254l45 8l-22 -348l-7 -7c-172.667 2 -332 3 -478 3h-238c-80.667 0 -163.334 -1 -248.001 -3l-4 43l123 37
c16.667 4.66699 25.667 15 27 31c0.666992 26.667 1.16699 56.5 1.5 89.5s0.5 69.5 0.5 109.5v811c0 34 -0.166992 64.667 -0.5 92s-0.833008 52 -1.5 74c-0.666992 17.333 -8.66699 28.666 -24 33.999l-124 39l-2 43c86 -2.66699 168.667 -4 248 -4zM575.002 1498l-286 238
l26 46l305 -134l304 134l27 -46l-286 -238h-90zM200.002 1400z" />
    <glyph glyph-name="ecaron" unicode="&#x11b;" horiz-adv-x="981" 
d="M902 71c-56.667 -35.333 -114.998 -60.668 -174.998 -76.001s-115.667 -23 -167 -23c-146.667 0 -263.667 41.833 -351 125.5s-131 199.834 -131 348.501c0 148 41.833 269 125.5 363s195.5 141 335.5 141c117.333 0 208.666 -35.167 273.999 -105.5s98 -167.5 98 -291.5
c0 -18.667 -1 -37.667 -3 -57h-634c0 -143.333 33.667 -245.833 101 -307.5s172.666 -92.5 315.999 -92.5c64 0 132.333 6 205 18zM712.002 578.998v29.998c0 94.667 -15.167 162.334 -45.5 203.001s-75.5 61 -135.5 61c-79.333 0 -140 -28.667 -182 -86
s-65.667 -126.666 -71 -207.999h434zM243.002 1417h76l216 -226l216 226h72l-217 -373h-147zM113.002 927.996z" />
    <glyph glyph-name="Gcircumflex" unicode="&#x11c;" horiz-adv-x="1435" 
d="M1183 1051l-40.001 -5.99902l-69 262c-81.333 21.333 -157.666 32 -228.999 32c-166.667 0 -296.667 -56.5 -390 -169.5s-140 -268.833 -140 -467.5c0 -200.667 51 -360.167 153 -478.5s239.333 -177.5 412 -177.5c58 0 115 7.33301 171 22v267
c0 33.333 -0.166992 63.666 -0.5 90.999s-0.833008 52.333 -1.5 75c-0.666992 17.333 -8.66699 28.333 -24 33l-124 39l-2 43c86 -2 168.333 -3 247 -3c80 0 157.333 1 232 3l5 -43l-109 -32c-16 -5.33301 -24.667 -15.666 -26 -30.999
c-0.666992 -26.667 -1.16699 -53.834 -1.5 -81.501s-0.5 -57.5 -0.5 -89.5v-320l-6 -7c-136 -32.667 -261 -49 -375 -49c-234 0 -420.167 62 -558.5 186s-207.5 297 -207.5 519c0 236 71.5 420.833 214.5 554.5s338.833 200.5 587.5 200.5c107.333 0 220 -13.667 338 -41
l6 -8zM884.999 1770l286 -239l-27 -46l-304 135l-305 -135l-26 46l286 239h90zM419.999 1400z" />
    <glyph glyph-name="gcircumflex" unicode="&#x11d;" horiz-adv-x="1040" 
d="M287 621c0 -86.667 17.5 -153.666 52.5 -200.999s85.833 -71 152.5 -71c64 0 112.167 22.167 144.5 66.5s48.5 109.166 48.5 194.499c0 82 -17.167 146.667 -51.5 194s-85.5 71 -153.5 71c-64 0 -112.167 -21.667 -144.5 -65s-48.5 -106.333 -48.5 -189zM274 -39.999
c-45.333 -68 -67.998 -130.666 -67.998 -187.999c0 -58.667 23.667 -104.334 71 -137.001s111.666 -49 192.999 -49c96.667 0 181.334 21.5 254.001 64.5s109 103.167 109 180.5c0 42 -17.833 74.5 -53.5 97.5s-102.834 34.5 -201.501 34.5c-35.333 0 -73.833 -1 -115.5 -3
s-81.834 -3 -120.501 -3c-21.333 0 -44 1 -68 3zM796.002 824.002c50 -55.333 74.999 -121.335 74.999 -198.002c0 -107.333 -37.333 -192.833 -112 -256.5s-168.334 -95.5 -281.001 -95.5c-64 0 -121.333 10 -172 30c-36 -58 -54 -103.667 -54 -137
c0 -18 9.16699 -30.167 27.5 -36.5s52.166 -9.5 101.499 -9.5c37.333 0 81 1 131 3s96.667 3 140 3c106 0 189.833 -20.167 251.5 -60.5s92.5 -100.166 92.5 -179.499c0 -120 -56.5 -214.667 -169.5 -284s-241.5 -104 -385.5 -104c-118 0 -212.167 19.833 -282.5 59.5
s-105.5 91.167 -105.5 154.5c0 76.667 54.333 162.667 163 258c-68.667 26 -103 60.667 -103 104c0 60.667 47.667 145.334 143 254.001c-104 63.333 -156 155 -156 275c0 104 36.833 187.667 110.5 251s168.834 95 285.501 95c30.667 0 72.334 -4 125.001 -12
c50 -9.33301 89 -14 117 -14c100.667 0 193.334 1 278.001 3l5 -41zM785.001 1044h-76l-216 226l-216 -226h-72l216 373h147zM75.001 928z" />
    <glyph glyph-name="Gbreve" unicode="&#x11e;" horiz-adv-x="1435" 
d="M1183 1051l-40.001 -5.99902l-69 262c-81.333 21.333 -157.666 32 -228.999 32c-166.667 0 -296.667 -56.5 -390 -169.5s-140 -268.833 -140 -467.5c0 -200.667 51 -360.167 153 -478.5s239.333 -177.5 412 -177.5c58 0 115 7.33301 171 22v267
c0 33.333 -0.166992 63.666 -0.5 90.999s-0.833008 52.333 -1.5 75c-0.666992 17.333 -8.66699 28.333 -24 33l-124 39l-2 43c86 -2 168.333 -3 247 -3c80 0 157.333 1 232 3l5 -43l-109 -32c-16 -5.33301 -24.667 -15.666 -26 -30.999
c-0.666992 -26.667 -1.16699 -53.834 -1.5 -81.501s-0.5 -57.5 -0.5 -89.5v-320l-6 -7c-136 -32.667 -261 -49 -375 -49c-234 0 -420.167 62 -558.5 186s-207.5 297 -207.5 519c0 236 71.5 420.833 214.5 554.5s338.833 200.5 587.5 200.5c107.333 0 220 -13.667 338 -41
l6 -8zM623.999 1813c10 -52.667 34.001 -94.5 72.001 -125.5s87 -46.5 147 -46.5c60.667 0 109.5 15.167 146.5 45.5s62.5 69.833 76.5 118.5l64 7c0 -86.667 -25.833 -159.167 -77.5 -217.5s-123.834 -87.5 -216.501 -87.5c-86.667 0 -154.667 26.5 -204 79.5
s-74 126.167 -74 219.5zM420 1400z" />
    <glyph glyph-name="gbreve" unicode="&#x11f;" horiz-adv-x="1040" 
d="M287 621c0 -86.667 17.5 -153.666 52.5 -200.999s85.833 -71 152.5 -71c64 0 112.167 22.167 144.5 66.5s48.5 109.166 48.5 194.499c0 82 -17.167 146.667 -51.5 194s-85.5 71 -153.5 71c-64 0 -112.167 -21.667 -144.5 -65s-48.5 -106.333 -48.5 -189zM274 -39.999
c-45.333 -68 -67.998 -130.666 -67.998 -187.999c0 -58.667 23.667 -104.334 71 -137.001s111.666 -49 192.999 -49c96.667 0 181.334 21.5 254.001 64.5s109 103.167 109 180.5c0 42 -17.833 74.5 -53.5 97.5s-102.834 34.5 -201.501 34.5c-35.333 0 -73.833 -1 -115.5 -3
s-81.834 -3 -120.501 -3c-21.333 0 -44 1 -68 3zM796.002 824.002c50 -55.333 74.999 -121.335 74.999 -198.002c0 -107.333 -37.333 -192.833 -112 -256.5s-168.334 -95.5 -281.001 -95.5c-64 0 -121.333 10 -172 30c-36 -58 -54 -103.667 -54 -137
c0 -18 9.16699 -30.167 27.5 -36.5s52.166 -9.5 101.499 -9.5c37.333 0 81 1 131 3s96.667 3 140 3c106 0 189.833 -20.167 251.5 -60.5s92.5 -100.166 92.5 -179.499c0 -120 -56.5 -214.667 -169.5 -284s-241.5 -104 -385.5 -104c-118 0 -212.167 19.833 -282.5 59.5
s-105.5 91.167 -105.5 154.5c0 76.667 54.333 162.667 163 258c-68.667 26 -103 60.667 -103 104c0 60.667 47.667 145.334 143 254.001c-104 63.333 -156 155 -156 275c0 104 36.833 187.667 110.5 251s168.834 95 285.501 95c30.667 0 72.334 -4 125.001 -12
c50 -9.33301 89 -14 117 -14c100.667 0 193.334 1 278.001 3l5 -41zM290.001 1395c9.33301 -65.333 32 -115.333 68 -150s82.333 -52 139 -52c57.333 0 103.5 17 138.5 51s59.167 81.667 72.5 143l66 7c0 -98 -24.833 -178.333 -74.5 -241s-119.5 -94 -209.5 -94
c-84 0 -149.667 28.167 -197 84.5s-71 137.5 -71 243.5zM75.001 928z" />
    <glyph glyph-name="Gdotaccent" unicode="&#x120;" horiz-adv-x="1435" 
d="M1183 1051l-40.001 -5.99902l-69 262c-81.333 21.333 -157.666 32 -228.999 32c-166.667 0 -296.667 -56.5 -390 -169.5s-140 -268.833 -140 -467.5c0 -200.667 51 -360.167 153 -478.5s239.333 -177.5 412 -177.5c58 0 115 7.33301 171 22v267
c0 33.333 -0.166992 63.666 -0.5 90.999s-0.833008 52.333 -1.5 75c-0.666992 17.333 -8.66699 28.333 -24 33l-124 39l-2 43c86 -2 168.333 -3 247 -3c80 0 157.333 1 232 3l5 -43l-109 -32c-16 -5.33301 -24.667 -15.666 -26 -30.999
c-0.666992 -26.667 -1.16699 -53.834 -1.5 -81.501s-0.5 -57.5 -0.5 -89.5v-320l-6 -7c-136 -32.667 -261 -49 -375 -49c-234 0 -420.167 62 -558.5 186s-207.5 297 -207.5 519c0 236 71.5 420.833 214.5 554.5s338.833 200.5 587.5 200.5c107.333 0 220 -13.667 338 -41
l6 -8zM952.999 1638c0 -35.333 -10.834 -63.833 -32.501 -85.5s-49.5 -32.5 -83.5 -32.5c-32 0 -58.333 10.167 -79 30.5s-31 46.833 -31 79.5c0 36 10.833 64.333 32.5 85s49.834 31 84.501 31c32 0 58.167 -9.5 78.5 -28.5s30.5 -45.5 30.5 -79.5zM419.998 1400z" />
    <glyph glyph-name="gdotaccent" unicode="&#x121;" horiz-adv-x="1040" 
d="M287 621c0 -86.667 17.5 -153.666 52.5 -200.999s85.833 -71 152.5 -71c64 0 112.167 22.167 144.5 66.5s48.5 109.166 48.5 194.499c0 82 -17.167 146.667 -51.5 194s-85.5 71 -153.5 71c-64 0 -112.167 -21.667 -144.5 -65s-48.5 -106.333 -48.5 -189zM274 -39.999
c-45.333 -68 -67.998 -130.666 -67.998 -187.999c0 -58.667 23.667 -104.334 71 -137.001s111.666 -49 192.999 -49c96.667 0 181.334 21.5 254.001 64.5s109 103.167 109 180.5c0 42 -17.833 74.5 -53.5 97.5s-102.834 34.5 -201.501 34.5c-35.333 0 -73.833 -1 -115.5 -3
s-81.834 -3 -120.501 -3c-21.333 0 -44 1 -68 3zM796.002 824.002c50 -55.333 74.999 -121.335 74.999 -198.002c0 -107.333 -37.333 -192.833 -112 -256.5s-168.334 -95.5 -281.001 -95.5c-64 0 -121.333 10 -172 30c-36 -58 -54 -103.667 -54 -137
c0 -18 9.16699 -30.167 27.5 -36.5s52.166 -9.5 101.499 -9.5c37.333 0 81 1 131 3s96.667 3 140 3c106 0 189.833 -20.167 251.5 -60.5s92.5 -100.166 92.5 -179.499c0 -120 -56.5 -214.667 -169.5 -284s-241.5 -104 -385.5 -104c-118 0 -212.167 19.833 -282.5 59.5
s-105.5 91.167 -105.5 154.5c0 76.667 54.333 162.667 163 258c-68.667 26 -103 60.667 -103 104c0 60.667 47.667 145.334 143 254.001c-104 63.333 -156 155 -156 275c0 104 36.833 187.667 110.5 251s168.834 95 285.501 95c30.667 0 72.334 -4 125.001 -12
c50 -9.33301 89 -14 117 -14c100.667 0 193.334 1 278.001 3l5 -41zM610.001 1304c0 -35.333 -10.998 -64.167 -32.998 -86.5s-50.333 -33.5 -85 -33.5c-33.333 0 -60.5 10.333 -81.5 31s-31.5 48 -31.5 82c0 36 11.167 64.5 33.5 85.5s51.166 31.5 86.499 31.5
c33.333 0 60.166 -9.5 80.499 -28.5s30.5 -46.167 30.5 -81.5zM75.0029 927.999z" />
    <glyph glyph-name="Gcommaaccent" unicode="&#x122;" horiz-adv-x="1435" 
d="M1183 1051l-40.001 -5.99902l-69 262c-81.333 21.333 -157.666 32 -228.999 32c-166.667 0 -296.667 -56.5 -390 -169.5s-140 -268.833 -140 -467.5c0 -200.667 51 -360.167 153 -478.5s239.333 -177.5 412 -177.5c58 0 115 7.33301 171 22v267
c0 33.333 -0.166992 63.666 -0.5 90.999s-0.833008 52.333 -1.5 75c-0.666992 17.333 -8.66699 28.333 -24 33l-124 39l-2 43c86 -2 168.333 -3 247 -3c80 0 157.333 1 232 3l5 -43l-109 -32c-16 -5.33301 -24.667 -15.666 -26 -30.999
c-0.666992 -26.667 -1.16699 -53.834 -1.5 -81.501s-0.5 -57.5 -0.5 -89.5v-320l-6 -7c-136 -32.667 -261 -49 -375 -49c-234 0 -420.167 62 -558.5 186s-207.5 297 -207.5 519c0 236 71.5 420.833 214.5 554.5s338.833 200.5 587.5 200.5c107.333 0 220 -13.667 338 -41
l6 -8zM707.999 -447.999c64 52 96 102.332 96 150.999c0 44.667 -24.667 81.334 -74 110.001c0 30 9.66699 54.167 29 72.5s43 27.5 71 27.5c33.333 0 60.5 -11.833 81.5 -35.5s31.5 -53.5 31.5 -89.5c0 -96.667 -66.667 -188 -200 -274z" />
    <glyph glyph-name="gcommaaccent" unicode="&#x123;" horiz-adv-x="1040" 
d="M287 621c0 -86.667 17.5 -153.666 52.5 -200.999s85.833 -71 152.5 -71c64 0 112.167 22.167 144.5 66.5s48.5 109.166 48.5 194.499c0 82 -17.167 146.667 -51.5 194s-85.5 71 -153.5 71c-64 0 -112.167 -21.667 -144.5 -65s-48.5 -106.333 -48.5 -189zM274 -39.999
c-45.333 -68 -67.998 -130.666 -67.998 -187.999c0 -58.667 23.667 -104.334 71 -137.001s111.666 -49 192.999 -49c96.667 0 181.334 21.5 254.001 64.5s109 103.167 109 180.5c0 42 -17.833 74.5 -53.5 97.5s-102.834 34.5 -201.501 34.5c-35.333 0 -73.833 -1 -115.5 -3
s-81.834 -3 -120.501 -3c-21.333 0 -44 1 -68 3zM796.002 824.002c50 -55.333 74.999 -121.335 74.999 -198.002c0 -107.333 -37.333 -192.833 -112 -256.5s-168.334 -95.5 -281.001 -95.5c-64 0 -121.333 10 -172 30c-36 -58 -54 -103.667 -54 -137
c0 -18 9.16699 -30.167 27.5 -36.5s52.166 -9.5 101.499 -9.5c37.333 0 81 1 131 3s96.667 3 140 3c106 0 189.833 -20.167 251.5 -60.5s92.5 -100.166 92.5 -179.499c0 -120 -56.5 -214.667 -169.5 -284s-241.5 -104 -385.5 -104c-118 0 -212.167 19.833 -282.5 59.5
s-105.5 91.167 -105.5 154.5c0 76.667 54.333 162.667 163 258c-68.667 26 -103 60.667 -103 104c0 60.667 47.667 145.334 143 254.001c-104 63.333 -156 155 -156 275c0 104 36.833 187.667 110.5 251s168.834 95 285.501 95c30.667 0 72.334 -4 125.001 -12
c50 -9.33301 89 -14 117 -14c100.667 0 193.334 1 278.001 3l5 -41zM617.001 1411c-64 -52 -96 -102.332 -96 -150.999c0 -44.667 24.667 -81.334 74 -110.001c0 -30 -9.66699 -54.167 -29 -72.5s-43 -27.5 -71 -27.5c-33.333 0 -60.5 11.833 -81.5 35.5
s-31.5 53.5 -31.5 89.5c0 96.667 66.667 188 200 274z" />
    <glyph glyph-name="Hcircumflex" unicode="&#x124;" horiz-adv-x="1620" 
d="M446 692l0.000976562 -385c0 -78.667 0.666992 -144.667 2 -198c0.666992 -18 9.33398 -29.333 26.001 -34l111 -35l3 -43c-79.333 2 -158.666 3 -237.999 3s-162 -1 -248 -3l-4 43l123 37c17.333 5.33301 26.333 15.666 27 30.999c1.33301 54 2 120.333 2 199v811
c0 66.667 -0.666992 122 -2 166c-0.666992 17.333 -8.66699 28.666 -24 33.999l-124 39l-2 43c86 -2.66699 168.667 -4 248 -4c80 0 159 1.33301 237 4l5 -43l-114 -35c-16.667 -4 -25.334 -14.333 -26.001 -31c-1.33301 -48 -2 -104.333 -2 -169v-339h728v339
c0 64.667 -0.666992 121 -2 169c-0.666992 16.667 -9.33398 27 -26.001 31l-111 35l-2 43c81.333 -2.66699 161.666 -4 240.999 -4s160.666 1.33301 243.999 4l4 -43l-126 -39c-15.333 -5.33301 -23.333 -16.666 -24 -33.999c-1.33301 -44 -2 -99.333 -2 -166v-811
c0 -78.667 0.666992 -145 2 -199c0.666992 -15.333 9.66699 -25.666 27 -30.999l121 -37l2 -43c-88 2 -172 3 -252 3c-79.333 0 -157 -1 -233 -3l-4 43l113 35c16.667 4.66699 25.334 16 26.001 34c1.33301 53.333 2 119.333 2 198v385h-728zM855.001 1770l286 -239l-27 -46
l-304 135l-305 -135l-26 46l286 239h90zM390.001 1400z" />
    <glyph glyph-name="hcircumflex" unicode="&#x125;" horiz-adv-x="1187" 
d="M51 1436c108.667 21.333 217.33 45.0029 325.997 71.0029l9 -8c-3.33301 -62.667 -5.16602 -152 -5.49902 -268s-0.5 -247 -0.5 -393c116 74.667 224 112 324 112c92.667 0 166.334 -25.833 221.001 -77.5s82 -127.5 82 -227.5v-353
c0 -76.667 0.666992 -138.334 2 -185.001c0.666992 -17.333 9 -29 25 -35l112 -34l2 -41c-88 2 -164.667 3 -230 3s-138 -1 -218 -3l-4 41l99 29c16 5.33301 24.667 15.666 26 30.999c0.666992 9.33301 1 30.333 1 63v436c0 82 -19.667 140.833 -59 176.5
s-97.333 53.5 -174 53.5c-66 0 -135.667 -16 -209 -48v-449c0 -82.667 0.666992 -158.334 2 -227.001c0.666992 -18.667 9 -30.334 25 -35.001l104 -30l2 -41c-84 2 -158.667 3 -224 3s-142.666 -1 -231.999 -3l-4 41l113 33c17.333 5.33301 26.333 16 27 32
c1.33301 64 2 145.667 2 245v418c0 136 -0.166992 256.333 -0.5 361s-1.5 183.334 -3.5 236.001l-135 40zM327.996 1823l286 -239l-27 -46l-304 135l-305 -135l-26 46l286 239h90zM-137.004 1453z" />
    <glyph glyph-name="Hbar" unicode="&#x126;" horiz-adv-x="1620" 
d="M1522 1004h-151.999v-697c0 -78.667 0.666992 -145 2 -199c0.666992 -15.333 9.66699 -25.666 27 -30.999l121 -37l2 -43c-88 2 -172 3 -252 3c-79.333 0 -157 -1 -233 -3l-4 43l113 35c16.667 4.66699 25.334 16 26.001 34c1.33301 53.333 2 119.333 2 198v374h-728
v-374c0 -78.667 0.666992 -144.667 2 -198c0.666992 -18 9.33398 -29.333 26.001 -34l111 -35l3 -43c-79.333 2 -158.666 3 -237.999 3s-162 -1 -248 -3l-4 43l123 37c17.333 5.33301 26.333 15.666 27 30.999c1.33301 54 2 120.333 2 199v697h-152v89h152v25
c0 66.667 -0.666992 122 -2 166c-0.666992 17.333 -8.66699 28.666 -24 33.999l-124 39l-2 43c86 -2.66699 168.667 -4 248 -4c80 0 159 1.33301 237 4l5 -43l-114 -35c-16.667 -4 -25.334 -14.333 -26.001 -31c-1.33301 -48 -2 -104.333 -2 -169v-29h728v29
c0 64.667 -0.666992 121 -2 169c-0.666992 16.667 -9.33398 27 -26.001 31l-111 35l-2 43c81.333 -2.66699 161.666 -4 240.999 -4s160.666 1.33301 243.999 4l4 -43l-126 -39c-15.333 -5.33301 -23.333 -16.666 -24 -33.999c-1.33301 -44 -2 -99.333 -2 -166v-25h152v-89z
M1174 773v231h-728v-231h728z" />
    <glyph glyph-name="hbar" unicode="&#x127;" horiz-adv-x="1187" 
d="M735 1114l-355.003 0.00488281v-302c116 74.667 224 112 324 112c92.667 0 166.334 -25.833 221.001 -77.5s82 -127.834 82 -228.501v-326c0 -76.667 0.666992 -138.334 2 -185.001c0.666992 -17.333 9 -29 25 -35l112 -34l2 -41c-88 2 -164.667 3 -230 3
s-138 -1 -218 -3l-4 41l99 29c16 5.33301 24.667 15.666 26 30.999c0.666992 9.33301 1 30.333 1 63v410c0 82 -19.667 140.833 -59 176.5s-97.333 53.5 -174 53.5c-66 0 -135.667 -16 -209 -48v-423c0 -82.667 0.666992 -158.334 2 -227.001
c0.666992 -18.667 9 -30.334 25 -35.001l104 -30l2 -41c-84 2 -158.667 3 -224 3s-142.666 -1 -231.999 -3l-4 41l113 33c17.333 5.33301 26.333 16 27 32c1.33301 64 2 145.667 2 245v766h-154v81h153c-0.666992 68 -1.66699 124 -3 168l-135 40l-5 33
c108.667 21.333 217.334 45 326.001 71l9 -8c-3.33301 -62.667 -5.33301 -152 -6 -268v-36h355v-81z" />
    <glyph glyph-name="Itilde" unicode="&#x128;" horiz-adv-x="696" 
d="M446 307c0 -40 0.166992 -76.3301 0.5 -108.997s0.833008 -62.334 1.5 -89.001c0.666992 -16.667 12.334 -28 35.001 -34l113 -35l2 -43c-86 2 -168.667 3 -248 3c-80.667 0 -163.334 -1 -248.001 -3l-4 43l123 37c16.667 4.66699 25.667 15 27 31
c0.666992 26.667 1.16699 56.5 1.5 89.5s0.5 69.5 0.5 109.5v811c0 34 -0.166992 64.667 -0.5 92s-0.833008 52 -1.5 74c-0.666992 17.333 -8.66699 28.666 -24 33.999l-124 39l-2 43c86 -2.66699 168.667 -4 248 -4c80 0 162.667 1.33301 248 4l4 -43l-124 -37
c-16 -4 -24.667 -14.333 -26 -31c-0.666992 -23.333 -1.16699 -48.833 -1.5 -76.5s-0.5 -57.834 -0.5 -90.501v-815zM686 1724c-76 -132.667 -150.667 -199 -224 -199c-24 0 -46.5 4.83301 -67.5 14.5s-44.167 22.167 -69.5 37.5l-59 32.5
c-15.333 8.33301 -31.333 12.5 -48 12.5c-18.667 0 -36.167 -5.66699 -52.5 -17s-43.5 -37.666 -81.5 -78.999l-50 39c46 71.333 85.167 121.666 117.5 150.999s66.5 44 102.5 44c20.667 0 39.5 -3.33301 56.5 -10s41.5 -19.334 73.5 -38.001l67.5 -36.5
c15.667 -8.33301 32.167 -12.5 49.5 -12.5c20.667 0 38.5 5.33301 53.5 16s41.167 37.334 78.5 80.001zM-70 1400z" />
    <glyph glyph-name="itilde" unicode="&#x129;" horiz-adv-x="580" 
d="M58 880c116.667 22 224.669 45.334 324.002 70.001l9 -7c-4 -86.667 -6 -182 -6 -286v-384c0 -80 0.666992 -135.333 2 -166c1.33301 -18 9.66602 -29.667 24.999 -35l116 -34l2 -41c-92 2 -170.667 3 -236 3s-143 -1 -233 -3l-4 41l116 34
c15.333 5.33301 23.666 15.666 24.999 30.999c1.33301 26 2 69.667 2 131v334c0 87.333 -1.33301 168 -4 242l-133 36zM618.002 1322c-78.667 -138 -156 -207 -232 -207c-25.333 0 -48.833 5 -70.5 15s-45.5 23 -71.5 39l-61.5 34c-15.667 8.66699 -32.167 13 -49.5 13
c-19.333 0 -37.5 -5.83301 -54.5 -17.5s-45.167 -39.167 -84.5 -82.5l-52 41c48 74 88.667 126.167 122 156.5s68.666 45.5 105.999 45.5c21.333 0 40.833 -3.5 58.5 -10.5s43.167 -20.167 76.5 -39.5l69.5 -38c16.333 -8.66699 33.5 -13 51.5 -13
c21.333 0 39.833 5.66699 55.5 17s42.834 39 81.501 83zM-149.998 928.001z" />
    <glyph glyph-name="Imacron" unicode="&#x12a;" horiz-adv-x="696" 
d="M446 307c0 -40 0.166992 -76.3301 0.5 -108.997s0.833008 -62.334 1.5 -89.001c0.666992 -16.667 12.334 -28 35.001 -34l113 -35l2 -43c-86 2 -168.667 3 -248 3c-80.667 0 -163.334 -1 -248.001 -3l-4 43l123 37c16.667 4.66699 25.667 15 27 31
c0.666992 26.667 1.16699 56.5 1.5 89.5s0.5 69.5 0.5 109.5v811c0 34 -0.166992 64.667 -0.5 92s-0.833008 52 -1.5 74c-0.666992 17.333 -8.66699 28.666 -24 33.999l-124 39l-2 43c86 -2.66699 168.667 -4 248 -4c80 0 162.667 1.33301 248 4l4 -43l-124 -37
c-16 -4 -24.667 -14.333 -26 -31c-0.666992 -23.333 -1.16699 -48.833 -1.5 -76.5s-0.5 -57.834 -0.5 -90.501v-815zM90 1557v109h519v-109h-519zM-70 1400z" />
    <glyph glyph-name="imacron" unicode="&#x12b;" horiz-adv-x="580" 
d="M58 880c116.667 22 224.669 45.334 324.002 70.001l9 -7c-4 -86.667 -6 -182 -6 -286v-384c0 -80 0.666992 -135.333 2 -166c1.33301 -18 9.66602 -29.667 24.999 -35l116 -34l2 -41c-92 2 -170.667 3 -236 3s-143 -1 -233 -3l-4 41l116 34
c15.333 5.33301 23.666 15.666 24.999 30.999c1.33301 26 2 69.667 2 131v334c0 87.333 -1.33301 168 -4 242l-133 36zM-0.998047 1190v109h541v-109h-541zM-149.998 928.001z" />
    <glyph glyph-name="Ibreve" unicode="&#x12c;" horiz-adv-x="696" 
d="M446 307c0 -40 0.166992 -76.3301 0.5 -108.997s0.833008 -62.334 1.5 -89.001c0.666992 -16.667 12.334 -28 35.001 -34l113 -35l2 -43c-86 2 -168.667 3 -248 3c-80.667 0 -163.334 -1 -248.001 -3l-4 43l123 37c16.667 4.66699 25.667 15 27 31
c0.666992 26.667 1.16699 56.5 1.5 89.5s0.5 69.5 0.5 109.5v811c0 34 -0.166992 64.667 -0.5 92s-0.833008 52 -1.5 74c-0.666992 17.333 -8.66699 28.666 -24 33.999l-124 39l-2 43c86 -2.66699 168.667 -4 248 -4c80 0 162.667 1.33301 248 4l4 -43l-124 -37
c-16 -4 -24.667 -14.333 -26 -31c-0.666992 -23.333 -1.16699 -48.833 -1.5 -76.5s-0.5 -57.834 -0.5 -90.501v-815zM134 1813c10 -52.667 34.001 -94.5 72.001 -125.5s87 -46.5 147 -46.5c60.667 0 109.5 15.167 146.5 45.5s62.5 69.833 76.5 118.5l64 7
c0 -86.667 -25.833 -159.167 -77.5 -217.5s-123.834 -87.5 -216.501 -87.5c-86.667 0 -154.667 26.5 -204 79.5s-74 126.167 -74 219.5zM-69.999 1400z" />
    <glyph glyph-name="ibreve" unicode="&#x12d;" horiz-adv-x="580" 
d="M58 880c116.667 22 224.669 45.334 324.002 70.001l9 -7c-4 -86.667 -6 -182 -6 -286v-384c0 -80 0.666992 -135.333 2 -166c1.33301 -18 9.66602 -29.667 24.999 -35l116 -34l2 -41c-92 2 -170.667 3 -236 3s-143 -1 -233 -3l-4 41l116 34
c15.333 5.33301 23.666 15.666 24.999 30.999c1.33301 26 2 69.667 2 131v334c0 87.333 -1.33301 168 -4 242l-133 36zM65.002 1395c9.33301 -65.333 32 -115.333 68 -150s82.333 -52 139 -52c57.333 0 103.5 17 138.5 51s59.167 81.667 72.5 143l66 7
c0 -98 -24.833 -178.333 -74.5 -241s-119.5 -94 -209.5 -94c-84 0 -149.667 28.167 -197 84.5s-71 137.5 -71 243.5zM-149.998 928.001z" />
    <glyph glyph-name="Iogonek" unicode="&#x12e;" horiz-adv-x="692" 
d="M444 307c0 -40 0.165039 -76.3301 0.498047 -108.997s0.833008 -62.334 1.5 -89.001c0.666992 -16.667 12.334 -28 35.001 -34l113 -35l2 -43l-76 2c-52 -2.66699 -95 -22 -129 -58c-35.333 -39.333 -53 -88.666 -53 -147.999c0 -62 18.667 -109.833 56 -143.5
s90 -50.5 158 -50.5c10.667 0 25.334 0.666992 44.001 2l5 -39c-92.667 -34.667 -162.667 -52 -210 -52c-68 0 -121.5 19.167 -160.5 57.5s-58.5 87.166 -58.5 146.499c0 109.333 62.333 204.333 187 285v1c-88 0 -174.333 -1 -259 -3l-4 43l123 37
c16.667 4.66699 25.667 15 27 31c0.666992 26.667 1.16699 56.5 1.5 89.5s0.5 69.5 0.5 109.5v811c0 34 -0.166992 64.667 -0.5 92s-0.833008 52 -1.5 74c-0.666992 17.333 -8.66699 28.666 -24 33.999l-124 39l-2 43c86 -2.66699 168.667 -4 248 -4
c80 0 162.667 1.33301 248 4l4 -43l-124 -37c-16 -4 -24.667 -14.333 -26 -31c-0.666992 -23.333 -1.16699 -48.833 -1.5 -76.5s-0.5 -57.834 -0.5 -90.501v-815z" />
    <glyph glyph-name="iogonek" unicode="&#x12f;" horiz-adv-x="580" 
d="M535 -438c-93.333 -34.667 -163.334 -51.9971 -210.001 -51.9971c-68 0 -121.667 19.167 -161 57.5s-59 87.166 -59 146.499c0 109.333 62.333 204.666 187 285.999c-65.333 0 -142.333 -1 -231 -3l-4 41l116 34c16 6 24.333 16.333 25 31
c0.666992 13.333 1.16699 30.666 1.5 51.999s0.5 47.666 0.5 78.999v334c0 44 -0.333008 86 -1 126s-1.66699 78.667 -3 116l-133 36l-5 34c58.667 11.333 114.667 22.833 168 34.5l156 35.5l9 -7c-4 -87.333 -6 -182.666 -6 -285.999v-384
c0 -40 0.166992 -73.833 0.5 -101.5s0.833008 -49.167 1.5 -64.5c0.666992 -18 9 -29.667 25 -35l116 -34l2 -41c-20.667 1.33301 -41 2 -61 2c-59.333 0 -107.166 -19.5 -143.499 -58.5s-54.5 -88.167 -54.5 -147.5c0 -62 18.833 -109.833 56.5 -143.5
s90.5 -50.5 158.5 -50.5c10 0 24.667 0.666992 44 2zM390.999 1304c0 -35.333 -10.832 -64.167 -32.499 -86.5s-50.5 -33.5 -86.5 -33.5c-33.333 0 -60.333 10.333 -81 31s-31 48 -31 82c0 36 11 64.5 33 85.5s51 31.5 87 31.5c33.333 0 60.166 -9.33301 80.499 -28
s30.5 -46 30.5 -82z" />
    <glyph glyph-name="Idotaccent" unicode="&#x130;" horiz-adv-x="696" 
d="M446 307c0 -40 0.166992 -76.3301 0.5 -108.997s0.833008 -62.334 1.5 -89.001c0.666992 -16.667 12.334 -28 35.001 -34l113 -35l2 -43c-86 2 -168.667 3 -248 3c-80.667 0 -163.334 -1 -248.001 -3l-4 43l123 37c16.667 4.66699 25.667 15 27 31
c0.666992 26.667 1.16699 56.5 1.5 89.5s0.5 69.5 0.5 109.5v811c0 34 -0.166992 64.667 -0.5 92s-0.833008 52 -1.5 74c-0.666992 17.333 -8.66699 28.666 -24 33.999l-124 39l-2 43c86 -2.66699 168.667 -4 248 -4c80 0 162.667 1.33301 248 4l4 -43l-124 -37
c-16 -4 -24.667 -14.333 -26 -31c-0.666992 -23.333 -1.16699 -48.833 -1.5 -76.5s-0.5 -57.834 -0.5 -90.501v-815zM463 1638c0 -35.333 -10.834 -63.833 -32.501 -85.5s-49.5 -32.5 -83.5 -32.5c-32 0 -58.333 10.167 -79 30.5s-31 46.833 -31 79.5
c0 36 10.833 64.333 32.5 85s49.834 31 84.501 31c32 0 58.167 -9.5 78.5 -28.5s30.5 -45.5 30.5 -79.5zM-70.001 1400z" />
    <glyph glyph-name="dotlessi" unicode="&#x131;" horiz-adv-x="580" 
d="M58 880c116.667 22 224.669 45.334 324.002 70.001l9 -7c-4 -86.667 -6 -182 -6 -286v-384c0 -80 0.666992 -135.333 2 -166c1.33301 -18 9.66602 -29.667 24.999 -35l116 -34l2 -41c-92 2 -170.667 3 -236 3s-143 -1 -233 -3l-4 41l116 34
c15.333 5.33301 23.666 15.666 24.999 30.999c1.33301 26 2 69.667 2 131v334c0 87.333 -1.33301 168 -4 242l-133 36z" />
    <glyph glyph-name="IJ" unicode="&#x132;" horiz-adv-x="1336" 
d="M446 307c0 -40 0.166992 -76.3301 0.5 -108.997s0.833008 -62.334 1.5 -89.001c0.666992 -16.667 12.334 -28 35.001 -34l113 -35l2 -43c-86 2 -168.667 3 -248 3c-80.667 0 -163.334 -1 -248.001 -3l-4 43l123 37c16.667 4.66699 25.667 15 27 31
c0.666992 26.667 1.16699 56.5 1.5 89.5s0.5 69.5 0.5 109.5v811c0 34 -0.166992 64.667 -0.5 92s-0.833008 52 -1.5 74c-0.666992 17.333 -8.66699 28.666 -24 33.999l-124 39l-2 43c86 -2.66699 168.667 -4 248 -4c80 0 162.667 1.33301 248 4l4 -43l-124 -37
c-16 -4 -24.667 -14.333 -26 -31c-0.666992 -23.333 -1.16699 -48.833 -1.5 -76.5s-0.5 -57.834 -0.5 -90.501v-815zM779 1400c86 -2.66699 168.668 -3.99609 248.001 -3.99609s161.666 1.33301 246.999 4l5 -43l-124 -37c-16.667 -4 -25.667 -14.333 -27 -31
c-0.666992 -23.333 -1.16699 -48.833 -1.5 -76.5s-0.5 -57.834 -0.5 -90.501v-906c0 -65.333 -2.5 -124.833 -7.5 -178.5s-13.833 -101.5 -26.5 -143.5s-30.5 -79.5 -53.5 -112.5s-52.167 -62.333 -87.5 -88s-78 -48.167 -128 -67.5s-109.333 -37 -178 -53l-15 50
c69.333 29.333 123.833 61.666 163.5 96.999s69.667 75.666 90 120.999s33.333 96.333 39 153s8.5 120.667 8.5 192v932c0 34 -0.166992 64.667 -0.5 92s-0.833008 52 -1.5 74c-0.666992 17.333 -8.66699 28.666 -24 33.999l-124 39z" />
    <glyph glyph-name="ij" unicode="&#x133;" horiz-adv-x="1123" 
d="M396 1304c0 -35.333 -11.001 -64.167 -33.001 -86.5s-50.333 -33.5 -85 -33.5c-33.333 0 -60.5 10.333 -81.5 31s-31.5 48 -31.5 82c0 36 11 64.5 33 85.5s51 31.5 87 31.5c32.667 0 59.334 -9.5 80.001 -28.5s31 -46.167 31 -81.5zM57.999 879.999
c116.667 22 224.669 45.334 324.002 70.001l9 -7c-4 -86.667 -6 -182 -6 -286v-384c0 -80 0.666992 -135.333 2 -166c1.33301 -18 9.66602 -29.667 24.999 -35l116 -34l2 -41c-92 2 -170.667 3 -236 3s-143 -1 -233 -3l-4 41l116 34
c15.333 5.33301 23.666 15.666 24.999 30.999c1.33301 26 2 69.667 2 131v334c0 87.333 -1.33301 168 -4 242l-133 36zM624.001 880c114.667 22 221.666 45.332 320.999 69.999l9 -7c-4 -86.667 -6 -182 -6 -286v-568c0 -131.333 -25.167 -234.833 -75.5 -310.5
s-138.833 -169.5 -265.5 -281.5l-46 41c98.667 130 157.334 226 176.001 288s28 141 28 237v505c0 80.667 -1.33301 161.334 -4 242.001l-132 36zM954 1304c0 -35.333 -10.998 -64.167 -32.998 -86.5s-50.333 -33.5 -85 -33.5c-33.333 0 -60.5 10.333 -81.5 31
s-31.5 48 -31.5 82c0 36 11.167 64.5 33.5 85.5s51.166 31.5 86.499 31.5c33.333 0 60.166 -9.5 80.499 -28.5s30.5 -46.167 30.5 -81.5z" />
    <glyph glyph-name="Jcircumflex" unicode="&#x134;" horiz-adv-x="640" 
d="M83 1400c86 -2.66699 168.668 -3.99609 248.001 -3.99609s161.666 1.33301 246.999 4l5 -43l-124 -37c-16.667 -4 -25.667 -14.333 -27 -31c-0.666992 -23.333 -1.16699 -48.833 -1.5 -76.5s-0.5 -57.834 -0.5 -90.501v-906c0 -65.333 -2.5 -124.833 -7.5 -178.5
s-13.833 -101.5 -26.5 -143.5s-30.5 -79.5 -53.5 -112.5s-52.167 -62.333 -87.5 -88s-78 -48.167 -128 -67.5s-109.333 -37 -178 -53l-15 50c69.333 29.333 123.833 61.666 163.5 96.999s69.667 75.666 90 120.999s33.333 96.333 39 153s8.5 120.667 8.5 192v932
c0 34 -0.166992 64.667 -0.5 92s-0.833008 52 -1.5 74c-0.666992 17.333 -8.66699 28.666 -24 33.999l-124 39zM381.001 1770l286 -239l-27 -46l-304 135l-305 -135l-26 46l286 239h90zM-83.999 1400z" />
    <glyph glyph-name="jcircumflex" unicode="&#x135;" horiz-adv-x="543" 
d="M44 880c114.667 22 221.666 45.332 320.999 69.999l9 -7c-4 -86.667 -6 -182 -6 -286v-568c0 -131.333 -25.167 -234.833 -75.5 -310.5s-138.833 -169.5 -265.5 -281.5l-46 41c98.667 130 157.334 226 176.001 288s28 141 28 237v505
c0 80.667 -1.33301 161.334 -4 242.001l-132 36zM553.999 1044h-76l-216 226l-216 -226h-72l217 373h147z" />
    </font>
</defs>
</svg>
